<svg xmlns="http://www.w3.org/2000/svg" width="512" height="512" viewBox="0 0 512 512">
  <path d="M208 96c-61.7 0-112 50.3-112 112 0 61.7 50.3 112 112 112s112-50.2 112-112S269.8 96 208 96zM208 64c8.8 0 16-7.2 16-16V16c0-8.8-7.2-16-16-16s-16 7.2-16 16v32C192 56.8 199.2 64 208 64zM332.4 106.2L355 83.6c6.3-6.2 6.3-16.4 0-22.6s-16.4-6.2-22.6 0L309.8 83.6c-6.2 6.3-6.2 16.4 0 22.6C316 112.4 326.2 112.4 332.4 106.2zM64 208c0-8.8-7.2-16-16-16H16c-8.8 0-16 7.2-16 16s7.2 16 16 16h32C56.8 224 64 216.8 64 208zM400 192h-32c-8.8 0-16 7.2-16 16s7.2 16 16 16h32c8.8 0 16-7.2 16-16S408.8 192 400 192zM83.5 106.2c6.3 6.3 16.4 6.3 22.6 0 6.3-6.2 6.3-16.4 0-22.6L83.5 61c-6.2-6.2-16.4-6.2-22.6 0 -6.2 6.3-6.2 16.4 0 22.6L83.5 106.2z" fill="#F0C419"/>
  <path d="M208 288c-44.2 0-80-35.8-80-80 0-44.2 35.8-80 80-80s80 35.8 80 80C288 252.2 252.2 288 208 288z" fill="#EDE21B"/>
  <path d="M400 256c-5.3 0-10.6 0.4-15.8 1.1 -16.8-22.8-38.9-40.5-64.2-51.7 -10.5-4.6-21.6-8.1-33-10.4C276.9 193 266.5 192 256 192c-46.1 0-88.8 19.8-118.7 53.4 -3.3 3.7-6.5 7.6-9.5 11.7 -5.2-0.7-10.5-1.1-15.8-1.1 -1.7 0-3.4 0-5.1 0.1C47.5 258.8 0 308 0 368c0 61.8 50.3 112 112 112 13.7 0 27.1-2.5 39.7-7.3C180.7 497.9 217.5 512 256 512c38.5 0 75.3-14.1 104.3-39.3C372.9 477.5 386.3 480 400 480c61.8 0 112-50.2 112-112S461.8 256 400 256z" fill="#ABCADD"/>
  <path d="M400 448c-17.1 0-32.9-5.5-45.9-14.7C330.6 461.6 295.6 480 256 480c-39.6 0-74.6-18.4-98.1-46.7C144.9 442.5 129.1 448 112 448c-44.2 0-80-35.8-80-80 0-44.2 35.8-80 80-80 7.2 0 14.1 1 20.6 2.8 3.4 0.9 6.6 2 9.8 3.3 4.3-8.5 9.6-16.4 15.6-23.6C181.4 242.2 216.4 224 256 224c10.2 0 20.1 1.2 29.6 3.5 10.6 2.5 20.7 6.4 30 11.5 23.1 12.4 41.9 31.7 53.9 55.1C378.9 290.2 389.2 288 400 288c44.2 0 80 35.8 80 80C480 412.2 444.2 448 400 448z" fill="#E8F4FC"/>
</svg>