<svg xmlns="http://www.w3.org/2000/svg" width="512" height="512" viewBox="0 0 512 512">
  <path d="M512 187.4c0-49.2-40-89.1-89.2-89.1 -2.4 0-4.8 0.1-7.1 0.3 -23.1-28.9-58-46-95.7-46 -37.7 0-72.6 17.1-95.7 46 -2.4-0.2-4.8-0.3-7.2-0.3C168 98.3 128 138.3 128 187.4c0 5.1 0.7 10.1 1.5 15 -0.5 0.7-1.2 1.4-1.7 2.1 -5.2-0.7-10.5-1.1-15.8-1.1 -61.7 0-112 50.2-112 112 0 61.8 50.3 112 112 112 13.7 0 27.1-2.5 39.7-7.3 29 25.3 65.8 39.3 104.3 39.3 38.5 0 75.3-14.1 104.3-39.3 12.6 4.8 26 7.3 39.7 7.3 61.8 0 112-50.2 112-112 0-25.7-9-49.1-23.7-68C502.9 231.5 512 210.6 512 187.4z" fill="#ABCADD"/>
  <path d="M400 395.4c-17.1 0-32.9-5.5-45.9-14.7 -23.5 28.3-58.4 46.7-98.1 46.7 -39.6 0-74.6-18.4-98.1-46.7 -13 9.2-28.8 14.7-45.9 14.7 -44.2 0-80-35.8-80-80 0-44.2 35.8-80 80-80 10.8 0 21.1 2.2 30.4 6.1 0.6-1.1 1.3-2 1.8-3 5.6-10.3 12.6-19.7 20.7-28 23.1-23.9 55.2-39 91.1-39 49.7 0 92.3 28.7 113.5 70.1 5.6-2.3 11.7-3.8 17.9-4.8l12.6-1.2c12.3 0 23.9 3 34.3 8 11.3 5.4 21 13.4 28.6 23.2C473.5 280.1 480 297 480 315.4 480 359.6 444.2 395.4 400 395.4zM465.6 225c-18.5-13.5-41-21.6-65.6-21.6 -5.3 0-10.6 0.4-15.8 1.1 -29.9-40.7-77-65.1-128.2-65.1 -34.1 0-66.3 11-92.9 30.3 7.5-22.9 28.7-39.5 54.1-39.5 7.8 0 15.1 1.6 21.8 4.3 15.2-29.6 45.6-50 81.1-50s66 20.5 81.1 50c6.7-2.8 14.1-4.3 21.7-4.3 31.6 0 57.2 25.6 57.2 57.1C480 201.9 474.4 215 465.6 225z" fill="#E8F4FC"/>
</svg>