<svg xmlns="http://www.w3.org/2000/svg" width="512" height="512" viewBox="0 0 512 512">
  <path d="M96 320c-17.7 0-32 14.3-32 32 0 17.7 14.3 32 32 32s32-14.3 32-32C128 334.3 113.7 320 96 320zM256 352c-17.7 0-32 14.3-32 32 0 17.7 14.3 32 32 32 17.7 0 32-14.3 32-32C288 366.3 273.7 352 256 352zM416 320c-17.7 0-32 14.3-32 32 0 17.7 14.3 32 32 32s32-14.3 32-32C448 334.3 433.7 320 416 320zM352 448c-17.7 0-32 14.3-32 32 0 17.7 14.3 32 32 32s32-14.3 32-32C384 462.3 369.7 448 352 448zM160 448c-17.7 0-32 14.3-32 32 0 17.7 14.3 32 32 32s32-14.3 32-32C192 462.3 177.7 448 160 448z" fill="#BBB"/>
  <path d="M400 64c-5.3 0-10.6 0.4-15.8 1.1 -16.8-22.8-38.9-40.5-64.2-51.7C309.5 8.8 298.4 5.3 287 3c-10.1-2-20.5-3-31-3C209.9 0 167.2 19.8 137.3 53.4c-3.3 3.7-6.5 7.6-9.5 11.7 -5.2-0.7-10.5-1.1-15.8-1.1 -1.7 0-3.4 0-5.1 0.1C47.5 66.8 0 116 0 176c0 61.8 50.3 112 112 112 13.7 0 27.1-2.5 39.7-7.3C180.7 305.9 217.5 320 256 320s75.3-14.1 104.3-39.3C372.9 285.5 386.3 288 400 288c61.8 0 112-50.2 112-112S461.8 64 400 64z" fill="#ABCADD"/>
  <path d="M400 256c-17.1 0-32.9-5.5-45.9-14.7C330.6 269.6 295.6 288 256 288c-39.6 0-74.6-18.4-98.1-46.7 -13 9.2-28.8 14.7-45.9 14.7 -44.2 0-80-35.8-80-80 0-44.2 35.8-80 80-80 7.2 0 14.1 1 20.6 2.8 3.4 0.9 6.6 2 9.8 3.3 4.3-8.5 9.6-16.4 15.6-23.6C181.4 50.2 216.4 32 256 32c10.2 0 20.1 1.2 29.6 3.5C296.2 38 306.3 41.9 315.6 47c23.1 12.4 41.9 31.7 53.9 55.1C378.9 98.2 389.2 96 400 96c44.2 0 80 35.8 80 80C480 220.2 444.2 256 400 256z" fill="#E8F4FC"/>
</svg>