<svg xmlns="http://www.w3.org/2000/svg" width="512" height="512" viewBox="0 0 512 512">
  <polygon points="192 352 224 384 192 480 288 384 256 352 288 256 " fill="#FFD35C"/>
  <path d="M400 64c-5.3 0-10.6 0.4-15.8 1.1 -16.8-22.8-38.9-40.5-64.2-51.7 -10.5-4.6-21.6-8.1-33-10.4C276.9 1 266.5 0 256 0c-46.1 0-88.8 19.8-118.7 53.4 -3.3 3.7-6.5 7.6-9.5 11.7C122.6 64.4 117.3 64 112 64c-1.7 0-3.4 0-5.1 0.1C47.5 66.8 0 116 0 176c0 61.8 50.3 112 112 112 13.7 0 27.1-2.5 39.7-7.3 12.8 11.2 27.2 20.1 42.5 26.7l72.6-72.6C272.6 229 280.3 226 288 226c5.4 0 10.9 1.5 15.8 4.5 11.8 7.3 17.1 21.8 12.7 35l-16 48.1c21.9-6.5 42.3-17.6 59.9-32.9C372.9 285.5 386.3 288 400 288c61.8 0 112-50.2 112-112S461.8 64 400 64z" fill="#ABCADD"/>
  <path d="M400 96c-10.8 0-21.1 2.2-30.5 6.1 -12-23.4-30.8-42.7-53.9-55.1 -9.4-5-19.4-8.9-30-11.4C276.1 33.2 266.2 32 256 32c-39.6 0-74.6 18.2-98 46.4 -6 7.3-11.2 15.2-15.6 23.6 -3.2-1.3-6.5-2.4-9.8-3.3C126.1 97 119.2 96 112 96c-44.2 0-80 35.8-80 80 0 44.2 35.8 80 80 80 17.1 0 32.9-5.5 45.9-14.7 15.9 19.1 36.9 33.7 61.2 41.1l47.7-47.7C272.6 229 280.3 226 288 226c5.4 0 10.9 1.5 15.8 4.5 11.8 7.3 17.1 21.8 12.7 35l-2.8 8.5c15.6-8.1 29.3-19.2 40.4-32.7C367.1 250.5 382.9 256 400 256c44.2 0 80-35.8 80-80C480 131.8 444.2 96 400 96z" fill="#E8F4FC"/>
</svg>