<svg xmlns="http://www.w3.org/2000/svg" width="512" height="512" viewBox="0 0 512 512">
  <path d="M225 480c0 17.7 14.3 32 32 32 17.7 0 32-14.3 32-32 0-17.7-32-64-32-64S225 462.3 225 480zM352 448c0 17.7 14.3 32 32 32s32-14.3 32-32c0-17.7-32-64-32-64S352 430.3 352 448zM96 384c0 17.7 14.3 32 32 32s32-14.3 32-32c0-17.7-32-64-32-64S96 366.3 96 384z" fill="#0096E6"/>
  <path d="M400 64c-5.3 0-10.6 0.4-15.8 1.1 -16.8-22.8-38.9-40.5-64.2-51.7 -10.5-4.6-21.6-8.1-33-10.4C276.9 1 266.5 0 256 0c-46.1 0-88.8 19.8-118.7 53.4 -3.3 3.7-6.5 7.6-9.5 11.7C122.6 64.4 117.3 64 112 64c-1.7 0-3.4 0-5.1 0.1C47.5 66.8 0 116 0 176c0 61.8 50.3 112 112 112 13.7 0 27.1-2.5 39.7-7.3C180.7 305.9 217.5 320 256 320c38.5 0 75.3-14.1 104.3-39.3C372.9 285.5 386.3 288 400 288c61.8 0 112-50.2 112-112S461.8 64 400 64z" fill="#ABCADD"/>
  <path d="M400 256c-17.1 0-32.9-5.5-45.9-14.7C330.6 269.6 295.6 288 256 288c-39.6 0-74.6-18.4-98.1-46.7C144.9 250.5 129.1 256 112 256c-44.2 0-80-35.8-80-80 0-44.2 35.8-80 80-80 7.2 0 14.1 1 20.6 2.8 3.4 0.9 6.6 2 9.8 3.3 4.3-8.5 9.6-16.4 15.6-23.6C181.4 50.2 216.4 32 256 32c10.2 0 20.1 1.2 29.6 3.5 10.6 2.5 20.7 6.4 30 11.5 23.1 12.4 41.9 31.7 53.9 55.1C378.9 98.2 389.2 96 400 96c44.2 0 80 35.8 80 80C480 220.2 444.2 256 400 256z" fill="#E8F4FC"/>
</svg>