<svg xmlns="http://www.w3.org/2000/svg" width="512" height="512" viewBox="0 0 512 512">
  <path d="M326 443.7l-18-10.4c0.5-3.1 1-6.3 1-9.6s-0.4-6.5-1-9.6l18-10.4c8.4-4.9 11.3-15.7 6.5-24.1 -4.9-8.5-15.7-11.4-24.1-6.5l-18.2 10.5c-4.9-4.1-10.4-7.4-16.5-9.6v-20.9c0-9.8-7.9-17.7-17.7-17.7s-17.7 7.9-17.7 17.7v20.9c-6.1 2.2-11.6 5.5-16.5 9.6l-18.1-10.5c-8.5-4.9-19.3-2-24.2 6.5 -4.9 8.4-1.9 19.3 6.5 24.1l18 10.4c-0.6 3.1-1 6.3-1 9.6 0 3.3 0.4 6.5 1 9.6L186 443.7c-8.5 4.9-11.4 15.8-6.5 24.2 4.9 8.4 15.7 11.3 24.1 6.4l18.2-10.4c4.9 4.1 10.4 7.4 16.5 9.6v20.9c0 9.7 7.9 17.6 17.7 17.6s17.7-7.9 17.7-17.6v-20.9c6.1-2.2 11.7-5.4 16.5-9.6l18.2 10.5c8.5 4.9 19.2 2 24.1-6.4C337.4 459.4 334.5 448.6 326 443.7zM256 441.4c-9.7 0-17.7-7.9-17.7-17.7s7.9-17.6 17.7-17.6 17.7 7.9 17.7 17.6S265.8 441.4 256 441.4zM474.2 396.3l-12.1-3.2c-0.3-3.8-1.2-7.5-2.9-11l8.8-8.8c4.1-4.1 4.1-10.8 0-14.9 -4.1-4.1-10.7-4.1-14.8 0l-8.8 8.8c-3.5-1.6-7.1-2.6-11-2.9l-3.2-12.1c-1.5-5.6-7.2-8.9-12.9-7.4 -5.6 1.5-8.9 7.3-7.4 12.9l3.2 11.9c-1.6 1.1-3.1 2.3-4.5 3.7 -1.4 1.4-2.5 2.9-3.6 4.5l-11.9-3.2c-5.6-1.5-11.4 1.9-12.9 7.4 -1.5 5.6 1.9 11.4 7.4 12.9l12 3.2c0.3 3.8 1.3 7.5 3 11l-8.8 8.8c-4.1 4.1-4.1 10.7 0 14.8 4.1 4.1 10.7 4.1 14.8 0l8.8-8.8c3.5 1.7 7.2 2.7 11 3l3.2 12c1.5 5.6 7.3 8.9 12.9 7.4 5.6-1.5 9-7.2 7.5-12.9l-3.2-11.9c1.5-1.1 3-2.2 4.5-3.6 1.4-1.4 2.5-2.9 3.6-4.5l11.9 3.2c5.6 1.5 11.4-1.9 12.9-7.4C483.1 403.5 479.8 397.8 474.2 396.3zM438.3 402.9c-4.1 4.1-10.8 4.1-14.9 0 -4.1-4.1-4.1-10.7 0-14.9 4.1-4.1 10.8-4.1 14.9 0C442.4 392.2 442.4 398.9 438.3 402.9zM118.9 342.5l-11.9 3.2c-1.1-1.5-2.2-3-3.6-4.4 -1.4-1.4-2.9-2.6-4.5-3.6l3.2-11.9c1.5-5.6-1.8-11.4-7.4-12.9 -5.6-1.5-11.4 1.8-12.9 7.4l-3.2 12.1c-3.8 0.3-7.5 1.3-10.9 2.9l-8.8-8.8c-4.1-4.1-10.7-4.1-14.8 0 -4.1 4.1-4.1 10.8 0 14.9l8.8 8.8c-1.6 3.5-2.6 7.2-2.9 11l-12 3.2c-5.6 1.5-9 7.3-7.5 12.9 1.5 5.6 7.3 8.9 12.9 7.4l11.9-3.2c1.1 1.6 2.3 3.1 3.7 4.5 1.4 1.4 2.9 2.6 4.4 3.6l-3.2 11.9c-1.5 5.6 1.8 11.4 7.4 12.9 5.6 1.5 11.3-1.8 12.8-7.4l3.3-12c3.8-0.3 7.5-1.3 11-2.9l8.8 8.8c4.1 4.1 10.7 4 14.8 0 4.1-4.1 4.1-10.7 0-14.8L109.4 377c1.7-3.5 2.7-7.2 2.9-11l12.1-3.2c5.6-1.5 8.9-7.2 7.4-12.9C130.3 344.4 124.6 341 118.9 342.5zM88.6 371c-4.1 4.1-10.7 4.1-14.9 0 -4.1-4.1-4.1-10.8 0-14.8 4.1-4.1 10.8-4.1 14.9 0C92.7 360.2 92.6 366.9 88.6 371z" fill="#E6E7E8"/>
  <path d="M400 64c-5.3 0-10.6 0.4-15.8 1.1 -16.8-22.8-38.9-40.5-64.2-51.7 -10.5-4.6-21.6-8.1-33-10.4C276.9 1 266.5 0 256 0c-46.1 0-88.8 19.8-118.7 53.4 -3.3 3.7-6.5 7.6-9.5 11.7C122.6 64.4 117.3 64 112 64c-1.7 0-3.4 0-5.1 0.1C47.5 66.8 0 116 0 176c0 61.8 50.3 112 112 112 13.7 0 27.1-2.5 39.7-7.3C180.7 305.9 217.5 320 256 320c38.5 0 75.3-14.1 104.3-39.3C372.9 285.5 386.3 288 400 288c61.8 0 112-50.2 112-112S461.8 64 400 64z" fill="#ABCADD"/>
  <path d="M400 256c-17.1 0-32.9-5.5-45.9-14.7C330.6 269.6 295.6 288 256 288c-39.6 0-74.6-18.4-98.1-46.7C144.9 250.5 129.1 256 112 256c-44.2 0-80-35.8-80-80 0-44.2 35.8-80 80-80 7.2 0 14.1 1 20.6 2.8 3.4 0.9 6.6 2 9.8 3.3 4.3-8.5 9.6-16.4 15.6-23.6C181.4 50.2 216.4 32 256 32c10.2 0 20.1 1.2 29.6 3.5 10.6 2.5 20.7 6.4 30 11.5 23.1 12.4 41.9 31.7 53.9 55.1C378.9 98.2 389.2 96 400 96c44.2 0 80 35.8 80 80C480 220.2 444.2 256 400 256z" fill="#E8F4FC"/>
</svg>