<svg xmlns="http://www.w3.org/2000/svg" width="512" height="512" viewBox="0 0 512 512">
  <path d="M400 64c-5.3 0-10.6 0.4-15.8 1.1 -16.8-22.8-38.9-40.5-64.2-51.7 -10.5-4.6-21.6-8.1-33-10.4C276.9 1 266.5 0 256 0c-46.1 0-88.8 19.8-118.7 53.4 -3.3 3.7-6.5 7.6-9.5 11.7C122.6 64.4 117.3 64 112 64c-1.7 0-3.4 0-5.1 0.1C47.5 66.8 0 116 0 176c0 61.8 50.3 112 112 112 13.7 0 27.1-2.5 39.7-7.3C180.7 305.9 217.5 320 256 320c38.5 0 75.3-14.1 104.3-39.3C372.9 285.5 386.3 288 400 288c61.8 0 112-50.2 112-112S461.8 64 400 64z" fill="#ABCADD"/>
  <path d="M400 252c-17.1 0-32.9-5.5-45.9-14.7C330.6 265.6 295.6 284 256 284c-39.6 0-74.6-18.4-98.1-46.7C144.9 246.5 129.1 252 112 252c-44.2 0-80-35.8-80-80 0-44.2 35.8-80 80-80 7.2 0 14.1 1 20.6 2.8 3.4 0.9 6.6 2 9.8 3.3 4.3-8.5 9.6-16.4 15.6-23.6C181.4 46.2 216.4 28 256 28c10.2 0 20.1 1.2 29.6 3.5 10.6 2.5 20.7 6.4 30 11.5 23.1 12.4 41.9 31.7 53.9 55.1C378.9 94.2 389.2 92 400 92c44.2 0 80 35.8 80 80C480 216.2 444.2 252 400 252z" fill="#E8F4FC"/>
  <path d="M385.9 285.8c-2.4-4.1-7.6-5.5-11.7-3.1l-24.2 14v-27.9c0-4.7-3.8-8.5-8.5-8.5s-8.5 3.8-8.5 8.5v27.9l-24.2-14c-4.1-2.4-9.3-1-11.7 3.1 -2.4 4.1-1 9.3 3.1 11.7l24.2 14 -24.2 14c-4.1 2.4-5.5 7.6-3.1 11.7 1.6 2.7 4.5 4.3 7.4 4.3 1.5 0 2.9-0.4 4.3-1.1l24.2-14v27.9c0 4.7 3.8 8.5 8.5 8.5s8.5-3.8 8.5-8.5v-27.9l24.2 14c1.3 0.8 2.8 1.1 4.3 1.1 3 0 5.8-1.5 7.4-4.3 2.4-4.1 1-9.3-3.1-11.7l-24.2-14 24.2-14C386.8 295.1 388.2 289.9 385.9 285.8zM206.4 285.8c-2.4-4.1-7.6-5.5-11.7-3.1l-24.2 14v-27.9c0-4.7-3.8-8.5-8.5-8.5s-8.5 3.8-8.5 8.5v27.9l-24.2-14c-4.1-2.4-9.3-1-11.7 3.1 -2.4 4.1-1 9.3 3.1 11.7l24.2 14 -24.2 14c-4.1 2.4-5.5 7.6-3.1 11.7 1.6 2.7 4.5 4.3 7.4 4.3 1.5 0 2.9-0.4 4.3-1.1l24.2-14v27.9c0 4.7 3.8 8.5 8.5 8.5s8.5-3.8 8.5-8.5v-27.9l24.2 14c1.3 0.8 2.8 1.1 4.3 1.1 3 0 5.8-1.5 7.4-4.3 2.4-4.1 1-9.3-3.1-11.7l-24.2-14 24.2-14C207.4 295.1 208.8 289.9 206.4 285.8zM300.4 397.1c-2.4-4.1-7.6-5.5-11.7-3.1l-24.2 14v-27.9c0-4.7-3.8-8.5-8.5-8.5 -4.7 0-8.5 3.8-8.5 8.5v27.9L223.3 394c-4.1-2.4-9.3-1-11.7 3.1 -2.4 4.1-1 9.3 3.1 11.7l24.2 14 -24.2 14c-4.1 2.4-5.5 7.6-3.1 11.7 1.6 2.7 4.5 4.3 7.4 4.3 1.5 0 2.9-0.4 4.3-1.1l24.2-14v27.9c0 4.7 3.8 8.5 8.5 8.5 4.7 0 8.5-3.8 8.5-8.5v-27.9l24.2 14c1.3 0.8 2.8 1.1 4.3 1.1 3 0 5.8-1.5 7.4-4.3 2.4-4.1 1-9.3-3.1-11.7l-24.2-14 24.2-14C301.4 406.4 302.8 401.2 300.4 397.1zM121 397.1c-2.4-4.1-7.6-5.5-11.7-3.1L85.1 408v-27.9c0-4.7-3.8-8.5-8.5-8.5s-8.5 3.8-8.5 8.5v27.9L43.8 394c-4.1-2.4-9.3-1-11.7 3.1 -2.4 4.1-1 9.3 3.1 11.7l24.2 14 -24.2 14c-4.1 2.4-5.5 7.6-3.1 11.7 1.6 2.7 4.5 4.3 7.4 4.3 1.5 0 2.9-0.4 4.3-1.1L68 437.6v27.9c0 4.7 3.8 8.5 8.5 8.5 4.7 0 8.5-3.8 8.5-8.5v-27.9l24.2 14c1.3 0.8 2.8 1.1 4.3 1.1 3 0 5.8-1.5 7.4-4.3 2.4-4.1 1-9.3-3.1-11.7l-24.2-14 24.2-14C121.9 406.4 123.3 401.2 121 397.1zM479.9 397.1c-2.4-4.1-7.6-5.5-11.7-3.1L444 408v-27.9c0-4.7-3.8-8.5-8.5-8.5 -4.7 0-8.5 3.8-8.5 8.5v27.9L402.7 394c-4.1-2.4-9.3-1-11.7 3.1 -2.4 4.1-1 9.3 3.1 11.7l24.2 14 -24.2 14c-4.1 2.4-5.5 7.6-3.1 11.7 1.6 2.7 4.5 4.3 7.4 4.3 1.5 0 2.9-0.4 4.3-1.1l24.2-14v27.9c0 4.7 3.8 8.5 8.5 8.5s8.5-3.8 8.5-8.5v-27.9l24.2 14c1.3 0.8 2.8 1.1 4.3 1.1 3 0 5.8-1.5 7.4-4.3 2.4-4.1 1-9.3-3.1-11.7l-24.2-14 24.2-14C480.8 406.4 482.2 401.2 479.9 397.1z" fill="#C7C8C9"/>
</svg>