<svg xmlns="http://www.w3.org/2000/svg" width="540" height="650" viewBox="0 0 540 650">
<style>
  .a{
    fill:#7EC059;
    stroke:#FFF;
  }
</style>
  <path d="M141.5 137.1L141.5 137.1l3.8 3.8 0.8 5.4 1.1 0.4 2.4-1.2 3.1 5.8 1.8-0.7 3.6 0.4 4.2-2.3 3.1-0.3 0.7 2.9 3.7-2.1 3-0.3 1.7-1.6v-1.1l1.3-0.3 1.3-1.7 -1.2-1.1 0.4-2.5 3.2-2.1 -1.4-3.6 -4.8 2.2 -1.5-0.4 1.4-5.3 -2.1-4.7 -0.1-4.5 -2.1-1.3 -5-0.2 -2.2 1.5L160.1 125l-0.1 3 -1.1 0.8 -5.1 0.4 -1.6 4.5 -3.6 1.6 -5.1-3.2 -2.2 3.5 0 0L141.5 137.1z" class="a"/>
  <path d="M369.8 391.7v0.8h4l1.3 1.3 0 0 1 1.7L375.9 397l-1.5 1.1 -0.8 5 -1.9 1 1.6 0.2 0.3 1.6 -1.4 3 -1-0.5 -0.6 1.4 0.8 1.4 -0.6 1.7 -2.3 0.7 -0.6 2.2 -1.1 0.7 -1.6-0.6 -1.3 0.9 -1.6-1.1 0.1 0.8 -1.6 0.2 -0.6 2.1 1 0.2 0.5 1.5 -0.1 2.6 -1.2-0.6 -1.9 0.3 -0.3-0.4 -1.9-0.3 0.2-2 -0.7-0.4L354 421l-1.7 2.7L352 425.5l-0.8 0.1 0.7 1.4 -0.7 1.2 -1.1-3.6 -1.1 0.2 0.9 3.9 -0.9 0.4 -0.2-1.5 -1-0.4 0.2 1.7 -1.2-0.1 0.7 0.9 -1.2 0.8 0.1-1.8 -0.7-0.4 -0.8-3.3 0.5-3L343.3 424.4l-0.1-2.9 -2 3.6H339.6l1-4.5 -1-0.4 -1 4.9 -4.4-0.5 -1.5-1.6 -2.9 2.2L329 424.3l1.8-1.5 -1.3 0.2 0.3-2.3 0 0 6.9-2.6 0.4-5 2.3-0.3 3.9-2.4 4.2-0.1 4.1-4.9 3.9-2.5 1.8 0.3 3.6-6.6 4.9-0.6 0.6-1.9 2.9-2.7 0 0L369.8 391.7zM355.3 422.5l1.9 1.6 -0.3 1.6 1.9 1.6 -0.5 1.1H357.4l-0.5-1.2L356.3 427.5l-0.6-1.3 -3.1-2.3L355.3 422.5z" class="a"/>
  <path d="M305.7 360.3l-1.3 4.3 -1.3 0.9 0 0L300.7 364.6l-1.5 0.4 0 0 -3.5 2.5 -2.4 0.1 0 0 -0.7-3.4 -4.1-5 0.3-2.8 3.4 1.9h2.2l0.6-2.5 -3.1-3.4 1.3-3.1 1.3-2.8 5.3-0.9 -0.3-1.9 -2.8-2.2 -4.7-0.3 1.6-5.9 2.2-3.1 4.1-1.9 0.6 5.6h2.5l3.4-8.1 5.9-1.2 2.8-3.1 3.4-0.9 3.1 0.3L325.4 326l0.6 7.5 1.9 4.1 -0.9 2.2 -3.4 1.3 -1.6 3.4v3.1l-2.5 0.3v1.9l1.3 1.6v4.1l-3.4 1.3 -1.6 1.9 -2.8-0.3 -0.6-2.8H309.3l-2.2 1.3 -1.6 2.5L305.7 360.3z" class="a"/>
  <path d="M121.4 133.6l4.2-2.7 2.1-2.8 2.1 0.2 7.5 6 0 0 3.8 1.3 0.5 1.6 0 0 0 0 0 0 -3.5 4.6 0 0 0.1 4 3.3 2.9 0 0 -0.4 3.8 -1.8 2.3 0 0 -2-0.6 0.5-1.8 -0.7-0.5 -0.4 1.7 -0.6-2.3 0.5 3 -2 2.3 -3.6-0.5 -3.7 4.6 -4.6 0.1 -0.3 1.1h-1l0.8-0.3 0.5-1.8 4.6 0.8 3.6-4.5 -4-3.2 -0.9-4.3 -0.5 2.3 -1.5-0.1 0.2-2.6 -0.8 1.3 -1.2-0.5 1.2-4.6 3-1.2 1.2 0.4 -0.9-1.7L124.3 143l0.1-1.3 -1-1.1 1 0.1 -0.2-1.2 -1.2-1.2 0.7-0.3 0.1-1.4L121 138.2l-1-0.2 -0.1-0.1 3.9-1.6L121.4 133.6zM95.4 135.2l1.8 1.3 0.9-0.3 1.4 2 3-0.4 -0.3 1.5 -2-0.4 -1.9 0.6 -0.4-0.6 -1 1 0.4-2.1L95.4 135.2zM115 138.3l0.7 1.2 3.6 1 1.4 1.3 0.4 1.9 -2.3 1.4 -2-0.7 -8.9 7.4 -2.9 0.6 0.3-2 -0.9-0.7 -1.2 0.8 0.9-0.9 -0.5-0.7L102 150.2l-1.6-0.8 0.9-0.6 -1.5-1.8 0.2-1.4h1.7l3.9-2.8 5.6-0.3 1.3-1 0.7-2.7L115 138.3zM105.2 153l2.8 2.9L107.2 158l-1.6 0.4 -0.9-0.9 0.1-1.9 -1.2-0.3 0.9-2.4L105.2 153z" class="a"/>
  <path d="M157 406.8l-1.8-0.9 -2.4-0.1 -4.4 2 -2 2.1L144.9 410l-3.6-2.1 -0.6-2.2 -2.2-0.1 -2.1 5.3 -2.3-0.1 -1.7 2.1 -1.1 4.8 0.4 4.1 7.2 1.1 3.8 6.1h3.7l3.4-2h3.8l1.5-1 3.1 0.6 3.4-2.3 1.4-1.8 1.7-6.1V415l-2.1-1 -2.6-0.3 -1-4.5L157 406.8z" class="a"/>
  <path d="M199.1 264.9l1.3 5.3 0.3 0.2 0 0 1.5-2.4 0 0 0.6-0.6 0 0 1.4 0.2 -0.3 1.3 0 0 -0.1 0.6 0 0 2.9-2.4 0 0 2.5 2.5 0 0 0.2 2.6 2.4 1.2L211.5 275l2 2.4 -2.8 1.9 0 0 -0.9 5.6 0 0 -1.2 6.2 1.2 3.8 0 0 -3.3 2.2 -2.2 2.8 -3.7-2.2 -2.2-3.7 -0.6-3.4h-1.6l-0.3 8.1L195 300.9h-1.2l-0.9-3.1 -2.5-0.9 -1.6-2.2 -0.3-3.4 -2.2-1.9 -0.3-4.1 2.2-2.5 -0.3-8.7 6.9-2.2 1-6.1 0 0L199.1 264.9z" class="a"/>
  <path d="M369 355.9l1.8 1.5 3 0.9 0.2 0.8 0 0 -0.4 2.9 0 0 1 1.1 0 0 2 0.7 0 0 5.4-2.4 0 0 8.1 2.2 0 0 2.9 0.4 0.7 1.4v1.4l-1.1 0.8 0.5 3.1 -0.7 2.4 -1.1 0.5 0.8 0.1L391.9 375.3l-1.2 0.5 1 0.7 -1.3 0.6 1.5 0.7 -1 1.2 -1-0.4 -1.8 1.3 0.2-2.5 -1.2-0.9 -0.6-2.9 -1.9-2.1 -1.5-0.5 2.3 2.4L385.3 374.5l1 0.3 0.4 1.5 -2.4 0.1 0.5 0.7 1-0.3 0.9 1.6 -2.6 3.2 -2.2-1.7 0.8 3 1.2-0.1 -0.5 1 1.4-0.7v1.6l-1.6 1.2 1.1 1.7 -1.8 2.9 1.8 2.5 -1.5 0.9 -1.2-0.5 -2 3.1 -1.1 0.1 -0.3 1.2 -2-0.7 0.2-1.5 -1-1.7 0 0 -1.3-1.3h-4v-0.8l0 0 -1.5-1.9 0 0 -3.1-0.2 0 0 -5.7-5.9 0 0 -3.3-3.4 -2.4-0.2 0 0H351.4l-2.2-1 -0.3-4.8 2.2-1.9 0 0 1.2-1V370l-1.5-2.4 0 0 3.9-3.1 0 0 0 0 0 0 1.7-0.2 0 0 0 0 0 0 1.3-0.7 -1.4-2.5 0.4-1.6 7.3-3.6H369z" class="a"/>
  <path d="M87.2 112.1l-1.8-2.1 1.5-1.6 0.2-2.3 1.6-1.5h2.7l3.1 1.8 2.4-0.7L98 106.9l-1.7 2.8 -2 1.2 -2.6-0.3 -2.2 0.6 -1 1.4L87.2 112.1zM96.9 171.1l-3.4-1.8 -1.1 1.3 4 2.1 2.1-0.5 0.7-1.2 -1.4-0.5L96.9 171.1zM90.2 124.2l-3.1-0.1 3.7 3.9 0.3-0.6 -1.1-0.8L90.2 124.2zM78.3 171.8l-0.9 0.6 -0.8-2.9 -1.1-0.2 -1.5 6 1.3-0.2 0.2-0.8 0.4 1.3 1.2-0.4 -0.2 1.5 3.4-0.5 1.6-1.9 -3.3-2L78.3 171.8zM83.1 121.5l-1-0.4 -1.2 0.9 1.2 0.7 1.2-0.5 0.9 1.5 1.9 0.3 0.3-1.4 -1.4-2.5L83.1 121.5zM162.2 54.5l-4.9 5.8h-2.8l-4.7-1.9L147.3 60l-5.6 4.7 -3.4 5 1.9 0.9 1.9 3.8 6.3 0.3 3.4 1.9 0.6 3.1 -1.2 0.9 -0.3 1.9 -5-0.6 -0.3 3.8L144 86.6l0.3 2.5 1.9 0.9 -0.3 6.6 -2.2 1.3 -3.1-3.7 1.3-4.4 -2-2.5 -2.4 0.1 -0.3 2.7 -1.9 1.9 -3.5-3.3 -0.7 0.1 0.9 4.9 -0.5 1.9 4.7 1.8 3.4 5 -6.5 1.9h-2.8l-1 4.6 -3 0.2 -3.1 2.5 -3.6-0.5 -2-1.6 -0.6 1.2 -1.8 0.8 1.1 1.8 -0.9 4.2 1.1 1.8 -0.5 3.1 1.2 0.5 -0.8 1.7 2.7 6.3 2.4 3.1 0 0 4.2-2.7 2.1-2.8 2.1 0.2 7.5 6 0 0 3.8 1.3 0 0 2.2-3.5 5.1 3.2 3.6-1.6 1.6-4.5 5.2-0.4 1.1-0.8 0.1-3 1.6-2.8 2.2-1.5 5 0.2 2.1 1.3 0.1 4.5 2.1 4.7 -1.4 5.4 1.6 0.4 4.8-2.2 1.4 3.6 -3.2 2.1 -0.4 2.5 1.2 1.1 -1.3 1.7 -1.3 0.3v1.1l-1.7 1.6 -3 0.3 -3.6 2.1 -0.7-2.9 -3.1 0.3 -4.2 2.3 -3.6-0.4 -1.8 0.7 -3.1-5.8 -2.4 1.3 -1.1-0.4 -0.8-5.4 -3.8-3.8 0 0 -3.5 4.6 0 0 0.1 4 3.3 2.9 0 0 -0.4 3.8 -1.8 2.3 0 0 1.2 0.6 -4-0.8 -0.9 1.1 0.8 0.6 -0.4 1.5 -4.7 2.6 0.3 1.5 -7.5 2.5 -2.9 2.2 -0.9-0.3 0.5 1 -1.3 1.4 -2.9-1.4 2.9 4 -0.3 2.1L117.5 175l1.5 1.5h-1.2l0.3 0.9L117 178.5l1.7-0.7 1 1.6 1.8-3.4 3 1.5 0.8-3.3 0.3 1.6 2 1.3 -0.5 1.7 0.6 0.6 0.8-2.3 -0.3-1.6 -2.6-1.3 -0.6-2.7 -2.2-0.4 -2.1-2 1-1.8 3.2-2.2 6.5-2.2 9.4 4.5 3.1-0.4 2.8 3.3 1.3-0.4 -1 1.8 -1.6-2 -1.9-0.5 0.2-0.9 -0.9 0.3 -0.3 0.8 1 1.3 -1.9-0.1 0.7 1.7 -0.9 0.9 0.7 0.2 -2.2 3.4 -1.3-0.9 0.6-0.7 -0.6-3L136 173.1l-0.3-1.1 -3.6-0.7 -0.7 1.8 -1.7 0.4 0.4 1.7 0.9 0.6 -0.9 1.7 1 1.5h-1.4l-1.2 1.5 1.2 2.6 -1.1 1 1.5-0.6 2.4 0.5 -2.2 2.1 1.3 0.8 -0.2 1.8 0.8 0.8 0.4-1.6L136 186l2.1-3.4 2.6 0.2 1.4-2.1 1 2.4 -2.1 1.3 4.7 0.1 -2.1 0.6 0.9 1 -0.8-0.4 -1.4 1.3 -1-0.7 -2 1.9 0.1 7.1 -1.6 2.8 0.4 0.8 4.3 0.3 0.3 2.1 -1.3 0.4 0.1 0.8 3.9 0.8 1.6 4.2 1.9 0.8 0.5 1.9 1.9-0.3 1.4 0.9 0.9 4.6 0 0 3.5-2.1 7.6 1.8 4.9-1.8 3-2.1 2.6-0.1 3 1.4 3.3 3.4 5.1 0.7 0 0 2.8-0.2 0 0 3.8-1.7 0 0 1.7-1.2 2.2 0.1 1.8-1.7 0.2-2.1 0 0 -0.3-1.1 5.1-3 0 0 0.8-2.6 2.3-2.6 0.8 1.2h1.5l-0.3 2.1 1.6-3.2 4.3 0.8 4.1-3.7 2.5-0.3 0.6-7.8h1.6l1.6 1.9h1.9l2.7-6.6 2.7-0.6 0 0 0.6-7.4 -0.6-3.4 1.6-1.2 -0.3-7.5 3.4-8.1 0.3-4.1 -1.9-0.7L235 149.5l3.1-4 2.1-0.7 0.8-2.2 -1.6-2.9 -9-1.4 -4.3-3.7 -2.7-0.3 -4.1-2.5 -3.6 1.4 -2.6-2.8 1.8-3.5 0.3-4.4 -3.6 0.9 0.1-2 2.7-3.1 -1.3-3.5 0.8-2 -0.8-2.9 0.6-1.5 2.3-0.7 1.8-2.1 3.3-1.1 1-4 -0.8-4 -1.4-1.6 -4.2-1.4 -0.1-2.7 -0.9-0.6 -3.2 0.3 -3.1-1.5 -1.6-3 -0.4-7.5 -1.4-2 -2 1.1 -2.1-1.6 -1.5 0.2 -4.1 1.9 -4.5-3.6 0.5-5.3 1.1-0.9 -2-0.9 -3.7 3.7 -2.4 0.2 -1.6-0.8 -0.4-3.2 -1 0.3 -0.2-1.1 0.6-1.9 -1.6-1.2 -0.9-5.3h-4.7V56.2l1.3-0.9 -4.7-4.4 0 0 -1.3 0.6L162.2 54.5zM100.9 119.3l-2.5-0.4 -2.1-1.6V115l1-2.1 -0.9-0.6 -3.2 1.3 -0.1 3.4 -1.5 0.6 4.6 3.2 1 1.5 -0.3 2.1L98 125.5l3.6-2.7 0.4-2L100.9 119.3zM116.5 122.9l-1.5-1.3 0.8-3.2 -1.2-1.7 1.2-3.7 -1.4-1.7 -0.3-2.3 -4.5-2.9 -2.1-2.8 -3.9 0.7 -0.8 2 -3.5 1.9L99.8 118l3 0.8 2 4.6 -0.9 2.4 -3.2 0.6 1.2 2.1 -0.6 0.8 3.3 2 5.4 0.4v-1l0.9 0.4 0.6-0.9 3.2 0.9 0.8-1.6 1.4-0.4 -1.2-4.7L116.5 122.9zM110.9 167.4l-1.9 0.4 -0.2 1.3 -1.5-0.1 -0.7 1.5 0.8 2 -0.3 1.9h1.9l0.1 0.9 0.6-0.1 1.3-1.1 -0.3-0.8 1.5-0.1 -1.1-1.3h1.3l-0.2-0.8 1 0.7 0.7-2 -1.3-1.7L110.9 167.4z" class="a"/>
  <path d="M289.2 9.5l1.4 2.8 2.2 2.8 0.6-0.2 0.8 1.7 -0.6 1.3L295.4 20.2l-0.6 1.3 1.2 1 -0.2 1.5 3.7 4.9 -1.1 0.5 -0.1 1.7 5.5 7.6 -0.6 0.4 0.3 1.7 1.6 2.2 -0.1 1.5 2.3 2 0.8 5.6 4 5.2 -0.8 1.1 2 2.7 -0.9 1L313.3 66.2l5.6 6.6 0.7 3 4 4.3L324.7 80.2l-0.5 1.9 3.8 6.2 1.7 1.2 -0.1 1.1 4.1 3.7 -0.1 2.5 4.4 5 0.2 1.5 17 18.5 -1.2 4.6 2.4 3.2 4.5 3.7 0.4 1.8L360.4 137l1.9 5.2 5.2 5.3 1.1 5 4.8 3.8 1.7 6.9 1.8 1.6 1-0.1 0.5 2.5 1.7 0.1 0.8 1.1L380.6 170.2l2.8 3.4 -1.5 1.1 0.7 1.8 -0.8 2.4 0.6 2.6 2.7 3.9 -0.3 1.2 0.8 0.8 0 0 -4.3 0.7 0 0 -1.9 2.2 -2.5 0.9 -2.8 2.5 0 0 -1.6 2.2v1.3l0 0 1.6 2.8 -6.5 0.2 0 0L365 198l-3-1 -2.6-0.4 -2.5 2.5 -7.4-2.6 -3.3 0.7 -0.7-1.3 -1.7-0.7 0 0 -2.9 4.3 0 0 -0.9 1.2h-4.1l-6.2-4.4 -2 0.2 -0.5 4.7 -1.1 1.1 -3.1-1.4 -1.9 0.3 -4.3-2.3 0 0 -2.4-2.1 -3.5 0.2 -4-1.3 0 0 -3.6-2.9 -2-0.1 0 0 -4.2 1 0 0 -1.9 0.5 -0.8-1.4 0 0 -1.8-1.6 0.1-2.6 0 0 -1-0.8 -1.5 0.3 0 0 -3.3-0.1 -1.2 1.3 0 0 -2 0.7 0 0 -0.7 0.5 -2.3-1.8L280 187l3.3-2 2.4-2.7 0.1-1.4 0 0 -1.5-0.5L282.9 181.2l0 0 -1 0.3 0 0 -1.7-0.2 -1.5-1.7L276.6 179.2l-2-1.5 -2.5 0.6 -1.8 2.4 -3.6-0.9 -3.7 3.1 0 0 -5.1 0.9 0 0 -0.3-3.8 0 0 -1.8-3.3 -4.3-0.4 -1.5 0.9 0 0 -2.8 2.7 1 4.7 -0.4 1.8 -3.1 2.1 -2.3-1.1 -3 0.1L238 189.4l-2.2 0.9 -4-3.1 -0.6-3.5 0 0 0.6-7.4 -0.6-3.4 1.6-1.2 -0.3-7.5 3.4-8.1 0.3-4.1 -2-0.7 -0.8-2.4 3.1-4 2.1-0.7 0.8-2.2 -1.6-2.9 -9-1.4 -4.3-3.7 -2.7-0.3 -4.1-2.5 -3.6 1.4 -2.6-2.8 1.8-3.5 0.3-4.4 -3.6 0.9 0.1-2 2.7-3.1 -1.3-3.5 0.8-2 -0.8-2.9 0.6-1.5 2.3-0.8 1.8-2.1 3.3-1.1 1-4 -0.8-4 -1.4-1.6 -4.2-1.4 -0.1-2.7 -0.9-0.6 -3.2 0.3 -3.1-1.5 -1.5-3 -0.4-7.5 -1.4-2 -2 1.1 -2.1-1.5 -1.5 0.2 -4.1 1.9 -4.5-3.6 0.5-5.3 1.1-0.9 -2-0.9 -3.7 3.7 -2.4 0.2 -1.6-0.8 -0.4-3.2 -1 0.3 -0.2-1.1L180.2 64l-1.6-1.2 -0.9-5.3H173V55l1.3-0.9 -4.7-4.4 0 0 4-3.3 3.4 0.4 6.7-3.1 3.4 0.5 1.6 1.2 3.2-0.1 1.1-0.9 6-1.1 9.2 4 8.2-4.2 2.6 1.4 3.8-0.4 2.7 0.7 2-1.3 5.8 0.3 2.5-1.4L239.5 47l3.9-1.1 2.1-2.2 6.3 1.8 1.8-0.4 6.5 1.4 3-0.5 3-2.4 3.3-0.3 6.8-5.4 1.3-2.1L283 31l2.2-4.6 0.8-4.6 -0.5-9.1L289.2 9.5z" class="a"/>
  <path d="M221.9 316.4l-2.2-6.2 -2.2-1.9 -0.3-2.8 0 0 1.3-2.8 -0.3-3.1 -1.9-3.1 0 0 -2.8 0.3 -3.8-1.8 -1.2-3.7 1.3-6.2 0 0 0.9-5.6 0 0 2.8-1.9 -2-2.4 0.3-1.6 -2.4-1.2 -0.2-2.6 0 0 -2.5-2.5 0 0 -2.9 2.4 0 0 0.1-0.6 0 0 0.3-1.3 -1.4-0.2 0 0 -0.6 0.6 0 0 -1.5 2.4 0 0 -0.3-0.2 0 0 0 0 0 0 -1.2-5.3 0 0 -3.7 0.7 -0.6-0.9 -1.1 0.2 0 0 -0.6 0.8 0 0 1.9-6.1 -1.1-1.1 0.9-3.3 -3.3-0.2 -0.4-1.3 0 0v-2.8l-2.8-3.4 2.2-0.6 0.3-2.8 0 0 -1.6-2.2 5-7.8 3.8 0.3 1.6-1.9L198.5 229l-3.1-2.2h-2.9l0 0 -1.1-0.5 0.2-2 0 0 -0.6-0.5 0 0 -1.5-0.7 0 0 -0.2-2.7 -2.8-1.9 -0.9-2.4 2.8-0.2 0 0 3.8-1.7 0 0 1.7-1.2 2.2 0.1 1.8-1.7 0.2-2.1 0 0 -0.3-1.1 5.1-3 0 0 0.8-2.6 2.3-2.6 0.8 1.2h1.5L208 203.3l1.6-3.2 4.3 0.8 4.1-3.7 2.5-0.3 0.6-7.8h1.6l1.6 1.9h1.9l2.7-6.6 2.7-0.6 0.6 3.5 4.1 3.1 2.2-0.9 1.4-1.9 3-0.1 2.3 1.1 3.2-2.1 0.4-1.8 -1-4.7 2.8-2.7 0 0 1.5-0.9 4.3 0.4 1.8 3.3 0 0 0.3 3.8 0 0 5.1-0.9 0 0 3.7-3.1 3.7 0.9 1.8-2.4 2.5-0.6 2 1.5 2.1 0.4 1.5 1.7 1.7 0.2 0 0 1.1-0.3 0 0 1.4-0.8 1.5 0.5 0 0 -0.1 1.4 -2.4 2.7 -3.3 2 0.7 1.7 2.3 1.8 0.7-0.5 0 0 2-0.7 0 0 1.2-1.2 3.3 0.1 0 0 1.5-0.3 1 0.8 0 0 -0.1 2.6 1.8 1.7 0 0 0.8 1.4 1.9-0.5 0 0 4.2-1 0 0 2 0.1 3.6 2.9 0 0 4 1.3 3.5-0.2 2.4 2.1 0 0 -2.2 2.2 -2.1-0.2 0 0L311 203.8l0 0 -0.6 0.3 0 0 -3.3 3.3 -2.8 0.8 0 0L303.5 209.5l0 0 -3.5 2.8 -3.2 5.7 0 0L295 219l0 0 -0.1 1.3 1.3 0.6 0 0 0.8 2.9 -2.8 3.9 -4 0.8 0 0 -0.9 1L286.9 229.4l0 0 -2.2 0.2 0 0 -2.5-4.9 -3.2-1.9 -1.2-2 0 0 -1.7 3.1L275 224.2l-0.4 3.2 0 0L274.2 228l-5.7-1.7 0 0 -0.4-0.6 0 0 -1.1-0.4 -0.6 0.6 0 0L263.9 229l-1.4 0.2 0 0 -1.6-1.7 -0.5 0.3 0 0 -2.9 6.7 0 0 3.4 5.3 -4.6-0.9 0 0 -1.2-0.7 -1.2 0.6 -3.3-1.6 0 0 -2.9 3.7 0 0 -4.2 1.4 -1.7 2.4 0.5 2.2 -3.2 3.3 0 0 -1.8 1.6 0 0 -1.6 0.4 0 0 -1 1.9 0.7 1.1 5.4 1.1 1.2 1.2 -0.1 0.9 0 0 1 2 0 0 2 1.4 -0.4 1.7 0 0 -2 0.9L241.7 272l0 0 0.6 2.5 -1.3 2 1.3 3.3 0 0 0.5 0.3 0 0 -1 2.6 -2.7 2.3 0 0 -0.1 4.3 2.2 1.8 0 0 3.4-2.6 0.5 1.5 2.5 1.5 0 0 1.9 1.6 0 0 1.2 0.4 0 0 2-0.8 0 0 2.2-0.8 2 0.7 0 0 0.6 1.1 0 0 0.2 3.2 0 0 1.3 1.9 0 0 -0.6 1.3 -3.1-1.4 -2.4 1.4 -1.2 1.7 1.2 3 -0.4 3.6 -1.7 1.5 -1 4.6 -1.8 2.6 -2.9-0.1 -1.1 1.1 -2.7 2.6 -2.9-2.3 0 0 -5 2.4 -0.4 0.9h-2.6l-0.1-0.9 -1.7-1 -4.1-1.4 0 0 -1-2.3L221.9 316.4z" class="a"/>
  <path d="M100.2 278.9l1 0.7 -0.8 0.1 -0.1 0.9L99 280l-0.5 0.7 -0.2-1.4 1.1-0.7v-1.3h0.7L100.2 278.9zM103.7 270.4h1.2l0.2 1.2 1.5 0.5L106 270.7l1.3-1L107 267.6l-2.4-1.8 1-1.4L104.7 263l0.2-1.8 -1.1 0.3 0.3-2 -2.2-1.2 0.8-0.9 -1-1.4 -0.1-3.2 -1.5-0.7 1.5-1 0.1-1.1 -1-2.6 -1.3-0.6 -3.7 3.8 1.7 3.4 -0.3 5.2 0.9 2.1 -1.1 2.9 1.4-0.4 -0.6 3.4 2.4 0.4 -0.5 1.9 1.7 1.5 1-1.1h1.9L103.7 270.4zM108.7 196.4l-0.5-2.1 -2.4-0.4 0.1 2.8L108.7 196.4zM107.7 274.9l-0.6-1.1 -1-0.1 -0.9 0.5 0.5 1.4 -2.5-1.4 -0.7 1.6 1.9-0.2 5.3 1.8 0.2-0.9 -2.7-0.7L107.7 274.9zM219.7 310.1l-2.2-1.9 -0.3-2.8 1.3-2.8 -0.3-3.1 -1.9-3.1 -2.8 0.3 -3.8-1.8 -3.3 2.2 -2.2 2.8 -3.7-2.2 -2.2-3.7 -0.6-3.4h-1.6l-0.3 8.1 -0.9 2.2h-1.2l-0.9-3.1 -2.5-0.9 -1.6-2.2 -0.3-3.4 -2.2-1.9 -0.3-4.1 -1.7-2.1 -1.7-1.4 -1.2-3.1 0.1-4 -0.3-2.8L179.8 268l-2.7-1.5 -1.9-2.6 -0.1-2 1.1-2.4V256.4l-0.1-3.5 -0.3-3.4 0.7-2.4 -0.3-3.1 -0.5-2 -1.1-2 0.4-1.7 2.7-1.1 2.6 0.8 1.5 1.6 2.7 1.6 2.6 0.9 2.4-0.2 5-7.8 3.8 0.3 1.6-1.9 -1.2-3.7 -3.1-2.2h-2.9l-1.1-0.5 0.2-2 -0.6-0.5 -1.5-0.7 -0.2-2.7 -2.8-1.9 -0.9-2.4 -5.1-0.7 -3.3-3.4 -3-1.4 -2.6 0.1 -3 2.1 -4.9 1.8 -7.5-1.8 -3.5 2.1 -4.5 1.1 -3.6-0.6 -1.5-5 -1.1-0.4 -1.7-3.9 0.1-1.4 -7.5-2 -0.4-0.8 -6.3-0.2 -6.8-4.1L117.4 197l-1.5-2.3 -2-0.7 -0.9 0.7 -0.7 1.4 0.5 0.6 -2.6 2.4 1 1.9 -1.3 0.7 -2.7-1.3 -4-0.4 -2.1 1.1 -0.8-0.5 -2 1.7 -0.7-0.4 0.3 1.8 3.2 0.7 0.8-0.5 0.5 1.2 1 0.2 -1.6 1.3 -0.7-1.1H98l-0.2 1.1 1.5-0.2 0.2 1.1 0.9 0.2 -0.2 1.3 1-0.9 1.2 0.3 0.9 1.8 1.7-1.3 0.9 0.4v1.5l-1.3 0.6 0.3 1.2 2.2 0.8 -3.3 1 0.2 1.5 -1.9-0.3 -1.2 0.7 0.6 2.2 -1.4 1.2 0.9 1.9 -2.1-1.8 0.4-1.7 -1.6-0.3 -1.1 2.7 1 0.8 -0.6 1 0.9 1.1 -1.1-0.6 -0.9 0.9 -0.8-0.4v1l-0.9-0.1 -0.4 1.1 -1-2.4L93 222.2l3.1-0.9 0.2-0.7 -2.1-0.5 0.1-1.2L96 215.2l1.8-0.9h-1l-0.2-1.6 -1.6-1.5V208l1-1.3 -1 0.1 -0.8-1 1-0.3 0.2-1.6 -2.3 1.8 1.1 5.1 -0.8 1.3 0.4 1.1 -3.7-1.1 0.5-0.7 -1.5 0.1 -2.4 1.9 -0.9-0.8 -0.5 2.3 -1.9-0.1 1.3 1.2 -0.9 0.7 0.7 1.7 1-0.1 -2.1 2.7 1.4 1.6 -1.1 0.1 1.6 4.3 -1.9-3.7 -0.7 0.5 0.1-3.7 -1-0.1 -0.2-1.2 -0.5 0.8 -0.6-0.3 0.6 1.1h-0.9l1.3 1.2 -0.2 1.2 -1.3 1 0.7 0.6L80.3 226l-1 0.9 -0.4-0.5v1.3l-1.8 0.4 1.2 2.8h0.9l-1.4 4.9 3.1-2.7 -1.1-3.7 1.6 0.9L85 230l-1 1.3 1.9 1.1 1.2-0.6 -1.3 2.4 1.1-0.6 0.9 0.7 -1.5 1.9 -3.6-1.5 -1.8 1.5 0.6 3.3 3.9 0.4 1.1-2.3 2.3-0.2 0.6-0.8 -0.3-1.8 2.1 0.1 1.9-1.5 0.4 0.8 -0.8 0.3 -0.1 2.2 -1.1 1.4 0.3 2.2 2.2 0.3 1.1 2.3 0.1 3.2 -1 0.8 -0.5 2.9 1 1.7 6.7-5.8 4.3 1.2 5 3.6 0.7 3 -0.7 1.7 2.4 2.9 1.5-1.3 4.2 3 -4.2-2.2 -2 2.1 -0.2 3.4 0.6 2.8 1.2 1.3 -0.3 1.2 2.6-1.3 0.3-1.4 0.8-0.1 2.5-3.3 2.4 1 2.2-0.8 -1 1.2 -2.7-0.4 -0.7 2.8 -1.5-0.1 -1.5 1.5H116l-2.4 1.7 -0.9 1.9 -0.4 3.2h1.8l4.7 3.3 3.3 0.7 -2.6-0.2 -4.1 2.8L114.1 281l4.6 6.9L117 291l0.9 4.5 -1.5 1.6 0.2 2.2 -0.8 1 -2.4-0.2v2.8l1.1 1 0.3-2.4 1.2-0.3 2.6 0.9 0.9 1.9 1.4-1.4 2.6 2.2 1.3 2.9 0.8-0.7 1.1 0.5v0.8l1.2-0.3 -2.4 1.9 1.1-0.2 0.3 2.8 1.1-0.1 2.3 2.6 -0.8 0.5 0.1 2.1 0.7 0.7 1.1-0.6 4.3 1.1 1.4-2.2 0.7 0.3 1.3-0.6 1.5 1.4 11.6-5V304.3l4.7-2.7 3.7 0.7 3.8 2.3 1.3-0.4 2.2 2 0.3 3.8 2.4 0.2 0.5 2 2.6 0.2 5.7-2.1 2.9 1.9 5.3-0.3 -0.6-2.5 4.4 0.3 2.4-2 1.1 1.6 3 5.1 2.2 7.1 4.9-1.6 0.7 5 6.6-0.3 0.9-1.9 0.2-2.2 1-0.2 1.9-1 4.1 2.5 2.8-2.8v-2.5L219.7 310.1z" class="a"/>
  <path d="M136.7 316.8l1.3-0.5 1.5 1.4 11.6-5V304.3l4.7-2.7 3.7 0.7 3.8 2.3 1.3-0.4 2.2 2 0.3 3.7 2.4 0.2 0.5 2 2.6 0.2 5.7-2.1 2.9 1.9 5.3-0.3 -0.6-2.5 4.4 0.3 0 0 2.4-2 1.1 1.6 0 0 3 5.1 2.2 7.1 4.9-1.6 0.7 5 6.6-0.3 0.9-1.9 0 0 0.2-2.2 1-0.2 0 0 1.9-1 4.1 2.5 2.8-2.8v-2.5l0 0 1.1-0.6 1.1 2.3 0 0 4.1 1.4 1.7 1 0.2 0.9h2.6l0.4-0.9 5-2.4 0 0 2.9 2.3 2.7-2.6 0 0 4.7 9 -1.3 5 0 0 -2.3 1.5 -2 4.6 -3.1 1.9h-1.5l0 0 -1.8 1.2 -2-0.4 0 0 -0.6 0.5 0 0 -1.7 4.1 -4.9 4.7 -0.8 4.8 0 0 -0.2 1.9 -0.9 0.8 0 0 -5.2 14.4 0.2 2.3 2.8 1.4 0 0 0.4 2.9 0 0 1.3 2.3 -0.7 3.3 0.7 1.9 1.6 0.4 -0.5 4 0 0 -3.7 3.6 -1.1 3.2 0.6 2.9 -2.2 2.3 0 0 -0.2 0.2 0 0 -6.4-4.5 0 0 -4.5-2.1 0 0 -2 0.1 0 0 -1.7 1L202 400.8l-1.7 0.5 0 0 -3.2-0.4 -2.4 0.7 0 0h-6.1l-1.1-0.6 0 0 -1.4-1.4 -1.9 1.1 0 0L181 399.3l-1.3 0.8 0 0 -1 0.9 0 0 -3 1.1 0 0 -2.1-0.5 -2.6-2 0 0 0.4-3.6 -1-2.9 0 0 -2.1-0.7 1.1-2.3 0 0 -0.5-4.4 -1.3-1 -2.5-0.1 -1 1.8 0 0 -1 0.6 -0.7 3.1 0 0 -1 0.7 -2-0.6 0 0 -3.6-5.7 0 0 -4-3 -3-0.6 -1.6 1.9 -1.1-0.2 0 0 -1.5-0.4 0 0 -2.3 1 -0.8 2 0 0 -0.4 3.8 0 0 -1.6 1.6 0 0 0.3 0.8 0 0 -0.6 3 -2.4 1.2 0 0 -3.1 1 -1.5 1.5 0 0 -2.1 0.7 -1-0.4 0 0 -2.1 0.1 -1.4 1.5 -4.3 0.2 0 0 -0.4-1.7h-1.7l-2.1-4 -1.9-2.2 -0.9-5.6 -1.9-1.6 0 0 -1.9-0.6 0 0 -3.8-0.5 5.1-9.8 1.4 1.3 0.2-1.6 1.8-1.2 2.2 0.9 2.2-2.1 2.6 0.3 0.2 1.3 1.5-3.6 0.6 0.2v-1.2l1.4-0.4 1.6 0.5 2.5 3.1 -0.3-3.3 -1-0.6 1.2-1.1h-1.4l-2-1.7 -0.3 0.9 -1.5-0.2 -0.8 0.9 -1.2-1 -0.4 0.8h-4.9l-1.2 1.1 -0.9-0.1 -0.3-1 -0.6 1.1 -1.7-0.7 -1.1-2 -1.2 0.6 -0.7-1.6 1.1-1.9 -1.3-1 4.3-2.4 3.3-3.6 1.8-1.2 1.2 0.6 2.5-2.1 3.1-4.2 -0.7-4.3 1.1-1.6 1.9 0.9 4.6-0.7 4.5 1.2 2.1 1.7 1.3 3 0.7-0.6 -1.2-0.4 0.6-2.3 -0.7-2.9 -8.8-5 1.4-1.5 3.2-1.2 5.3 0.2 0.9-1.1 0.1-2.1 2.9-1.4 -4.2 0.1L139 331.6l-2.8-0.3 -2.1 0.8 -3.3-1 -1.4 1.2 -5.2-0.3 0.2-6.6 -4.5-0.5v-1.1l-1.9-1.5 0.7-0.9 4.9-0.4 1.2 1 0.7-0.8 5.7-0.8 1.7-1.2 2.9 1.1 1.7-1.9 0.3-1.3L136.7 316.8z" class="a"/>
  <path d="M74.6 516l0.4 1.2L73.2 516l-0.7 1.2 -0.2-1.6 -1 0.1v1.6l-0.5-1.1L68.3 516l0.2-1.1 -0.9 0.2 1.7-1.6 -0.2-0.3 0.8-1.1 1.3 1.7 3.3-0.9L74.6 516zM101.4 491.9l0.9-0.7 -0.5-1.1 -2.4-1.7 -0.7-1.8 -0.9 0.3 0.6-1.1 -2.4 0.8 -1.3-1.5 0.8-0.7 -0.7-1.1 -5.8-1.8 -0.1 2.5 1 0.5 -1.5 2.9 -0.8-0.7 -0.1 1.2 -1.2 0.4 1.1 1.2 -1.9 0.2 -0.4 1.1 0.7 0.8 -1.1 0.5 -0.5-2.3 -1.7 3.4 -5.2 2.9 1 1.7 -0.7-0.6 -1.1 0.4 -1.7 3.1 2.7 4.6 2.3-0.8 0.3 0.8 -1 0.4 0.4 0.6 -0.9 1.2h1.7l-0.1-0.7 0.8-0.2 0.9 1.6 2.3 0.1 2.7-1 -0.7-1.3 1.2 0.5 0.9-0.9 0.6 0.7 0.9-1.2 1.6 0.1 0.1-2.1 1.5 0.8 1.6-0.8 -0.8-1 0.9-0.4 0.8 0.7 -0.4-1.2 1.2 0.9 -0.2-1.8 1.4 1.7 -0.4 0.7h1.2V501l2.8-3.2 -0.7-1.6 1.3-1.7 -1.2-0.3v-0.8L102 493l0.6 0.9v-1.6L101.4 491.9zM59.7 465l1.1-0.2 -1.3-1.9 0.1-1.5 5-0.7 0.3-1.3 1.2-0.2 -0.3-2.8 -2 0.3 -1 1.9 -1.2-0.2 0.2 0.6 -1.2 0.7 -4-0.6 0.4 1.2 -0.8 0.4 -0.1-0.5 -0.4 0.8 0.6 0.7 -0.7 3.3 2.9 1.8 2.1-0.6L59.7 465zM139.1 512.9l-2.1-0.7 -1.8-3.8 0.1-2.8 -1.1-1.2 -3.4-1.8 -4.1 2v5.1l0.7 0.7 -0.5 0.9 2 0.4 2.8 3.6 1.6-0.6 2.5 1.3 -0.2-2.1 1.2 1.5 2.8 0.5L138.2 514 139.1 512.9zM63.5 466.7l-1-2.4 -0.2 1.8 -1.2-0.1 -0.1 2 -0.9-0.5 0.3-0.6 -2.1 0.4 -0.3 3 0.6 1.7 1.1-0.8v1.1l0.8 0.5 1.3-1 -0.1 1.6 1 0.3L64.2 473V471.9l1.5-1 0.2-1 1.1 0.3 0.5-1.2L63.5 466.7zM130.9 527.8l-3.4-2.1 -0.7 1.6 -0.9-0.1 1.8 2.1 -2.1 2.1v1.6l0.7 1.6 1.4-0.8 -0.1 1.6 1 0.5 0.9-1 -0.1-2.6 1.1 0.4 0.3-1.1h-1.3l-1.1-2.6 2-0.2L130.9 527.8zM123.6 523l-2.8-0.5 -0.5 0.7 -0.5-1.4 -1.4 0.1 1.2 1.7 -0.9 0.1 -0.3 0.8h1l-1.1 0.7 0.4 1.3 -0.9 0.4 1.6 0.4v1.2l2.6 0.5 -1.3-1.5 2-0.5 -0.1 0.9h1.9L123.3 526h1.8l-0.6-1.7L123.6 523zM121.1 529.1l-0.6 1L120 529l-1.4 0.3 -1.5-1.6 -3.3 2.5 -0.1 2.5 0.8 2 1.4 0.1 4.7-2.7 0.2-1.5 1.1-0.6 1.2 2 0.1-1.7 1.2 1.4 0.5-1.9 -1.1 0.4L121.1 529.1zM67.9 484.2l1-0.1 0.6-1.3 0.6 1 1.8-0.5 0.4-1.2 -0.4-1.1 -0.7 0.6 0.2-2 -1.4 0.5 -0.8-1.3 0.8-2.1L69 477l0.2-0.8 -1.9 0.4 0.6 1.4 -0.5 2.5 0.8-0.4 0.6 0.6 -0.7 0.6v2.9H67.9zM91.7 448.9l-0.8 1.8 -2.8-0.9 -0.5 1.8 3.3 1 1.6-1.9 3.2 0.4 0.4 0.9 1.3-0.6 1.4 1.9 -1.7 1.1 0.5 0.7 1.8 0.5 0.2-0.9 1.5-0.2 0.1-3.7 -1.1 0.4v-1.3l-3.1 0.3 -1-0.8 1-0.5 -1.1-0.7 1.2-0.2 0.1-1.2 2.4 0.2v-1l-1.4-1.2 -2.3 0.2 -1.3-1.7 -1.6 1.1 2.1 3 -1 0.6 -1.2-0.6 -0.2 1.6 0.7 0.6 -1.1 0.4L91.7 448.9zM78.1 465.6l1.4-0.1 0.6 3 2.8-0.6 0.3-1.8 -1.8-4.1 -1.8 0.7 -1.7-2.2 -1.7 0.5 -1.8-0.9 -0.3 1.2h-0.7l0.5 1.4L73 464.8l2.1-1.2 0.1 1 0.7-0.3 -0.4 1.9L76.7 466l0.7 0.8L78.1 465.6zM83.6 475.7l0.3-1.5 -3-2.3 -1 0.3 -0.6 1.6 -0.8-0.6 -0.3 0.9 -1.2 0.1 0.3 1 1-0.6 0.6 0.7 -1 1.6 0.7 1.6 2.1-0.6L81.2 477l1.7 0.6 0.6-1 1.5-0.2 0.3-1.2L83.6 475.7zM81.9 425.8l0.1 0.7 1-0.3L82.5 427l1.9 0.4 0.4-0.6 0.8 1.1 1.8-0.2 1 0.6L88 430l0.9 0.2 0.9 1.6 1.4 0.1 1-1.9 -1.1-0.7 -0.4-2.4 -1.4-1 0.5-2.7 -0.5-0.6 -1.4 0.9 -0.4-1.1 -2 0.4 -1-1.2 -1 0.2 -2.3 1.4 0.8 1.8L81.9 425.8zM73.2 451.3l-1.6 0.3 3.1 3.9 0.4 2.1 2.2-0.3 0.5-1.4 -0.9-1.6 0.8-1.1 1.1 0.5 1.6-1.2 -1.7-1.1v-0.8l1.8 0.1 0.6-0.8 -1.4-1.8 -0.5 0.8L77 448l-0.6 0.4 0.2 1.8 0.9 0.7 -0.5 0.9 -3.1-1.1L73.2 451.3zM81.3 434.4l0.6-1.9 -3.8-1.4 -2.8 3L81.3 434.4zM64 449.8l5.2 0.5 1.1 1.9 -0.2-1.8 0.8-0.2 0.2 0.8 1.4-0.4 -0.3-0.8 2 0.1 -0.6-1.4 1.9-0.9 -1.4-1.5 1.5-1.4 -1.4-0.2 0.7-1.2 -1.2 0.3 0.1-1.3 -2.1-0.9 0.4 2.2 -0.6 1 -1 0.2 -0.4-1.1 -0.7 1.2 -1.8-0.3 -2.2 4.2h-2.1l1.4 0.9L64 449.8zM71.6 426.9l0.2-0.4 1.6-0.3v1.6l2.4 1v-1.6l1.5 0.1 -0.8-1.5 1.2-0.2 -1.8-1.8 0.3-1.5h1.2l0.3-3.1 3.8-1.7 -4.6 0.2 -0.1 1.1 -2.8 3 -3.2 0.6 -0.7 2.3 1.6 0.9 -0.3 0.9 -1.7-0.2 1.1 1.1L71.6 426.9zM13.3 470.5l-1.3-0.7 1.3-1.1 -3.1 0.6 0.1 1.2L8.2 473.4l1.1 1L8 475.1l1 1.6 1.6 0.6 -0.1-1.7 1.6-0.7 -0.5-1.6 1.9-0.5 0.2-2.1 1.9-0.6 -1.1-1L13.3 470.5zM151.9 527.5l0.5-1.2 -0.8-0.9 0.7-1.2 -1.9-0.5 -1.9 0.9 -0.2 0.8 -1.2 0.3v2.5l-1 0.4 1.2 0.5 -1 0.9 0.7 1.4 1.2-1.8 1.1 1.9 1.8-0.7 0.8 0.6 1-0.9 0.1-3.3L151.9 527.5zM234.9 447.3l-0.1-3.4 -1.7-1.7 -2.7-0.1 0.3-1.7 -0.8-0.6 -2.6 2.6 0.1 2 5.4 1.2 0.5 0.7 -0.3-2.7 1-0.3 0.9 3.9V447.3zM235.3 481.9l1.6-0.6 0.2-0.9 -1.9-1.2 0.3-2.2 0.8-0.4 -0.2-2.9 0.7-0.7 -1 0.1 0.6-0.7 -1.5-0.4 -0.8-1.2 0.3-1.9 -1.3 0.4 -0.7-1.1 0.6-0.8 0.8 0.7 0.2 0.3 1.3 0.3 -0.2-2 -4.5-1.9 0.7 2.3 1.1 0.2 -0.2 2.5 1.4 0.7 -1.8 0.3 -0.5 1.5 -2.3 1.5 -0.6 1.4 0.7 1 -1.3 1.5 2.6 1.2 1.2 2.2 1.4-0.1L235.3 481.9zM226.9 466l-2.1-1.3 0.3-0.7 -1.8-1.1 0.1-0.7 -0.6 0.2 0.2 1 -2.3 3.1 0.7 1.4 -1.5-0.5v-0.8l-0.4 1.3h-0.7l1.3 1.3 -0.4 1 1.4 0.4 -1.5 0.7 1.3 2.2 -0.7 0.5 1.3 0.5 -1.2 1.5h1l0.4 1.1 -2-0.3 -1-1.6 -2.4-1 -1.2 0.4 0.5 2.2 -2.8-4.1 1.2-1.2 -1.1-0.3 0.1-1.6 2.4-0.9 -1.3-0.1v-0.8l-1 1 0.4-1.5 -0.8 0.1 1.5-1.3 -0.2-0.9 0.6 0.5 1.1-0.6 0.3-1.4 1.9 0.1 -1.8-0.6 0.6-0.8 -0.7-1.3 -1 1.1v-1.6l-1.3-0.4 1.4-0.7 -1.4-1.4 -0.1-1.3 -3.1-0.2 0.2-1.6 1.6-2.2 -1.6-0.3 -0.8-4 -2.5 0.7 0.2 3.1 -0.6 0.8 -1.8-0.5 -2.3 0.9 -0.5-1.4 -0.4 1.4 -3.4 1.3 -1.3-1.3L195 453.4l2.2 1.2 0.9 1.5h3.4l-3.1 2 -0.8 2 -1.9-0.1 3.4 1.2 -0.4 1.2 -2.4 1.9 1.6 3.4 3.3 2.3 0.8 1.3 -0.4 0.7h1.8l-0.2 1.4 1.2-0.8v0.8l1 0.1 -0.5-1.1 1.5-0.1 -0.4 2 1.6 0.5v0.9L206.4 475l-0.3 0.8 -0.9-0.9 -0.5 0.4 0.8 0.9 2.8 0.6 0.8 4.3 -1.7 1.4v1l-2.4-0.8 -0.4-1.3 -1.2 1.7 -1-1.3 -1.5 0.6L200 481.5l-4 0.6 0.1 0.7 2.4-0.2 0.2 1 1.3-0.8 -0.4 1.4 -2.2 0.4 -0.2 1.1 2-0.6 2.3 0.4 -0.6 0.6 1.4-0.3 0.5 2.3 -1.3 0.4 0.6 2.2L200 489.8l-0.3 1.7 -1.4-0.6 -1 0.7 1.1 1.4 -0.2 0.9 -0.9-0.5 -0.8 0.8 -1.3-1.3 -0.5 1.6 -0.6-0.7 -1.6 0.8 1.1 1 -1.7 0.2 1.7 0.9 0.3 1 -1.1 0.8 -2.2-0.8v-0.6h1.1l-0.7-1h-1.2l0.3-0.9 -3-1.2 1.4-1.9 -2.8-2.6h-1v0.7l-1.2-0.4 0.2-0.8 -2.4-2.1 0.1 2.6 -2.5-1.7 -0.8 1.7 -0.5-0.7 -2.9 0.4 -1.5-0.8 0.1-1.2 -0.9-0.6 0.5-1.9 2.6-2.4 0.3-1.9 1 1.1 1.2-0.4 0.1-3.6 2.6-2.5 2.7-0.7 0.4-2.5 1.1-1.1 -0.4-1.6 2.2-2 0.7 0.5 1-0.8 0.5 2.8 -0.7 2.4 0.8 0.8 2.7 0.3 1.7-4.9 1.1-0.4 -1.1-0.5 -0.6-4.2 -2 0.3 -1.1 2.2 -2-1.2 -0.8 1.2 -1.7-3.3 -1.5 0.4L179.5 470l-3.9 0.1 -1.3-1.2 -2.9 3.7 -2.9 1.1 -1.8 3L163.9 478l-2.3 0.2v1L163 480l-1 0.5 -0.7 2.6 -1.1 1 1 0.7 1.6-0.3 -0.1 1.5 -1.6-0.5v2.5l-1.5-0.4 -1.1 1.3 1.7 2 -0.9 0.5L158.9 493l1.5 2.1 -2 0.8 -1.4-1.6 -0.6 0.8 1 2.3 -0.8 1.1 -1.6-0.8 -4.7-0.2 1.5 2.5 -0.2 1.5 -1.2-1.8 -2.6-1.6 -2.5 0.4 -1.3-0.9 0.3-1.4 -2-0.1 1-1.2 -0.9-3.8 1.1-3.9 -0.7-0.5 0.4-1.7 -0.9-1 0.2-1.2 -1-0.9 0.8-5.2 -1.5 2.7 -0.6 9.4 0.6 0.6 -1 0.7 0.7 2.6L138 494.3l0.8 1.6 -2.2 3.3 -2.4 0.3 -2.3 1.4 -0.1 1 -0.8-0.8 -1.4 0.5 -0.5 1.5 -1-0.2L127.6 504l-0.5-0.6 -0.6 0.8 0.5 0.6 -0.9 1.2 0.8 0.7V509l-1.7 1.1 0.6 0.5 -0.8 1 0.5 2.4 -4.3-0.8 -1.5 2.2 -1.4 0.3 -0.3 1 -0.9-0.3 0.3-2.2 -0.7-0.5 1.4-1.7 -0.6-3.1 -1.4-0.6 -3.2 2 -0.6-1.1 0.3-0.7 0.9 0.9 -0.2-1 1 0.1 -1.3-2.2 2.4-0.4 -1.1-2.4 1.7 0.9 1.1-1.6 -0.7-2.8 -1.1 0.9 -1.3-0.3v1l-2.6-2.4 0.8-0.8 0.4-0.2 0.2-1.6 -0.6 0.3L111.5 496l1-0.7 -0.9-2.1 1.3-0.8L112.1 491l-1.9-0.2 2.2-1.7 -0.3-0.8 -2 0.6v-1.6l-2.3-0.8 0.2 1.2L106.5 488v1l-1.4 0.7 -0.8-0.8 0.9-2.3 -2.2-0.1 -2.9-1.4 -2 0.7 -0.9-1.1 0.9-1 -3.2-1.2 0.1-2.9 1.2-1 -0.4-0.6 -0.4 0.6 -1.2-0.3 -1.2-1.1L92.6 473l0.8-0.7 -0.2-2.4 0.6 0.5 0.7-1.1 1.1-5.1 1.3-0.5 1.1 1 -0.3 0.7 1.3-0.1 1 3.3 1.8 1.4 -1.5 1.3 0.2 2.8 -0.7 1 2.6 1.4 -0.1 2.9 1.3 0.6 0.3 1.8 1-1.5 6.8 4.1 -0.2-0.9 2.9-1.5 0.5-1.1 -0.9-0.5 -2 1 -0.4-2.9 -1.2 1.2 -0.8-2.4 -1 0.3 0.5-1.8 -0.7-0.1 0.1-0.8h-0.9l-0.3 1.2 -1.4 0.9 -1.1-0.9 1.7-2 -0.7-2.4 1.1 0.9 0.5-0.4 -0.7-1.8 -1-0.2 1.1-0.9 1.8 3.5 1.7-1.9 0.5 0.6 0.6-0.9 1.1 0.7 -2.6 3.6 1.1 1.3 1-0.4v0.9l1.6 1.2 3.9 0.5 1.6 1.4 1-1.3 -1.3-0.4 0.1-1.4 2.2 0.2 0.3 0.9 3.3 1.4 3.5-0.2 -2.8-0.9 -3-2.2 0.2-2.7 -2.4-0.1 -1.2-2.9L116.3 467l-2.5-0.2 -1.4 1.1 -0.7-1.6 -1.7 0.5 -1.6-1.1 -2.4 1.9 -2.3-0.9 1.6-1.6 -0.2-1.6 1.2-0.4 -0.1-1.3 -2 0.1 -0.7-2.2 3-4.3 1.8-0.7 -1.6-2.9 0.6-1.3 -1.3-0.3 0.3-2h0.8l0.5-1.3L106.1 445l0.7-0.7 -0.8-1.2 0.5-2.2 -1.1-0.8 -0.9-3.2 -0.3 2.8 -0.9 0.7 0.1 0.8 1.4 0.6 -0.9 1.4 0.8 0.5 -0.7 0.9 0.4 0.9 -2.5 1.1 -1.4-0.2 -0.2-1.6 -1.9 0.3 -0.2-0.7 1.5-1 -2.4-2.5 1.6-2.5 -0.3 1.4 1-0.7 0.8 1.7 1.9-1 1-2 -1.9-0.4 4.9-3.2 -0.1-1.5 -0.9-1.1 -2.6 0.8 -0.3-2 -1.6-0.4 1.3-1L101 426.8h-1.3l-0.1 0.7 -1.4-1 1.2 2.2L98 429.8l1.3 0.9 -1.3 1.2 -1.5-2.1 -2.1 1 -0.6-3 -1-0.7 0.4-1.3 1.7-0.1 -2.2-2.4 0.8-1.9 0.8 0.3 -0.3-1.3 1.5-0.9 0.7 1.9 1.1-0.8 1.4 0.4 0.1 1.3 1.3-0.1 0.9-1.6 -0.6-0.8h1l1.1-1.3 0.1 2.6 -0.7 2.3 -0.8 0.2 -0.1 2.5 1.2 0.2 0.9-1 -0.7 2.7 1.2 0.4 0.7-0.6 0.2 2 2.2-2.7 -0.7 2.3 1.1-1.2 1 1.5 -1.5 2.3h1l0.1 1.9 2.2-0.1 -4-4.4L108 428l1.4-2.3 -2.1-1 2.1-0.7 0.7-1.2 -4.1-0.7 -3.6-5.8 -2.2-1.2 0.3-1.3 -1-0.5 1.6-0.5 0.7-2.6 -4.1 0.9 -1.6-0.8 -0.3-1.7 -1.4-1.1 1.1-2.1 1.3 2.9 1.4-1.4 -0.5-1 1.6-2.2 -0.3-0.7h-1.8l0.7-1.3h3.1l0.7-5.3 1.8-4.4 4.7 1.6 -3.5-2.4 -0.8-2.4 0.5-2.3 1.5-1.4 4.5-0.2 0 0 1.9 0.6 0 0 1.9 1.6 0.9 5.6 1.9 2.2 1.3 4.1h1.7l0.4 1.7 0 0 4.4-0.2 1.5-1.5 2.1-0.1 0 0 1 0.4 2.1-0.7 0 0 1.5-1.5 3.1-1 0 0 2.4-1.2 0.6-3 0 0 -0.3-0.8 0 0 1.6-1.6 0 0 0.4-3.8 0 0 0.8-2 2.3-1 0 0 1.5 0.4 0 0 1.1 0.2 1.6-1.9 3 0.6 4 3 0 0 3.6 5.7 0 0 2 0.6 1-0.7 0 0 0.7-3.1 1-0.6 0 0 1-1.8 2.5 0.1 1.4 1 0.5 4.4 0 0 -1.1 2.3 2.1 0.7 0 0 1 2.9 -0.4 3.6 0 0 2.6 2 2.1 0.5 0 0 3-1.1 0 0 1-0.9 0 0 1.3-0.8 3.2 1.4 0 0 1.9-1.1 1.4 1.4 0 0 1.1 0.7h6.2l0 0 2.4-0.7 3.2 0.4 0 0 1.8-0.5 3-3.8 1.8-1 0 0 2-0.1 0 0 4.5 2.1 0 0 6.4 4.5 0 0 -0.8 2.3 2.7 3 0.9 9.2 6.6 6.5 0.2 2.9 0 0 1.1 1.1 0 0 3.6 3.8 0 0 1.8 1.3 0 0 2.2 8.2 -2.8-0.1 -1.4-3 -3 1.7v-2.9l-1.4-2 1.1 5.2 -1.8 2.1 -2 0.8 0.3 1.4 -3.2 1.5 -0.9 1.4 -0.9-1.2 0.5-0.6 -2.1 0.2 -1.5-2.3 0.2-2.4L218 440.5l-0.1 3 -2 0.5 2.4 1.9 -0.5 0.8 -0.4 0.2 -1.9 0.8 1.4 0.5 1.6 3.8 2.9 0.7L220.5 454l1.2 1.4v-1.1l2.3 0.8 2.6-1.8 0.9-1.5 0.1-0.3 3.2-1 -0.9 0.9 1.8 0.7 -0.1-0.8 2.3-0.8 1.3 1.3 -0.8 0.2 -0.3 5.9 -0.9-0.1 -1.3 2.6 1 4.6h-2l-0.3 1.1L226.9 466zM160 413.7l-1-4.5 -1.9-2.3L155.3 406l-2.4-0.1 -4.4 2 -2 2.1 -1.5 0.1 -3.6-2.1 -0.6-2.2 -2.2-0.1L136.5 411l-2.3-0.1L132.5 413l-1.1 4.8 0.4 4.1 7.2 1 3.8 6.1h3.8l3.4-2h3.8l1.5-1 3.1 0.6 3.4-2.3 1.4-1.8 1.7-6.1V415l-2.1-1L160 413.7zM209.9 496.8l-1.4-2.3v1.1l-0.7-0.4 -0.4 1h-0.9l0.7-0.8 -1.7 0.2 -1.8-1.2 0.4 2.6 -0.8 0.5 2.2-0.5 1 0.6 -0.2 0.6L204.4 498l1.2 1.3h1.7l-0.5 1.7 0.5 0.7L210 500l1 0.5 0.8-0.9 -0.1-2.1L209.9 496.8zM233.2 490.3l1.4-0.5 -1.8-2.2 -0.5-2.2h-1.7l-2.5 1.8 -1.4-0.1 2.2 1.8 1.3-0.4 -0.7 1.2 1.5 0.7 -0.6 0.9 1.8-0.2v0.6l1.7 0.3 -1.2 0.5 2.7 0.5 0.8-1.2L233.2 490.3zM229.4 446.7l-0.9-0.8 -1.8 0.7 -0.7 1.2 1 0.7 -0.5 0.5 2.3 0.6 0.9-1.9 1.6-0.4 -0.3-0.6H229.4zM139.8 505l-1.3 2.6 1.4 0.8V506.5l1.1-1.5 2.6-0.1 0.6-2 2.3 1.2 1.6-0.1 0.1-0.8h-0.7l-0.2-1.4 -0.8 0.1 0.2-1.2 -1.1 0.8 -1.4-1 1.8-0.1 0.3-1 -1.1-0.3 -0.1-1.4 -4.2 1.2 -2.2 2.6 0.3 1.4 -1.7 2.3L139.8 505zM205 493l1.4 0.3 0.4-0.7 0.6 0.7 1.1-0.8 -1.4-2 -2.9-0.2 0.2-0.8 1.2 0.4 -1.5-1.8 1.8-0.8 -0.5-0.9 -1.5-0.2 -2.2 2.9 2.1 1.1 -0.4 0.5 0.7 0.4 -1.7 1.1 1 1.6 1 0.2L205 493zM236.5 496.9l0.3-1 -1.1 0.6 0.3 0.9 -1.1 2.2 1.5-0.2 -1.5 1.7 0.3 0.5 0.9-0.5 0.1 0.8h0.7l1-5 -0.7 0.5L236.5 496.9zM157.8 509.9l-1.2 1.4 0.3 2.1 0.6-0.4 0.8 1.3 4-2.6 -0.1-0.9 -1.6-0.8h-2.8V509.9zM148.1 512.7V511.8l0.5 1.5h1.1l-0.2-2.3 1.5-0.2 0.1-1.5 -1.7 0.9 -0.7-1.4 -1.4 0.4 -0.1-0.7 -0.7 0.9 -1.5-1.6 -1.4 1.3 0.1 1 -1.2 0.5 -1.6-1.4 -1.4 1.3 -2.2-0.1 2.7 1 1.2 1.4 1.4-1.4 1.9 0.1 1.2 3.1 1.3-1.2L148.1 512.7zM168.8 507.7l-0.9-0.5L165 508.5l0.1-2 -1.5-1.5 -0.2 0.9h-1.6l0.6 0.6 -0.9 0.1v1.1l-2.1-0.3 2.1 1.2 0.7-0.7 1.3 0.9 0.3 0.8 -1.4 0.3 1.2 0.7 2.1-0.9 0.1 0.7 -1.6 1.1 0.4 1.8 1.7-2.8 2-0.5 -1.7-0.3 0.6-0.9 3.3 1.1 -1.9-1.7L168.8 507.7zM152.5 503.9l-0.6-1.3 -0.7 0.6 -0.5-0.7 -0.2 0.9 -1-1.3 -0.8 0.8V502l-0.9-0.4 -0.3 0.6 1 1.4 -0.8 2.4 0.7 0.6 1.3-0.6 0.3 1.6 1.8 0.7 1.6-0.8 0.4-1.2 1.8 0.4 -0.7-2 1-2.1 -0.5-1.1 -1.2 2.5L152.5 503.9zM183.6 520.2v1.2l-0.9 0.1 -0.7 2.8 1.5-0.7 1.7 0.9 -0.8-1.2 1.1-0.3 -0.3-3.1L183.6 520.2zM181 492l-1.4 0.9 -2-0.3 -3.5 2 -1.3-0.6 -0.4-1.4 -0.8 0.1 -0.2 1.6 -2 0.7 1.3 1.7 -0.7 1.4 1.6-0.6 -0.1 1.1 2.5 2.1 0.6-1.2 1.5 0.3 0.2-0.8 4 0.6 2.5-5.3L181 492zM162.8 496.6l1.1 0.7 0.3 3.2 0.8 0.8 0.6-0.3 -0.3-1.3 1.1 0.3 0.1 2.8 1.2-3.1 -0.9-2.5 -1-0.8 -0.4 0.8 -0.6-0.9L162.8 496.6z" class="a"/>
  <path d="M530.3 137.4l0.9 0.3 -1.1 1.5 1 1.8 -0.7 2.6 0.9 0.7 -3.5 1.9 -0.7 1.9 -6.3-2.5 -1.4-5.8 0.8 0.5 4.1-2.1 4.5-0.6 0.8-0.9L530.3 137.4zM307.7 361.4l-0.5 3.1 0 0 1.7 3.7 0 0 4.5 3.5 5.9-1.1 7.4 2.8 0 0L328.6 374l5.5-3.8 1 0.3 0 0 5-4.1h2.1l0 0 2.9 0.9 0 0 3.7 1.6 1-0.3 0 0 4.7-3.9 0 0 0 0 0 0 1.7-0.2 0 0 0 0 0 0 1.3-0.7 -1.6-3.5 4.8-3.1 3.1-1 4.2-0.4 2.9 1.9 2 0.3 1.2 1.4 0 0 -0.4 2.8 0 0 1 1.1 0 0 2 0.6 0 0 5.4-2.4 0 0 8.1 2.1 0 0 3 0.2 -1.4-1.4 -0.2-2.3 1.3-2.4 1.1-0.1V356l1.1-1.3 -0.4-1.8 2.4-7.5 -0.6-1.9 1.9-2.1 -0.3-2.1 2.5-5.5 -1.6-0.3 1.1-1.1 -0.4-1.3 0.9-0.7 -1.5-3.2 2.9-2.6 0.2-3.2 3.1-4.4 -0.7-0.9 0.6-2.5 -1.2-3.7 -1.2-1.1 -1.2 0.3 -0.9 2.3 -3.1 3.3v1.3l-4.2 2.5 -0.2 1.2 -0.8 0.3 -2.5-1 -0.3-2.1 -2.3 0.6 1.4-1.9 2.3-0.2 -2.6-0.9 -1.7 1.2 -1-1.6 0.7-2.3 3.5-1.4 -0.2-1.4 1.3-1.6 0.1-1 -3-2.5 -0.5-6 -1.4-0.6 -0.8-1.6 1.4-2.2v-2.3l-1.2-1.5 0.8-2.5 -0.7-1.6 1.3-8 4.6-8.2 -0.2-6.3 1.8-3 -0.9-0.8 -0.3-4.6 -2.7-3.6v-4.6l2.4-5.7 1.2-1 1.3 0.1 1.3-2.4L395 234.9l0.5-1.4 -0.9-2.8 1.1-1.1 -3-7.7L391 220l-1.2-4.3 0.5-6.9 -1.2-4 1.1-1.9 -1-4.2 0.7-0.5 -0.2-2.5 1.6-0.4 -5.2-5.2 0.4-2 0 0 -4.3 0.7 0 0L380.3 191l-2.5 0.9 -2.8 2.5 0 0 -1.6 2.2v1.3l0 0 1.6 2.8 -6.5 0.2 0 0 -2.7-2.3 -2.9-1 -2.6-0.4 -2.5 2.5 -7.4-2.6 -3.4 0.7 -0.7-1.3 -1.7-0.7 0 0 -2.9 4.3 0 0 -0.9 1.3h-4.1L330.5 197l-2 0.2 -0.5 4.7L326.9 203l-3.1-1.4 -1.9 0.3 -4.2-2.3 0 0 -2.2 2.2 -2.1-0.2 0 0 -2.3 2.6 0 0 -0.6 0.3 0 0 -3.3 3.3 -2.8 0.8 0 0 -0.8 1.2 0 0 -4.6 2 -3.2 5.7 0 0 -0.8 1.6 0 0 -0.1 1.3 1.3 0.6 0 0 0.8 2.9 -2.8 3.9 -4 0.8 0 0 -0.9 1H286.9l0 0 -2.2 0.2 0 0 -2.5-4.9L279 223l-1.2-2 0 0 -1.7 3.1 -1.1 0.3 -0.4 3.2 0 0L274.2 228.2l-5.7-1.7 0 0 -0.4-0.6 0 0L267 225.5l-0.6 0.6 0 0 -2.5 3.1 -1.4 0.2 0 0 -1.6-1.7 -0.5 0.3 0 0 -2.9 6.7 0 0 3.4 5.3 -4.6-0.9 0 0 -1.2-0.7L253.9 239l-3.3-1.6 0 0 -2.9 3.7 0 0 -4.2 1.4 -1.7 2.4 0.5 2.2 -3.2 3.3 0 0L237.3 252l0 0 -1.6 0.4 0 0 -1 1.9 0.7 1.1 5.4 1.1 1.2 1.2 -0.1 0.9 0 0 1 2 0 0 2 1.4 -0.4 1.7 0 0 -2 0.9 -0.8 7.6 0 0 0.6 2.5 -1.3 2 1.3 3.3 0 0 0.5 0.3 0 0 -1 2.6 -2.7 2.3 0 0 -0.1 4.3 2.2 1.8 0 0 3.4-2.6 0.5 1.4 2.5 1.5 0 0 1.9 1.6 0 0 1.2 0.4 0 0 2-0.8 0 0 2.2-0.8 2 0.7 0 0 0.6 1.1 0 0 0.2 3.2 0 0 1.3 1.9 0 0 -0.6 1.3 -3.1-1.4 -2.4 1.4 -1.2 1.7 1.2 3 -0.4 3.6 -1.8 1.5 -1 4.6 -1.8 2.6 -2.9-0.1 -1.1 1.1 0 0 4.7 9 -1.3 5 0 0 0.1 1.9 1.2 1.4 2.1 0.4 0 0 0.7 0.4 0 0 0.3 2.6 0.9 0.6 0 0 3.9 0.5 0 0 1.7 1.8 0 0 7 0.5 1.5 0.8 0 0 2 1.5 0.8 2.9 0 0 0.7 0.5 0 0 2.1 1 0.4 1.8 2.5 1.5 0.9 1.8 -2.1 6.2 0 0 -0.3 1.7 0.9 1.6 3.8 1.5 3.4-0.6 0 0 3-1.1 4.5 1.4 0 0 2.2 2.2 0 0 1.7 1.3 0 0 -0.7-3.4 -4.1-5 0.3-2.8 3.4 1.9h2.2l0.6-2.5L291.8 353.1l1.3-3.1 1.3-2.8 5.3-0.9 -0.3-1.9 -2.8-2.2 -4.7-0.3 1.6-5.9 2.2-3.1L299.8 331l0.6 5.6h2.5l3.4-8.1 5.9-1.2 2.8-3.1 3.4-0.9 3.1 0.3 3.7 3.1 0.6 7.5 1.9 4.1 -0.9 2.2 -3.4 1.3 -1.6 3.4v3.1l-2.5 0.3v1.9l1.3 1.6v4.1l-3.4 1.3 -1.6 1.9 -2.8-0.3 -0.6-2.8h-3.1l-2.2 1.3 -1.6 2.5 0.4 1.5 0 0 1.3-0.2H307.7z" class="a"/>
  <path d="M248.4 335.1l2.1 0.4 0 0 0.7 0.4 0 0 0.3 2.6 1 0.6 0 0 3.9 0.5 0 0 1.7 1.8 0 0 7 0.5 1.5 0.8 0 0 2 1.5 0.8 2.9 0 0 0.7 0.5 0 0 2.1 1 0.4 1.8 2.5 1.5 0.9 1.8 -2.1 6.2 0 0 -0.3 1.7 0.9 1.6 3.8 1.5 3.4-0.6 0 0 3-1.1 4.5 1.4 0 0 2.2 2.2 0 0 1.7 1.3 2.4-0.1 3.5-2.5 0 0 1.5-0.4 2.4 0.9 0 0 1.4-0.9 1.3-4.3 1.3-0.2 0 0 0.7 1.3 -0.5 3.1 0 0 1.7 3.7 0 0 4.5 3.5 5.9-1.1 7.4 2.8 0 0 1.9 0.6 5.5-3.8 1 0.3 0 0 5-4.1h2.1l0 0 2.9 0.9 0 0 3.7 1.6 1-0.3 0 0 0.8-0.8 0 0 1.5 2.4v1.5l-1.2 1.1 0 0 -2.2 1.9 0.3 4.8 2.2 1.1h2.8l0 0 2.4 0.2 3.3 3.4 0 0 5.7 5.9 0 0 3.1 0.2 0 0 1.3 1.6 0 0 -2.9 2.7 -0.6 1.9 -4.9 0.6L357.7 404l-1.8-0.3 -3.9 2.5 -4.1 4.9 -4.1 0.1 -3.9 2.4 -2.3 0.3 -0.4 5L330.3 421.5l0 0 -1.8 2.2 -1-0.7 0.2 1.3 -2.3-0.7 -1.1 1.1 -0.4-0.7 -0.9 0.2V423.3h-1.2l-0.6 0.8 -0.7-0.7 1.5-2.2 -0.6-1.8 -0.9-0.3 0.2-1 -1.7 0.8 0.5 1.8 -1.2 1 -0.3-1.5 -1.8-0.7 0.3-1.3 -1.8 0.3 -0.4 1.7 -0.6-0.8 -0.8 0.3 0.8-1.1 -0.5-1.9 -1.5-1.1 -0.2-3.2 3.9-2.4 -4.2 1.3L309 413.9l1.4 1.6L310.1 416.8l1.1 0.1 1 2.1 -2.2 0.5 -0.1 0.7 2.5-0.1 0.1 3.4 2.4 1.9 -2.3 0.6 0.8 1 1.4-0.3 0.9 0.7 -5.9 1.8 1.4-1.1 -0.4-0.2 -2-0.2 0.6 1.4 -1.2 0.2 -1.3-1.8 2.2-0.2 -0.3-1.2 1.9-1.1 -3.8-1.1 0.6-0.7h-0.9l-0.1-1.4 -1 1.8 -1.6 0.6 -2.5-1.2 0.1 0.8 -1 0.4 -2.3-0.9 -0.2 1.1 3 2.1 -1.1-0.4 -0.4 1 -2.1 0.2 -1.3 1.9H295l-0.3-0.9 -2.7 1.9 -0.8-0.4 0.7 1.6 -1.2 0.5 -1 2.4 2.7-1.1 0.1-1.8 1.5-0.9 4.1-1 -0.2-2 0.8-0.2 0.4 0.8 1-1.4 1.3 1.3 -0.1 1.2 -0.3 0.9 -1.8-0.1 2 0.7v1.4l2 1.5 -0.9 1.2 -0.8-0.5 -0.6 2 -1.3-0.5 -0.6-0.1 -5.2-0.8v1.4l1.9-0.4 1.2 0.4 0.2 1.1 -1.9 1.9 0.6 0.3 -0.4 1.7 1 0.9 -1.7 2.5 0.8 0.8 -0.6 0.8 0.2 2.8 2.4-3.2 -0.6-1.5 1.2-0.1 1.1 2.5 1 0.3 -0.8 2.3 -1.1-1.3v1.9l-0.9-0.1 0.5 2.3 -3.9 1.4 2.8 0.6 0.2 0.9v2.1l-1 0.2 0.8 0.9 -1.9 0.3 1.5 1.2 -1.1 2.2 -2.5-0.4 -0.1-1.7 -0.8 0.4 0.3-1.2 -0.8-1.2 -0.6 1 -1.1-0.8 1.5-0.9v-1.3l-3-1.2 -1 1 -0.6-1 0.9-0.4 -0.2-1.4 0.7 1.1 1-1.2 1.1 1.4 0.6-0.5 1.2 2.5 -0.2-1.7 1 0.3 1-0.8L292.6 454.3l-0.8-0.6 0.4-0.9 -1.3 0.1 -0.4-1.1 1.7-1.4 2.9 0.1 -0.3-0.6H292l-0.6-2.4 -0.3 0.7 -0.8-0.4 0.3 1.9 -1.6-0.3 -0.5-1.7 -0.2 1.6 -0.7-1 -1.3 0.7V447.8l-1.1 0.8 -1.8-2.7 1.4-0.7 4.1 0.1 -1.4-4.6 -1 0.2 0.2-1.1 -1.3-0.6 0.3 2 -2 0.9 0.5 2.1 -1.4 1 -0.7-0.7v1.4l-1.5-0.9V441.8l-1.6-0.2 -0.3-0.2 -1.6 0.3 -0.6-0.6 -0.4 0.8 -2 0.2 0.8 1.3 -0.2 3.7 -1.9-0.2 -0.7-1.4 -0.2 1.2h-0.7l-0.7-1.2 -1.6 0.6 -0.9 1.6 -1-1.8 -1 0.3 -0.7-1 1.7-1.3 -4.2-0.1 -3.4-1.9 -0.9-2 2.2-2.3 -1.3-2.1 1-2.3 -0.4-0.8 -0.7 0.6 -0.2-0.5 1.3-5.5 1.2-1 -0.6-0.3 -2 1.5 -1.2 4.7 -1.4-0.7 1.2-0.6 -0.2-0.7 -0.7 0.9 -2-0.9 -0.9 1.3 1.9-0.3 1 2.8 1.1 0.3 -1 3.4 -1-1.6 -1.5 2.1 -1.1-2.2 -2.2 1.5 0.5 0.9 -1.5-0.5 0.4-0.8 -0.9-0.4 0.8-0.2 0.1-1.2 -1.5-1.4 -0.6 3.8h-0.9l0.4 1.3 -1 0.1 -0.3 1.3 -1.8 1.3 -2.9 0.2 -0.2-1.5 -0.6 0.4 -0.5-0.9 -0.4 2.1 -1.7-0.2 -0.1 0.4 -2.2-8.2 0 0 -1.7-1.3 0 0 -3.6-3.8 0 0 -1.1-1 0 0 -0.2-2.9 -6.6-6.5 -0.9-9.2 -2.7-3 0.8-2.3 0 0 0.2-0.2 0 0 2.2-2.3 -0.5-2.9 1.2-3.1 3.7-3.6 0 0 0.5-4 -1.6-0.4 -0.7-1.9 0.7-3.3 -1.3-2.3 0 0 -0.4-2.9 0 0 -2.8-1.4 -0.2-2.3 5.2-14.4 0 0 0.9-0.8 0.2-1.9 0 0 0.8-4.8 4.9-4.7 1.7-4.1 0 0 0.7-0.5 0 0 2 0.4 1.8-1.1 0 0h1.5l3.1-1.9 2.1-4.6 2.3-1.5L248.4 335.1 248.4 335.1zM333.7 426.5l0.5 1.4 1-0.3 0.5 1.8 -1.6 3.4 0.7 0.8 -1.3 1.9 0.3-0.6 -1.1-1 0.8-1.2 -2-0.9 0.9-0.8 -1.8-3L333.7 426.5zM320.5 430.7l0.7-0.6 1.3 0.5 0.9 1.5 -0.9 1.7 -1.1-0.1 0.5 1.1 -1.4 0.1 0.8 0.5 -0.4 2.2 1.9 0.9 1 2.9 -0.9-0.1 0.6 2.9 -1.3 0.2 0.6 1.3 -2 1.2V448l1.4 0.3 -0.1 0.9L324 447l1 0.6 -0.1 0.7 0.5 1.2 -0.7 0.7 -1.2-0.3 1.2 2.4 -1.1 0.3 -0.6-1 -1.6 1.1 0.7 1.4 0.9-1 0.7 0.5 -0.6 1.1 2 4.1 -2.9-0.9 0.6-0.8 -0.8-1.4 -1.2 1.9 -0.7-0.2 0.2-1.2 -2.1-0.4 -0.2 2.3 0.7 0.9 -1.4 1.3 -1.2-0.4 -0.7 1.8 1.4 2.4 2.7 0.2 -0.5 1.4 -1.9-1.3 -2.5 1 -0.2-0.7 -0.5 0.8 1.7 1.4 -0.2 0.9 -1.2-0.5 -1.5 1.5 -1.8-0.9 -1.3 0.8 0.8-2.3 2.1-1 -2.8-1.1 0.2-2.4 2.1-0.2 -0.9-0.8 0.5-0.9 -2.1-0.1 -1.2 1.4 -0.8-1.1 1.4-1.4 -1-0.2 -1.4 1.6 0.2-1L306 458.8l4.4-1.2v-2.3l1-1.6 -0.7 0.2 -1-1.5 1 0.3v-0.7l-1.4-0.8 -0.8 2.5h-3.3l-0.1 1.4 -0.8-0.2 0.4 0.9 -1.3 0.7 -0.9-1.7 0.7-0.9 -2.5-1.1 -0.9-3.7 1.9-3.1 0.8-0.1 -0.4-0.7 0.8 0.4 -0.5-0.8 1.4 0.2 0.9-1.6 3.9 2.8 0.9-0.2L309 445.1l1.4-0.8 3.7 2.6 -0.6-2.8 -1 0.3 0.3-1 -2.4-2.3 1.9-3.1v1.4l2.6-0.3v-0.6l1.6 1.1 -0.2-1.7 1.1-1.1 -0.5-0.7 1.1-0.3 -0.5-0.8 1.1-0.1 0.3-0.3 0.7-0.7 -1.3 0.1 0.8-3 0.9-0.1L320.5 430.7zM316.6 431.7l0.5 1.3 -0.8 3.6 -1.7 0.4 -0.5-0.7 -1.1 1.1 0.2-1.4 1.4-0.8 -0.9-0.8h1.6l-0.2-1.1L316.6 431.7zM245.1 440.4l2.2 1.3 0.2-0.8 0.6 0.3v5.6l-2.2 0.8 -0.3 1.5 1.6 2.7 -0.6 0.9 3.2 1.4 0.2 2.1 1.7 0.3 -0.3-0.9 2.9-2.1 3.7-0.3 1.5 1.4 1.4 0.1 0.5 2.3 -1.2 0.1 0.5 1 -0.8 1.2 0.9 3.5 -2.3 3 2.5 1.8 -3.9 0.8 0.7-1.9 -0.9-0.6 -0.8 0.3 0.1 1.1 -1.5-0.2 -0.3-0.8 -0.5 1.4 -2.6-0.1 -1.2-4.3 0.6-3.5 -4.4 1.3 0.7 3.7 -2.1 1.3 -3-0.6 0.4-0.7 -1.1-0.4 0.2-1.2 -1.5-0.1 0.4-2.1 1.1-0.2 -1.7-3 0.2-1.4 -2.2-2.9 -0.6-2.8 1.1-2 1-0.1 0.1-2.1 1.2-1.4 0.4 0.6 1.7-0.2 -1-1.3 0.1-1.6 1.1-0.4 0.4-1.2L245.1 440.4zM258.1 443.1l-1.9 6.4 1.3 0.3 -0.1-2.1 1.3-1.7 1 0.1 0.2 1.6 0.6-0.3 1.1 1.3 -0.1 1.4 -1.1 1.1 0.8-0.3 -0.1 1.2h1.5l1.1 1.9 -1.4-0.9 -0.7 0.6 -1-0.9 -0.8 0.3 -2.3-1.5 -0.3 1.2 -1.4 0.3 -3.3-0.9L252 449l1.3-0.8 2-3.8L258.1 443.1zM274.1 450.3l3.1 1.8 -2.5 0.2 -2 2L272.6 453l-1.3-0.3 -0.3-1.3L274.1 450.3zM277.6 452.5l2.8 2.9 -0.6 0.8 -2-0.2 0.3 1.9 -4-2.7 0.2-0.8 1.2 0.4 -0.7-0.6 0.9-1.2L277.6 452.5zM301 455.1l-0.6 0.7h0.9l0.6 3.4L303.1 459l0.6 0.8 -0.3 1.2 -1.9 1.1 -2-0.4 0.6-1.1 -1.3-1.8 0.2-2.3 0.5 1.8 0.8-0.4 -0.2-1L299.4 456l0.3-0.8h1.5v-0.1H301zM278.4 474l2.9 1.6 -1 0.7 0.9 1 1-1.6h1.3L282.6 478l-2.5-0.9 -1.8 0.9 -0.2 0.9 -0.9-0.2 -0.2-0.6 1.1-0.7 -0.8-0.6 0.3-0.8 -0.9 0.5 -0.4-0.7 1.1-0.4 -0.7-1L278.4 474z" class="a"/>
  <path d="M156.5 602.1l0.7 0.8 -0.4 0.6 1.5-0.1 -0.7 2.9 -2.1-0.5 -0.4-1.4L156.5 602.1zM151.8 617.2l-3.1 2.3 -0.5 2 -2.5 2.5 0.2 1.4 -1.3 1.5 -5.1-0.1 -3.1 3.3 -9 1.1 -2.8 2.9 -1.8 0.7 -1-0.9 -1.7-0.1 -0.5 1.3 -1.5-0.9 -2.1 0.2 -5.3 1.7 -1.8-1.8 -2.3 0.6 -1.9-1 -3.3 1.5 -4.2-1.1 -3.2 2v3l-1.4-0.5 -0.9 0.6 -0.9-0.6 0.2-1.1h-0.8l-2.1-2.9 -4.9-2.8 -1.8-3 0.6-3.3 -0.6-1.8 1.8-1.5V621l2.8-1.8 1.2-1.8 1.2 0.2 2.2-2.5 0.5-2.8 4.2-1.7 0.5-2 5.4-1 1.7-1.3 1.2 0.8 7.9-3.1 1.1-1.2 2 0.6 2.4-1 4.3-0.1 0.8-1.2 3.7-0.2 1.1-2 1.9 1.5 1.1-1.1 4.7-0.9 3.2 0.4 0.2-0.9 3.3 1.1 2.8-0.5 1.3 3 1.8 0.9 1-0.6 3.3 1 -0.4 1.3h1l0.3 0.9 -1.2 2.2 1.8 1.4 1.3-0.5 1.1 1.7 -0.5 0.6 -1-0.7 -0.8 1.2 -0.1 1L155 613l-0.7 0.9 -1.2-1.3L151.8 617.2z" class="a"/>
  <path d="M184.1 241l-2.7-1.6 -1.5-1.6 -2.6-0.8 -2.7 1.1 -0.4 1.8 1.1 2 0.5 2 0.3 3.1 -0.7 2.4 0.3 3.4 0.1 3.5v3.1l-1.1 2.4 0.1 2 1.9 2.6 2.7 1.5 1.4 3.9 0.3 2.8L181 278.7l1.2 3.1 1.8 1.4 1.7 2.1 2.2-2.5 -0.3-8.7 6.9-2.2 1-6.1 -0.6-0.9 -1.1 0.2 -0.6 0.8 1.9-6.1 -1.1-1.1 0.9-3.3 -3.3-0.2 -0.4-1.3v-2.8l-2.8-3.4 2.2-0.6 0.3-2.8 -1.6-2.2 -2.4 0.2L184.1 241z" class="a"/>
</svg>