<svg xmlns="http://www.w3.org/2000/svg" width="300" height="300" viewBox="0 0 300 300">
	<path fill="#2FB44A" d="M300 240C300 273.1 273.1 300 240 300H60C26.9 300 0 273.1 0 240V60C0 26.9 26.9 0 60 0H240C273.1 0 300 26.9 300 60V240z"/>
	<path fill="#FFF" d="M278.4 160.2c0 22.5-18.2 40.7-40.6 40.7H62.1c-22.4 0-40.6-18.2-40.6-40.7V63.7c0-22.5 18.2-40.7 40.6-40.7h175.7c22.4 0 40.6 18.2 40.6 40.7V160.2z"/>
	<path fill="#FFF" d="M181.6 194l-26.1-1.6v-0.7l-5.5 0.3 -5.5-0.3v0.7l-26.1 1.6 24.9 40.6c0 0 0.2 0.4 0.7 1 1.2 2.1 3.4 3.5 6 3.5 2.6 0 4.8-1.4 6-3.4 0.5-0.6 0.7-1 0.7-1L181.6 194z"/>
	<path fill="#F47629" d="M89.9 64.5v9.5c0 0 4.6 0.6 4.6 6.4H75.8c0 0 0-14.1-14.1-14.1v9.8c0 0 4.6 0.3 4.6 7.6v21.1h37.3V81C103.6 81 105.2 64.5 89.9 64.5zM94.5 96.3H75.8v-6.7h18.6V96.3zM54.4 109.1h60.8v9.2H54.4V109.1zM66 125.3h37.6v23.5H75.8v6.7h27.9v8.9H66v-24.5h28.4v-5.5H66V125.3zM131.4 78.5h37.9v26.3H141.5v6.4h27.8v9.5h-13.1v9.2h22.6v8.9h-57.8v-9.2h25.4v-8.9h-14.7V94.1h28.1v-6.7h-28.1L131.4 78.5zM235 83.1v35.1h-11.3v-25.7h-28.1V83.1H235zM244.8 127.4v9.8h-58.7v-9.8H244.8z"/>
</svg>