<svg xmlns="http://www.w3.org/2000/svg" width="300" height="300" viewBox="0 0 300 300">
    <path d="M240 0H60C26.9 0 0 26.9 0 60v180C0 273.1 26.9 300 60 300H240c33.2 0 60-26.9 60-60V60C300 26.9 273.1 0 240 0z" fill="#50ABF1"/>
    <path d="M39.7 222.4c20 12.7 43.6 20 69 20 71.3 0 129.1-57.8 129.1-129.1 0-1.8 0-3.5-0.1-5.3 2.6-2 18.5-14.8 22.4-23 0 0-13 5.4-25.6 6.7 0 0-0.1 0-0.1 0 0 0 0 0 0.1 0 1.2-0.8 17.5-11.9 19.7-25.1 0 0-9.2 4.9-22 9.2 -2.1 0.7-4.3 1.4-6.6 2 -8.3-8.8-20-14.3-33.1-14.3 -25 0-45.3 20.3-45.3 45.3 0 3.5 0.4 7 1.2 10.3 -3.5-0.1-56.8-3.1-93-47 0 0-21.7 29.6 12.9 60 0 0-10.5-0.4-19.6-5.8 0 0-3.3 35.8 35.8 45 0 0-7.7 2.9-20 0.8 0 0 6.9 28.9 41.7 31.6 0 0-27.5 24.8-66.5 19L39.7 222.4z" fill="#FFF"/>
</svg>