<svg xmlns="http://www.w3.org/2000/svg" width="300" height="300" viewBox="0 0 300 300">
	<path fill="#DC472E" d="M240 0H60C26.9 0 0 26.9 0 60v180C0 273.1 26.9 300 60 300H240c33.2 0 60-26.9 60-60V60C300 26.9 273.1 0 240 0z"/>
	<path fill="#FFF" d="M173.3 192c0-1.1-0.3-2.3-0.7-3.3 -0.6-1.4-1.7-2.1-3.2-2.2 -1.7-0.2-3.1 0.5-4.4 1.7 -0.5 0.4-0.7 1.1-0.7 1.1l0 35.5v0.9c0 0 0.3 0.4 0.3 0.5 1 1.1 2.2 2 3.8 2.3 2.5 0.5 4.3-0.5 4.8-2.9 0.1-0.6 0.2-1.2 0.2-1.8C173.3 213.2 173.4 202.6 173.3 192zM173.3 192c0-1.1-0.3-2.3-0.7-3.3 -0.6-1.4-1.7-2.1-3.2-2.2 -1.7-0.2-3.1 0.5-4.4 1.7 -0.5 0.4-0.7 1.1-0.7 1.1l0 35.5v0.9c0 0 0.3 0.4 0.3 0.5 1 1.1 2.2 2 3.8 2.3 2.5 0.5 4.3-0.5 4.8-2.9 0.1-0.6 0.2-1.2 0.2-1.8C173.3 213.2 173.4 202.6 173.3 192zM213.1 138.5c-42-0.9-84.1-0.9-126.2 0 -14.6 0.3-26.3 12.2-26.3 26.8v65.7c0 14.6 11.7 26.5 26.3 26.8 42.1 0.9 84.1 0.9 126.2 0 14.6-0.3 26.3-12.2 26.3-26.8v-65.7C239.3 150.7 227.7 138.8 213.1 138.5zM99.3 237H87.1v-68.5H74.6v-11.5h37.3v11.4H99.3V237zM142.7 208.5v28.5h-10.7v-6.5c-0.4 0.4-0.6 0.6-0.8 0.9 -2.3 2.6-4.9 4.8-8.3 5.9 -1.6 0.6-3.3 0.8-5 0.5 -2.3-0.4-3.9-1.7-4.9-3.9 -0.9-2-1.1-4.1-1.1-6.2 0-7.8 0-49.3 0-49.7h10.7c0 0.4 0.1 30.1 0.1 44.6 0 0.8 0 1.6 0.2 2.4 0.4 1.9 1.9 2.8 3.8 2.1 2.2-0.8 3.8-2.3 5.2-4.1 0.2-0.3 0.2-0.7 0.2-1.1v-44l10.7 0C142.7 177.9 142.7 198.6 142.7 208.5zM183.5 231.3c-1.4 4.3-4.6 6.5-9.1 6.5 -3.7 0-6.7-1.5-9.2-4.2 -0.3-0.3-1-1.1-1-1.1v4.5h-10.8v-80h10.8c0 8.5 0 26.3 0 26.3s0.6-1.2 1.2-1.8c1.7-1.9 3.7-3.3 6.2-3.9 4.1-1 8.9 0.2 11.2 5.1 1.3 2.9 1.7 5.9 1.7 9 0 11.2 0 22.4 0 33.6C184.4 227.2 184.2 229.3 183.5 231.3zM223.2 229c-1.9 5.5-5.7 8.5-11.4 9.3 -3.5 0.5-7 0.4-10.3-1 -4.5-2-7-5.7-8.1-10.4 -0.5-2.2-0.8-4.4-0.8-6.7 -0.1-8.8 0-17.5 0-26.3 0-4.6 1.1-8.8 4.2-12.3 3.6-4 8.2-5.5 13.4-5.2 1.6 0.1 3.2 0.4 4.7 0.9 5.1 1.7 7.8 5.5 8.9 10.5 0.4 1.9 0.6 4 0.6 6 0.1 4.7 0 15 0 15h-20.6v14.8c0 2.7 2.1 4.8 4.8 4.8 2.6 0 4.8-2.1 4.8-4.8v-7.6h11.1C224.5 216 224.6 224.9 223.2 229zM213.4 191.4c0-2.6-2.1-4.8-4.8-4.8 -2.7 0-4.8 2.2-4.8 4.8v8.3h9.6V191.4zM172.5 188.7c-0.6-1.4-1.7-2.1-3.2-2.2 -1.7-0.2-3.1 0.5-4.4 1.7 -0.5 0.4-0.7 1.1-0.7 1.1l0 35.5v0.9c0 0 0.3 0.4 0.3 0.5 1 1.1 2.2 2 3.8 2.3 2.5 0.5 4.3-0.5 4.8-2.9 0.1-0.6 0.2-1.2 0.2-1.8 0-10.6 0-21.1 0-31.7C173.3 190.9 173 189.8 172.5 188.7z"/>
	<path fill="#FFF" d="M200 62.5l0 59.4h-11l0-6.4c-1.2 1.2-2.3 2.3-3.4 3.3 -2 1.8-4.3 3.1-7 3.6 -4.1 0.8-7.6-0.5-8.9-4.8 -0.4-1.4-0.7-3-0.7-4.4V62.5h10.9v45.3c0 0.6 0 1.2 0.2 1.8 0.3 1.9 1.7 2.7 3.5 2.1 2.2-0.8 3.9-2.3 5.3-4.1 0.2-0.3 0.2-0.7 0.2-1.1V62.5H200z"/>
	<path fill="#FFF" d="M109 72.9c-2.4-10.1-7.4-31.3-7.4-31.3H89.1c0 0 9.6 31.9 13.9 46.2 0.2 0.5 0.2 1.1 0.2 1.6l0 32.6h11.6l0-32.6c0-0.5 0.1-1.1 0.2-1.6 4.3-14.2 13.9-46.2 13.9-46.2h-12.5c0 0-5 21.3-7.4 31.3H109z"/>
	<path fill="#FFF" d="M144 61L144 61c-8.7 0-15.8 7.1-15.8 15.8v30.8c0 8.7 7.1 15.8 15.8 15.8l0 0c8.7 0 15.8-7.1 15.8-15.8V76.8C159.8 68.1 152.7 61 144 61zM148.5 108.3c0 2.5-2 4.5-4.5 4.5s-4.5-2-4.5-4.5V76.2c0-2.5 2-4.5 4.5-4.5s4.5 2 4.5 4.5V108.3z"/>
</svg>