<?xml version="1.0" standalone="no"?>
<!DOCTYPE svg PUBLIC "-//W3C//DTD SVG 20010904//EN"
 "http://www.w3.org/TR/2001/REC-SVG-20010904/DTD/svg10.dtd">
<svg version="1.0" xmlns="http://www.w3.org/2000/svg"
 width="16.000000pt" height="16.000000pt" viewBox="0 0 16.000000 16.000000"
 preserveAspectRatio="xMidYMid meet">
<metadata>
Created by potrace 1.11, written by Peter Selinger 2001-2013
</metadata>
<g transform="translate(0.000000,16.000000) scale(0.014035,-0.014035)"
fill="#000000" stroke="none">
<path d="M420 1087 c-100 -30 -179 -76 -245 -145 -30 -31 -55 -60 -55 -64 0
-3 -6 -13 -14 -20 -17 -18 -67 -125 -73 -158 -2 -14 -8 -41 -12 -61 -22 -97 6
-252 65 -357 32 -56 136 -172 155 -172 4 0 14 -6 21 -12 30 -29 201 -94 218
-83 5 3 10 1 10 -4 0 -12 170 -9 189 3 6 4 24 9 39 12 40 7 132 45 132 55 0 5
7 9 15 9 27 0 159 141 192 205 75 147 83 308 23 463 -16 43 -41 91 -55 107
-13 17 -39 47 -56 68 -58 69 -174 135 -294 166 -65 17 -173 12 -255 -12z"/>
</g>
</svg>
