<?xml version="1.0" encoding="utf-8"?><svg enable-background="new 0 0 190 74" height="74" version="1.1" viewBox="0 0 190 74" width="190" xmlns="http://www.w3.org/2000/svg" xmlns:xlink="http://www.w3.org/1999/xlink"><line fill="none" stroke="#000" stroke-linecap="round" stroke-linejoin="round" stroke-width="2.559" x1="118.213" x2="118.213" y1="5.021" y2="55.214"/><path d="m181.223 3.004h-172.446c-3.374 0-6.111 2.734-6.111 6.113v45.793 16.087h184.666v-15.337c.002-.026 0-.05 0-.077v-46.466c-.002-3.377-2.734-6.113-6.109-6.113m-175.996 6.113c.005-1.966 1.593-3.554 3.551-3.556h172.445c1.961.002 3.547 1.59 3.552 3.556v45.187h-179.548z"/><path d="m142.359 42.251v.486h1.789v1.473h-3.563v.416h3.72v.553h-4.555v-1.486h3.578v-.41h-3.578v-.545h1.77v-.486h-2.513v-.572h5.898v.572h-2.546zm.532-1.787c.14.07.295.127.465.174.193.051.397.094.613.123.215.031.42.057.618.076-.065.074-.14.168-.223.277-.082.111-.151.209-.209.295-.175-.025-.361-.057-.56-.096-.201-.041-.4-.092-.593-.152-.222-.07-.426-.156-.61-.254-.188-.1-.332-.211-.437-.334-.104.109-.235.209-.396.297-.16.09-.338.168-.53.234-.199.072-.407.131-.628.182-.217.049-.438.09-.66.123-.059-.096-.129-.189-.208-.283-.078-.094-.157-.191-.237-.289.223-.02.438-.047.651-.08.212-.033.409-.072.594-.119.185-.053.347-.113.485-.184.138-.07.242-.15.313-.242h-1.711v-.537h4.625v.537h-1.705c.086.101.201.184.343.252m-2.187-1.652h2.481v.532h-2.481zm7.367 3.011c.075.227.182.439.315.633.145.207.313.393.502.555.194.162.392.293.601.391-.103.092-.201.184-.29.277-.091.094-.173.18-.247.256-.133-.086-.267-.182-.399-.291-.136-.109-.269-.229-.401-.36-.111-.122-.22-.257-.325-.403-.104-.146-.198-.304-.282-.475-.075.171-.163.334-.27.492-.104.158-.22.311-.353.455-.117.133-.25.26-.394.379-.144.121-.295.238-.456.352-.075-.07-.171-.154-.286-.248-.117-.093-.229-.188-.342-.275.235-.127.456-.276.659-.445.205-.17.384-.357.535-.559.151-.209.269-.434.354-.674.084-.24.128-.498.128-.777v-.262h-1.313v-.666h3.457v.666h-1.311v.262c0 .248.04.487.118.717m-1.518-2.812h1.953v.637h-1.953zm3.607 6.211v-3.127h-1.193v-.666h1.193v-2.523h.766v6.316zm1.571-.701v-.666h1.394v-1.279h.755v1.279h1.627v-1.285h.741v1.285h1.396v.666zm.489-2.221v-.658h.854l-.021-1.789h-.694v-.666h4.639v.666h-.707l-.02 1.789h.87v.658zm1.627-.658h1.675l.021-1.789h-1.727zm6.74-.223c.07.262.166.504.289.727.149.258.333.49.547.695.218.205.457.391.726.557-.107.088-.213.18-.318.271-.104.09-.186.172-.255.244-.121-.08-.252-.182-.392-.301s-.278-.254-.414-.4c-.143-.15-.27-.313-.385-.484s-.214-.344-.294-.52c-.047.16-.125.328-.239.506-.109.176-.232.348-.369.512-.142.172-.291.326-.449.471s-.307.264-.442.357c-.073-.07-.172-.154-.294-.248-.119-.094-.236-.178-.351-.254.288-.176.544-.371.766-.59.222-.221.404-.461.554-.727.135-.248.238-.518.309-.807.07-.287.107-.592.107-.918v-1.352h.797v1.393c-.001.317.036.606.107.868m2.19-2.514h.766v6.316h-.766z"/><path d="m167.446 11.716h-31.394c-1.664.002-3.008 1.346-3.01 3.016v30.606c.002 1.661 1.346 3.005 3.01 3.009h31.394c1.661-.002 3.009-1.348 3.009-3.009v-30.607c-.004-1.669-1.348-3.013-3.009-3.015m0 35.392h-31.394c-.981 0-1.772-.791-1.772-1.771v-8.132h34.937v8.132c0 .98-.793 1.771-1.771 1.771"/><path d="m158.956 30.267c-.597-4.344-2.487-6.605-4.237-7.684.836-.813 1.36-1.949 1.36-3.207 0-2.465-1.996-4.463-4.463-4.463-2.464 0-4.461 1.998-4.461 4.463 0 1.256.526 2.395 1.362 3.207-1.748 1.078-3.642 3.342-4.237 7.686-.093.623-.138 1.203-.138 1.74 0 .525.043 1.014.129 1.473.117.59.634 1.012 1.232 1.012h12.229c.604 0 1.119-.428 1.23-1.021.085-.447.131-.934.131-1.463.001-.538-.046-1.118-.137-1.743" fill="#fff"/><path d="m62.292 20.935c-.568-1.012-1.344-1.832-2.307-2.426-.949-.586-2.033-.987-3.244-1.215-1.187-.221-2.422-.33-3.703-.33h-9.31c-.149 0-.295.061-.401.166s-.164.252-.164.4v24.848c0 .15.058.293.164.398.109.109.251.168.401.168h3.29c.149 0 .291-.059.397-.168.109-.105.167-.248.167-.398v-9.369h5.678c3.122 0 5.578-.662 7.308-2.072 1.736-1.414 2.593-3.529 2.586-6.152 0-1.513-.272-2.804-.862-3.85m-8.96 7.982h-5.75v-7.863h5.64c.781 0 1.519.055 2.211.16.66.102 1.224.295 1.703.572.455.27.808.631 1.084 1.117.252.455.404 1.102.404 1.955 0 .707-.1 1.305-.287 1.805-.183.486-.46.877-.858 1.211-.395.328-.921.59-1.601.77-.675.179-1.528.275-2.546.273"/><path d="m84.912 39.021c-.106-.105-.251-.166-.403-.166h-14.692v-7.297h13.168c.152 0 .294-.058.403-.166.106-.104.166-.248.166-.4v-2.957c0-.148-.063-.295-.166-.4-.108-.105-.252-.166-.403-.166h-13.168v-6.414h14.143c.151 0 .296-.057.4-.166.109-.105.168-.248.168-.4v-2.959c0-.148-.062-.295-.166-.4-.106-.105-.254-.166-.402-.166h-17.998c-.151 0-.293.061-.401.166-.105.105-.165.252-.165.4v24.848c0 .15.059.293.165.398.108.109.25.168.401.168h18.547c.152 0 .297-.059.403-.168.106-.105.165-.248.165-.398v-2.959c0-.147-.061-.294-.165-.398"/><path d="m108.139 17.13c-.105-.105-.253-.166-.402-.166h-3.158c-.147 0-.295.061-.403.166-.103.105-.164.252-.164.4v17.746l-11.942-18.058c-.106-.158-.285-.254-.478-.254h-3.394c-.151 0-.297.061-.401.166-.105.105-.167.252-.167.4v24.848c0 .15.058.293.167.398.107.109.25.168.401.168h3.124c.149 0 .295-.059.399-.168.106-.105.165-.248.165-.398v-17.719l11.999 18.031c.106.16.282.254.472.254h3.379c.151 0 .297-.059.402-.168.105-.105.166-.248.166-.398v-24.848c.001-.148-.062-.295-.165-.4"/><path d="m26.014 19.22c5.12.008 9.349 3.768 10.099 8.68 1.747.252 3.177.705 4.318 1.207-.01-.332-.029-.494-.029-.494l-.004-.006c-.434-7.572-6.706-13.574-14.384-13.576-7.614.002-13.842 5.904-14.371 13.383.026.492.274 1.428 1.675 2.113l-.084-.021c1.418.766 3.625 1.662 6.23 1.668 1.94 0 4.523-.516 6.662-1.959 1.498-1.012 3.209-1.961 5.065-1.965.574-.002 1.146.061 1.708.176.157.035.313.068.467.111 0 0 .525.291.63-.053.06-.189 0-.355-.063-.467-.18-.305-.646-.602-.938-.789-.412-.264-.866-.457-1.339-.578-1.083-.281-2.246-.201-3.333.02-1.095.223-2.172.588-3.179 1.068-1.746.83-3.58 1.137-4.698 1.137-1.822-.008-2.916-.793-3.611-1.598-.248-.291-.438-.584-.579-.838 1.286-4.176 5.159-7.211 9.758-7.219" fill="#00b288"/><path d="m36.315 29.575c-.011.305-.031.547-.039.66h-.008c-.385 5.303-4.796 9.482-10.195 9.492-4.41-.008-8.018-2.438-9.443-6.318-.999-.225-3.385-.863-4.878-2.068 0 .002-.002.006-.002.012.73 7.279 6.852 12.561 14.323 12.561 7.492 0 13.646-5.715 14.344-13.024-1.387-.713-2.896-1.104-4.102-1.315"/><path d="m27.27 61.759h-4.284v-1.801c0-.018-.007-.037-.019-.049-.014-.012-.03-.02-.049-.02h-1.168c-.018 0-.035.008-.048.02-.013.012-.018.031-.018.049v1.801h-3.182c-.018 0-.035.008-.047.021-.014.012-.021.029-.021.047v1.041c0 .018.008.035.021.049.012.012.029.019.047.019h8.768c.019 0 .037-.007.048-.019.014-.014.02-.031.02-.049v-1.041c0-.018-.006-.035-.02-.047-.011-.013-.029-.021-.048-.021m-1.75 2.379c-.62-.387-1.504-.574-2.655-.574-1.137 0-2.012.188-2.633.574-.617.383-.937.893-.935 1.508-.002.609.321 1.115.941 1.502.622.391 1.502.58 2.638.582 1.149-.002 2.032-.191 2.649-.582.612-.387.932-.893.93-1.502.002-.616-.319-1.125-.935-1.508m-1.042 2.259c-.4.168-.935.254-1.602.254-.681 0-1.216-.086-1.603-.254-.382-.17-.554-.412-.558-.762.002-.318.175-.551.559-.725.386-.172.921-.26 1.602-.26.667 0 1.201.088 1.602.26.401.176.578.408.58.725-.002.348-.181.593-.58.762m-5.039-7.445h5.67c-.009.358-.041.736-.093 1.129-.055.42-.116.787-.178 1.102-.005.021.001.043.015.057.012.016.032.025.051.025l1.125.012c.033 0 .063-.023.069-.057.084-.488.157-1.006.221-1.553.062-.549.098-1.156.105-1.822 0-.018-.007-.035-.02-.049-.013-.012-.029-.02-.048-.02h-6.917c-.019 0-.037.008-.049.02-.013.012-.021.031-.021.049v1.039c0 .018.009.035.021.049.014.011.03.019.049.019m9.461 0h5.671c-.01.358-.04.736-.093 1.129-.055.42-.115.787-.177 1.102-.006.021 0 .043.013.057.012.016.032.025.052.025l1.125.012c.032 0 .062-.023.068-.057.084-.488.158-1.006.222-1.553.063-.549.097-1.156.106-1.822 0-.018-.007-.035-.022-.049-.012-.012-.029-.02-.047-.02h-6.918c-.017 0-.035.008-.047.02-.014.012-.021.031-.021.049v1.039c0 .018.008.035.021.049.012.011.03.019.047.019m6.08 5.186c-.619-.387-1.503-.574-2.652-.574-1.137 0-2.014.188-2.635.574-.615.383-.937.893-.934 1.508-.001.609.321 1.115.94 1.502.623.391 1.503.58 2.639.582 1.149-.002 2.033-.191 2.648-.582.614-.387.933-.893.932-1.502.001-.616-.32-1.125-.938-1.508m-1.039 2.259c-.402.168-.935.254-1.603.254-.682 0-1.216-.086-1.602-.254-.383-.17-.555-.412-.559-.762.003-.318.175-.551.559-.725.386-.172.92-.26 1.602-.26.668 0 1.201.088 1.603.26.399.176.577.408.579.725-.002.348-.18.593-.579.762m2.791-4.638h-4.284v-1.801c0-.018-.007-.037-.019-.049-.013-.012-.031-.02-.048-.02h-1.168c-.018 0-.035.008-.049.02-.013.012-.019.031-.019.049v1.801h-3.18c-.019 0-.035.008-.048.021-.014.012-.021.029-.021.047v1.041c0 .018.008.035.021.049.013.012.029.019.048.019h8.767c.018 0 .037-.007.049-.019.012-.014.02-.031.02-.049v-1.041c0-.018-.008-.035-.02-.047-.012-.013-.031-.021-.049-.021m1.766.115h6.814c.018 0 .036-.008.047-.02.014-.014.022-.031.022-.049v-1.041c0-.018-.008-.035-.02-.047-.013-.014-.032-.021-.049-.021h-5.63v-2.83c0-.02-.008-.035-.02-.049-.014-.014-.03-.02-.049-.02h-1.115c-.018 0-.033.006-.047.02-.014.014-.02.029-.02.049v3.939c0 .018.006.035.02.049.014.012.029.02.047.02m7.697 1.102h-8.768c-.018 0-.036.008-.049.021-.013.012-.019.029-.019.049v1.029c0 .018.006.033.019.047.013.014.031.021.049.021h3.748v3.33c0 .018.007.033.02.047.012.012.03.02.047.02h1.157c.018 0 .035-.008.048-.02.014-.014.02-.029.02-.047v-3.332h3.728c.018 0 .034-.006.048-.02.013-.014.019-.029.019-.047v-1.029c0-.02-.006-.037-.019-.049-.013-.011-.03-.02-.048-.02m7.075.787c-.307.053-.774.115-1.4.189-.626.072-1.177.111-1.647.111h-1.395v-1.879h3.201c.02 0 .035-.008.049-.021.012-.012.02-.029.02-.047v-4.018c0-.02-.008-.035-.02-.049-.014-.012-.031-.02-.049-.02h-4.393c-.019 0-.036.006-.049.02-.013.014-.021.029-.021.049v1.041c0 .016.008.035.021.046.013.015.03.022.049.022h3.201v1.822h-3.201c-.019 0-.036.006-.049.018-.013.013-.021.031-.021.049v4.096c0 .02.008.035.021.049.014.012.03.02.049.02.007 0 .346-.006 1.02-.012.672-.008 1.089-.012 1.25-.012.619-.014 1.258-.057 1.916-.127.655-.07 1.145-.131 1.469-.184.033-.004.059-.033.059-.066v-1.029c0-.021-.01-.039-.024-.053-.015-.011-.037-.017-.056-.015m1.646-6.223c-.012-.012-.029-.02-.049-.02h-1.135c-.017 0-.035.008-.046.02-.014.014-.022.031-.022.049v9.885c0 .018.008.033.022.049.011.012.029.018.046.018h1.135c.02 0 .035-.008.049-.02.013-.014.021-.029.021-.047v-9.885c0-.018-.008-.035-.021-.049m8.589 5.014v-.702h3.398v-1.86h.899v1.86h4.521v.702zm1.841 3.834c-.6-.339-.898-.761-.898-1.262 0-.506.298-.93.898-1.259.601-.336 1.454-.504 2.562-.504 1.115 0 1.971.168 2.567.504.596.329.894.753.894 1.259 0 .501-.298.923-.894 1.262s-1.452.509-2.567.509c-1.108-.001-1.961-.17-2.562-.509m5.983-8.216c-.007.561-.05 1.104-.129 1.632-.076.527-.164 1.001-.263 1.414h-.847c.076-.317.149-.694.21-1.131.067-.44.1-.845.106-1.214h-5.874v-.701zm-5.23 7.781c.457.187 1.06.28 1.809.28.74 0 1.343-.094 1.805-.28.462-.188.693-.466.693-.84 0-.354-.231-.625-.693-.809-.462-.185-1.065-.277-1.805-.277-.749 0-1.352.093-1.809.277-.459.184-.689.454-.689.809 0 .374.23.652.689.84m6.932-3.399v-.702h3.4v-1.86h.9v1.86h4.522v.702zm1.845 3.834c-.602-.339-.903-.761-.903-1.262 0-.506.301-.93.903-1.259.598-.336 1.453-.504 2.562-.504 1.113 0 1.969.168 2.566.504.595.329.895.753.895 1.259 0 .501-.3.923-.895 1.262-.597.339-1.453.509-2.566.509-1.109-.001-1.964-.17-2.562-.509m5.981-8.216c-.007.561-.05 1.104-.127 1.632-.078.527-.166 1.001-.266 1.414h-.847c.078-.317.15-.694.212-1.131.065-.44.1-.845.107-1.214h-5.876v-.701zm-5.229 7.781c.457.187 1.061.28 1.81.28.74 0 1.339-.094 1.805-.28.46-.188.693-.466.693-.84 0-.354-.233-.625-.693-.809-.466-.185-1.065-.277-1.805-.277-.749 0-1.353.093-1.81.277-.46.184-.69.454-.69.809 0 .374.23.652.69.84m10.778-4.679c.104.391.259.754.465 1.093.218.361.497.695.835.994.34.3.733.575 1.187.824-.113.08-.232.174-.355.286-.124.113-.226.21-.311.3-.241-.149-.478-.313-.705-.497-.232-.188-.447-.384-.651-.593-.233-.243-.443-.505-.63-.777-.187-.271-.342-.558-.461-.845-.083.27-.211.545-.378.822-.163.273-.356.542-.575.8-.219.265-.456.512-.715.74-.257.23-.51.428-.758.584-.09-.084-.21-.177-.359-.279-.148-.104-.293-.198-.434-.283.438-.25.832-.535 1.181-.857.35-.317.637-.669.862-1.052.233-.383.412-.795.535-1.237.124-.441.186-.912.186-1.414v-.711h-2.054v-.704h5.071v.704h-2.097v.839c0 .446.055.871.161 1.263m3.482 5.444v-5.255h-2.033v-.739h2.033v-2.812h.899v8.806zm5.938-6.503c.127.278.302.535.519.765.226.246.496.457.812.636.313.179.637.317.969.425-.105.092-.212.193-.318.304-.105.114-.195.213-.265.299-.214-.086-.438-.196-.683-.327-.242-.13-.479-.287-.703-.464-.198-.152-.381-.319-.551-.493-.17-.179-.314-.37-.435-.577-.079.207-.192.407-.339.596-.149.199-.313.383-.498.555-.219.197-.46.378-.725.545-.267.163-.531.311-.801.434-.076-.075-.183-.161-.322-.268-.138-.105-.268-.201-.387-.284.395-.16.764-.351 1.111-.571.346-.223.637-.484.879-.789.189-.235.34-.501.451-.794.109-.291.164-.613.164-.956v-.231h-1.896v-.701h4.713v.701h-1.885v.26c.001.341.063.655.19.935m3.221 6.563v-2.436h-5.4v-.711h6.277v3.146h-.877zm.877-6.054v2.491h-.877v-5.303h.877v2.079h1.333v.732h-1.333zm6.542 1.474v.892h2.798v2.065h-5.496v.84h5.707v.643h-6.681v-2.104h5.505v-.794h-5.505v-.65h2.763v-.892h-3.938v-.666h8.818v.666zm-3.695-4.037h6.5v2.633h-6.5zm5.634.652h-4.775v1.326h4.775zm9.558 2.46c.107.392.264.757.467 1.094.227.361.506.695.84.995.336.297.734.575 1.192.823-.114.081-.229.178-.353.29-.125.109-.229.21-.314.296-.238-.146-.477-.311-.709-.495-.232-.184-.451-.382-.656-.594-.231-.244-.443-.503-.631-.775-.188-.275-.339-.559-.461-.847-.076.269-.199.542-.367.819-.173.276-.365.546-.584.803-.219.264-.455.512-.709.742-.256.232-.506.424-.753.584-.1-.087-.221-.18-.364-.283-.146-.104-.291-.196-.439-.281.445-.25.835-.536 1.175-.854.339-.313.627-.663.869-1.048.229-.378.41-.795.534-1.239.123-.445.184-.917.184-1.422v-.71h-2.042v-.704h5.07v.704h-2.104v.839c-.001.452.049.872.155 1.263m4.014-3.361v3.416h1.418v.742h-1.418v4.658h-.89v-8.816zm8.377 5.718v3.091h-.901v-3.091h-2.341v3.021h-.9v-3.005h-2.361v-.726h8.821v.71zm-4.602-2.159c-.609-.388-.917-.865-.917-1.438 0-.579.304-1.058.911-1.454.609-.389 1.443-.585 2.507-.585 1.075 0 1.915.196 2.522.583.606.392.91.874.91 1.456 0 .566-.304 1.045-.91 1.43-.607.389-1.447.588-2.522.588-1.056 0-1.892-.191-2.501-.58m.728-.494c.478.235 1.067.352 1.772.352.707 0 1.296-.112 1.767-.342.469-.229.703-.538.703-.934 0-.418-.234-.743-.701-.979-.463-.238-1.054-.359-1.769-.359-.711 0-1.304.12-1.776.352-.474.235-.709.555-.709.967.001.393.239.708.713.943m8.165-2.008c.498-.533 1.035-.796 1.614-.796.595 0 1.134.263 1.619.801.487.535.731 1.383.731 2.545 0 1.139-.239 1.98-.721 2.531-.48.549-1.023.82-1.63.82-.6 0-1.145-.271-1.631-.816-.487-.545-.731-1.392-.731-2.535 0-1.168.25-2.021.749-2.55m.513 4.371c.262.53.631.796 1.111.796.479 0 .845-.266 1.09-.796.246-.526.369-1.139.369-1.834 0-.672-.123-1.272-.369-1.808-.245-.527-.61-.794-1.09-.794-.48 0-.85.268-1.111.801-.262.535-.393 1.137-.393 1.801.001.695.131 1.307.393 1.834m5.345-5.428h.89v8.81h-.89zm2.403 5.028v-.702h2.404v-1.303c-.451-.155-.794-.354-1.027-.601-.234-.249-.348-.519-.348-.808 0-.469.294-.863.882-1.189.589-.321 1.418-.482 2.484-.482 1.087 0 1.927.166 2.519.495.594.33.889.728.889 1.194 0 .286-.113.548-.342.794-.229.245-.57.441-1.022.597v1.303h2.383v.702zm1.848 1.121c.598-.305 1.449-.458 2.559-.458 1.114 0 1.969.156 2.563.471.593.313.89.709.89 1.182 0 .461-.297.85-.886 1.171-.59.313-1.444.471-2.566.471-1.109 0-1.961-.157-2.559-.471-.596-.321-.894-.713-.894-1.18-.001-.483.297-.875.893-1.186m.763 1.927c.448.178 1.048.267 1.796.267.732 0 1.327-.089 1.777-.267.453-.179.679-.42.679-.733 0-.328-.226-.583-.679-.761-.45-.18-1.045-.267-1.777-.267-.748 0-1.348.087-1.796.267-.448.178-.671.428-.671.752 0 .315.222.564.671.742m.032-5.725c.441.199 1.025.295 1.753.295.721 0 1.306-.094 1.761-.285.457-.187.684-.43.684-.733 0-.313-.227-.563-.684-.759-.455-.194-1.04-.293-1.761-.293-.72 0-1.304.092-1.747.283-.444.188-.667.438-.667.747 0 .301.22.552.661.745m2.928.846c-.168.035-.355.059-.557.076-.2.015-.406.022-.618.022-.198 0-.394-.008-.587-.022-.195-.018-.37-.039-.524-.065v1.118h2.286zm4.445-1.564h5.496v.716h-5.496zm1.029 1.994c.443-.418 1.025-.626 1.746-.626.691 0 1.262.208 1.71.626.446.419.672.913.672 1.481 0 .552-.226 1.045-.672 1.486-.448.433-1.019.65-1.71.65-.704 0-1.286-.215-1.735-.644-.452-.429-.678-.926-.678-1.493 0-.567.222-1.061.667-1.48m.645 2.495c.262.272.627.41 1.102.41.458 0 .818-.139 1.08-.414.26-.277.394-.614.394-1.01 0-.389-.134-.723-.394-.995-.262-.274-.622-.409-1.08-.409-.475 0-.84.135-1.102.409-.262.272-.391.606-.391.995 0 .4.129.739.391 1.014m-.35-5.92h2.857v.691h-2.857zm5.602 8.607v-4.375h-1.578v-.743h1.578v-3.69h.891v8.809h-.891zm8.511-4.155c-.339.057-.852.121-1.54.188-.688.064-1.312.104-1.869.117-.366.009-.85.013-1.444.019-.597.008-.908.009-.937.009v-2.718h3.493v-1.248h-3.493v-.693h4.36v2.613h-3.504v1.333l1.631-.015c.436-.007 1.006-.046 1.703-.108.699-.06 1.233-.126 1.6-.191zm.403 4.212v-2.271h-5.389v-.716h6.301v2.987zm.912-6.045v2.642h-.891v-5.463h.891v2.099h1.302v.723h-1.302z" fill="#fff"/></svg>