<svg xmlns="http://www.w3.org/2000/svg" width="1566" height="417" viewBox="0 0 1566 417"><g fill="#3A9DDF"><path d="M1502.9 89c0 0.3 0 0.6 0 1 -2.3 1.8-3.4 4.3-5 6.6 -0.5 0.7-1.2 1.1-1.9 1.7 -0.2 0.1-0.5 0.1-0.7 0.3 -1.2 1.3-2.6 2.6-3.6 4.1 -1.5 2.2-2.7 4.6-4.1 6.9 -0.3 0.5-0.8 1-1.3 1.3 -1.2 1-2.5 1.8-3.7 2.8 -0.3 0.3-0.6 0.8-0.7 1.2 -0.4 1.4-0.7 2.7-1.1 4.1 -0.1 0.4-0.2 0.9-0.5 1 -1.5 0.6-1.4 1.9-1.5 3.2 -0.1 1.3-0.8 2.6-2.1 3 -2.3 0.7-3.1 2.6-3.8 4.4 -1.1 2.6-2 5.2-3.4 7.6 -1.6 2.6-2.8 5.5-4.3 8.2 -0.4 0.8-1.1 1.5-1.6 2.3 -0.3 0.4-0.6 0.8-0.8 1.2 -1 2.7-1.9 5.5-3.1 8.1 -0.8 1.7-0.9 3.6-2.2 5.2 -1.1 1.5-2.1 3.3-1.8 5.5 0.1 0.8-0.4 1.9-0.8 2.6 -1.2 2.1-1.9 4.2-2.3 6.7 -0.4 2.7-0.9 5.6-2.3 8.1 -0.3 0.5-0.5 1.2-0.7 1.8 -0.3 1.2-0.5 2.3-2 2.6 -0.4 0.1-0.8 1-0.8 1.5 -0.1 1.3 0 2.6 0 3.8 0 1.4 0.1 2.7-0.7 3.9 -0.3 0.5-0.3 1.2-0.3 1.9 -0.1 0.5 0 1.1-0.2 1.4 -1.3 1.6-1.6 3.6-2.2 5.5 -0.1 0.5-0.3 1-0.7 1.3 -1.6 1.3-2.4 2.9-2.1 5 0 0.4-0.5 0.9-1 1.2 -0.4 0.2-1 0.1-1.4 0.3 -0.4 0.2-0.8 0.6-0.9 0.9 0 0.3 0.5 0.7 0.8 0.9 0.4 0.2 0.9 0.2 1.7 0.3 -0.3 0.7-0.4 1.3-0.7 1.8 -1.3 2-2.6 4-2.7 6.5 -0.1 2.9-1.2 5.5-2.5 8 -0.4 0.8-0.2 1.9-0.3 2.8 -0.3 2.3-0.6 4.6-1.1 6.8 -0.2 0.9-1.3 1.5-1.8 2.4 -0.9 1.7-0.5 3.8 0.9 5.1 1.4 1.2 1.4 2.1 0.3 3.6 -1.1 1.5-2 3.2-2.3 5.1 -0.3 2.4-2.2 3.8-3.9 5.3 -1.2 1.1-2.4 2.2-2.1 4 0.1 0.6 0.2 1.3 0.5 1.8 0.8 1.4 0.8 2.6-0.4 3.7 -0.9 0.8-1.1 1.8-1.2 3 -0.2 2.9-0.5 5.9-0.7 8.8 -0.1 0.6-0.1 1.3 0 1.9 0.6 2.3 0.3 4.4-0.5 6.6 -0.4 1.2-0.7 2.5-0.7 3.7 0.1 2.9-0.8 5.3-2.5 7.5 -1 1.3-1.8 2.8-1.6 4.6 0.3 1.9-1.1 3.1-2.2 4.4 -0.5 0.6-1.1 1.2-1.7 1.7 -0.7 0.6-1.1 1.4-0.9 2.3 0.5 2.1-0.4 4.1-0.7 6.1 -0.1 0.5-0.4 0.9-0.4 1.4 0.3 4.1-1.5 7.5-3 11.1 -0.4 1.1-0.5 2.2-1.1 3.3 -1.1 1.9-2.7 2.9-4.5 3.8 -1.7 0.8-3 1.9-3.9 3.8 -1.1 2.2-3.3 3.8-5.8 4.6 -1 0.3-1.5-0.5-1.7-1.3 -0.9-3-3.3-5-4.8-7.6 -0.4-0.6-1.5-0.8-2.2-1.2 -0.8-1.4-1.4-3-2.4-4.3 -1.2-1.5-1.3-3.2-1.3-5 0-0.6 0.2-1.1 0.1-1.7 -0.3-1.4 0-2.5 1.4-3.1 0.2-0.1 0.4-0.3 0.6-0.4 0.7-1.2 1-2.7 2-3.5 1.2-1 1.9-2.1 2.1-3.6 0.1-0.5 0.3-0.9 0.5-1.3 0.7-1.1 0.9-2.3 0.7-3.7 -0.2-1.7-0.2-3.4 1.2-4.9 0.5-0.5 0.5-1.6 0.4-2.5 -0.2-1.6-0.2-3.1 1.1-4.5 0.4-0.4 0.5-1.3 0.5-2 0-2.4 0.4-4.6 1.9-6.5 1.1-1.3 1-2.9 0.3-4.3 -1.1-2.4 0-4.2 1.3-5.8 0.6-0.7 1-1.4 1-2.3 0.1-2.5 0-4.9 0.2-7.4 0.1-1.6 0.5-3.1 1-4.6 0.1-0.3 0.3-0.6 0.6-0.9 0-0.3 0-0.7 0.1-1 0.1-1.6 0.5-3.1 1-4.6 0-0.1 0.1-0.1 0.1-0.2 0-0.8 0.1-1.7 0.1-2.6 0-0.3 0.2-0.6 0.3-0.9 0.8-2.5 0.9-5.1 2.2-7.6 1.2-2.3 1-5.3 1.4-7.9 0.1-0.5 0.3-1.1 0.5-1.6 0.2-0.4 0.6-0.9 0.6-1.3 0-3 1.1-5.8 2.1-8.5 0.7-2.1 0.9-4.2 1.2-6.4 0.1-0.6 0.2-1.3 0.6-1.8 0.9-1.1 1-2.3 1.1-3.6 0-0.8 0.3-1.5 0.5-2.3 0.1-0.4 0.4-0.8 0.4-1.1 -0.3-2.3 0.5-4.3 2-6.1 1.1-1.3 1.1-2.9 1-4.6 -0.1-2.1 0.1-4.1 1.4-5.9 0.6-0.9 0.6-2.4 0.7-3.7 0.1-2.5 0.1-5.1 0.3-7.6 0.1-0.8 0.5-1.7 1.1-2.3 1.8-1.7 2.5-4 2.5-6.3 0.1-2.9 1.3-5.4 2.4-7.9 0.1-0.3 0.2-0.6 0.3-0.8 -2.8-2.6-5.4-3-8.9-1.5 -0.7 0.3-1.5 0.6-2.2 0.7 -2.5 0.1-4.5 1.1-6.6 2.4 -2.6 1.7-5.3 3.5-8.3 4.4 -3.8 1.1-6.7 3.2-9.2 5.9 -2.4 2.7-4.7 5.6-7.1 8.4 -1.4 1.6-3 3-4.5 4.5 -0.4 0.4-1.2 0.8-1.3 1.3 -0.5 2.8-2.4 5-3.8 7.3 -1.5 2.6-3.7 5.2-7.4 4.8 -0.6-0.1-1.2-0.2-1.8-0.5 -1.2-0.5-2.2-1.5-3.8-0.7 -0.8 0.4-1.5-0.3-1.7-1.2 -0.1-0.5 0-1.1 0-1.7 0-1-0.5-1.6-1.6-1.6 -2.2 0-2.4-0.3-2.7-2.3 -0.3-1.5-1-2.8-1.3-4.3 -0.5-2.3-1.8-3.6-3.9-4.6 -1.4-0.6-2.4-2-3.6-3.2 -0.9-1-1.7-2.1-1.6-3.6 0-0.5-0.1-1.1-0.4-1.6 -0.1-0.3-0.6-0.5-1-0.5 -0.2 0-0.6 0.4-0.6 0.6 0 1.7-1.4 2.3-2.3 3.4 -2 2.2-4.5 3.8-7.1 4.9 -2.8 1.3-4.5 3.4-6.4 5.5 -0.6 0.7-1.2 1.1-2.1 1.3 -1.9 0.3-3.5 1.1-5 2.5 -3 2.9-6.5 5.2-10.3 7 -2.5 1.2-5 2.6-7.6 3 -4.3 0.7-7.2 3.8-10.9 5.7 -0.4 0.2-0.6 0.6-1 0.6 -2.3 0.4-4.5 0.9-6.8 1.2 -2.1 0.2-4.2 0-6.2 0.1 -1.4 0.1-2.9 0.3-4.3 0.5 -2.8 0.4-5.2 0-6.8-2.7 -0.4-0.7-1.1-1.1-1.6-1.7 -0.8-0.9-1.7-1.8-2.4-2.9 -1.1-1.8-1.7-3.8-2.9-5.4 -1.8-2.3-2.6-4.8-2.9-7.6 -0.1-1.1-0.7-2.1-1-3.2 -0.2-0.6-0.4-1.2-0.6-1.8 -0.3-0.8-0.6-1.7-1.1-2.3 -1-1.1-1.2-2.4-0.7-3.6 1-2.4 1.2-5.2 3.3-7.1 0.1-0.1 0.2-0.3 0.2-0.4 0.7-2.5 2.5-4.4 3.7-6.6 1.8-3.6 4.4-6.8 6.2-10.3 1.5-2.9 3.4-5.3 5.6-7.7 1.4-1.5 1.1-3.2-0.6-4.3 -2.3-1.4-4.6-2.9-7-4 -2.4-1.1-4-3.1-6.1-4.5 -0.3-0.2-0.3-0.7-0.4-1.1 -0.5-1.1-0.6-2.6-1.5-3.2 -2.4-1.9-3-5-5.2-7 -1.1 0.1-1 0.8-0.9 1.5 0.1 1.2 0.3 2.4 0.4 3.6 0.1 1.2-0.4 2.2-1.7 2.6 -0.7 0.2-1.3 0.7-1.9 1 -1.5 0.7-2.7 1.6-3.2 3.3 -0.3 1-1.2 1.8-1.9 2.7 -1.4 2.1-3.6 3.6-4 6.4 0 0.2-0.2 0.4-0.3 0.6 -1.8 2.3-3.6 4.7-5.5 6.9 -0.6 0.7-0.9 1.4-1 2.3 -0.1 0.9-0.4 1.9-0.9 2.7 -1.4 2.3-3 4.5-4.5 6.8 -0.8 1.3-1.8 2.4-1.8 4.1 0 0.4-0.1 0.8-0.3 1.1 -1.2 1.6-2.8 3-3.2 5.1 -0.2 1-0.9 2-1.3 3 -0.4 0.9-0.8 1.9-1.3 2.8 -0.6 1-1.6 1.1-2.7 1.1 -2.8 0-3.1 0.4-3.1 3.2 0 2 0.3 4-1 5.8 -0.2 0.3-0.2 0.9-0.2 1.4 0.2 1.2-0.1 2.1-1.2 2.9 -0.5 0.4-0.6 1.2-1 1.9 -1 2-2 3.9-3 5.9 -0.4 0.8-0.6 1.8-0.7 2.7 -0.3 2.1-1.3 3.2-3.4 3.2s-4.1-0.2-6-1.4c-1.3-0.8-2.7-1.2-4.1-1.9 -0.5-0.2-1-0.6-1.3-1 -1.3-2.1-2.9-4-2.6-6.7 0.2-1.8 0-3.7 0-5.5 0-1.7 0.1-3.2 1.3-4.7 0.8-1 1.1-2.4 1.4-3.7 0.7-2.6 1.6-5.2 1.7-8.1 0-3.6 0.3-7.3 1.4-10.8 0.6-1.9 0.8-4 1.7-5.9 1.4-2.8 2.1-6 4-8.6 0.5-0.7 0.6-1.8 1.1-2.6 1.7-2.7 2.7-5.9 4.8-8.4 0.5-0.6 0.6-1.6 1-2.4 1.1-2.2 2.4-4.3 3.2-6.6 0.9-2.6 2.5-4.8 3.8-7.3 1.1-2.1 3-3.9 4.5-5.7 1.4-1.7 2.7-3.5 4.2-5.1 1.6-1.7 3.4-3.4 5.1-5 1-1 2.4-1 3.6-0.6 2.1 0.6 4.3 1.2 6.4 1.9 0.4 0.1 0.8 0.5 1.2 0.8 2.5 1.9 5.1 3.7 7.6 5.6 1.4 1.1 2.7 2.4 3.2 4.3 0.5 1.7 1.3 1.9 2.8 0.7 0.9-0.7 1.9-1.4 2.9-2 2-1 4.1-2 6.1-2.9 0.7-0.3 1.5-0.4 2.3-0.6 0.5-0.1 1-0.1 1.4-0.3 2.4-1.9 5.4-2.1 8.1-2.9 1.4-0.4 2.7-1.4 4-2 0.8-0.4 1.7-0.8 2.4-0.7 3.1 0.3 5.7-1.3 8.4-2.3 1-0.4 1.9-0.8 3-0.6 1.6 0.3 3.2 0 4.7-0.7 1-0.4 1.8-0.5 2.7 0 1.1 0.6 2.1 0.4 3.2-0.1 1.4-0.7 2.7-0.7 4.1 0.1 0.6 0.3 1.4 0.4 2 0.5 1.5 0.1 3.1 0.2 4.6 0 3.6-0.4 6.6 1 9.6 2.6 1 0.5 2.1 0.6 3.1 1.1 2.3 1.2 4.1 2.9 5.8 4.8 1.4 1.6 3.1 3 5.3 3.9 1.9 0.8 3.6 2.3 3.6 4.8 0 0.7 0.5 1.5 0.9 2 0.9 1 1.2 2.1 0.8 3.3 -0.5 1.6-1 3.2-1.7 4.7 -0.7 1.4-1.5 2.8-2.6 3.8 -1.1 1.1-2.8 1.2-4.3 0.8 -1.5-0.4-2.7-0.4-4 0.6 -0.5 0.4-1.5 0.5-2.3 0.5 -1.5 0-2.4 0.5-2.9 2 -0.1 0.5-0.3 1-0.6 1.3 -3 2-5.6 4.8-9.4 5.3 -0.9 0.1-1.5 0.5-2.1 1.3 -1.3 1.9-2.6 3.8-4.9 4.7 -0.4 0.2-0.8 0.7-1.1 1.2 -1.7 3-3.5 5.9-6.4 7.9 -0.2 0.1-0.4 0.3-0.4 0.6 -0.9 2.7-3.1 4.4-4.7 6.5 -1.8 2.3-3.7 4.6-5.6 6.8 -0.5 0.6-1.1 1.1-1.6 1.8 -0.4 0.5-1 1.1-1.2 1.8 -0.2 1-0.5 1.8-1.3 2.5 -0.4 0.4-0.6 1.1-0.7 1.7 -0.2 1.1 0.3 1.6 1.5 1.7 0.5 0 1 0 1.4-0.1 3-1.1 5.9-2.5 8.9-3.3 2.3-0.6 4-2.4 6.3-2.9 3.5-0.8 6.4-3 9.9-3.8 0.9-0.2 1.7-0.9 2.5-1.3 4.6-1.9 9.3-3.7 13.8-5.7 2.6-1.2 5.1-2.8 7.6-4.2 0.8-0.5 1.7-0.9 2.6-1.2 2.3-0.8 3.7-2.6 5.1-4.4 0.4-0.5 0.7-1.1 0.7-1.7 0-1.9 1.1-3.1 2.5-4.1 0.9-0.7 1.3-1.5 1.4-2.6 0.1-1.4 0.5-2.6 1.6-3.8 1-1 1-2.9 1.6-4.4 0.3-0.9 0.7-1.7 1.1-2.6 0.3-0.6 0.6-1.1 0.9-1.7 1.3-2.6 2.8-5 4.6-7.3 0.3-0.4 0.5-0.9 0.6-1.3 0-3.2 2.1-5.2 3.9-7.4 1.2-1.5 2.4-2.9 3.5-4.4 1.6-2 3.1-4 4.7-5.9 0.6-0.8 1.3-1.6 2-2.4 1.8-2.1 3.7-4.2 5.5-6.3 0.3-0.3 0.7-0.5 0.8-0.8 1.1-2.9 3.6-3.6 6.2-4 0.3 0 0.6-0.2 0.9-0.3 2.4-1.2 2.9-1.1 4.8 0.6 0.4 0.4 1.1 0.5 1.7 0.6 1.8 0.3 3.4 0.7 4.5 2.4 0.4 0.7 1.4 1.4 2.1 1.4 1.8 0 2.9 1 4.1 2.1 0.3 0.3 0.6 0.7 0.9 0.7 2.5 0.1 3.9 2 5.2 3.5 2.2 2.7 4.7 5.3 4.5 9.3 -0.1 2.3-1.1 4.1-2.3 5.9 -0.9 1.4-2.1 2.7-3.2 4.2 0.4 0.2 0.7 0.4 1.1 0.5 0.9 0.3 1.8 0.6 2.7 0.7 1.3 0.1 2.7 0 4-0.1 0.5 0 0.9-0.5 1.3-0.4 3.5 0.2 6.8-0.9 10.2-1.2 0.9-0.1 1.7-0.4 2.5-0.7 0.1 0 0.3-0.2 0.4-0.2 2.5-0.5 4.6-1.6 6.2-3.6 0.2-0.2 0.6-0.2 0.9-0.3 0.6-0.3 1.5-0.6 1.8-1.1 1.2-2.2 3.2-3.9 3.9-6.4 0.1-0.4 0.1-0.9 0.4-1.1 2-2.3 2.5-5.3 3.6-8 0.2-0.5 0.5-1 0.8-1.5 0.4-0.9 1-1.8 1.3-2.7 0.3-1.4 0.7-2.6 2-3.4 0.4-0.3 0.8-0.8 1-1.3 1-1.8 2.1-3.5 2.8-5.4 0.8-2.1 2.1-3.7 3.5-5.3 1.2-1.4 2.3-2.8 3.4-4.3 0.3-0.5 0.4-1.2 0.4-1.8 0-1.1 0.3-1.9 1.5-2.2 1-0.2 1.5-0.9 1.5-1.9 0.2-3 2.3-4.8 4.5-6.4 2-1.6 4.1-2.9 6.3-4.3 1.1-0.7 2.4-1.2 3.6-1.8 0.4-0.2 0.8-0.1 1.1-0.3 4.1-2.6 8.4-1.7 12.8-1.2 2.8 2.1 6.1 1.4 9.2 1.4 0.4 0 1.1 0.1 1.3 0.4 1.1 1.4 2.4 2.6 2.8 4.6C1501.3 83.6 1502.2 86.3 1502.9 89z"/><path d="M204.3 130.2c-2.3-1.6-4.3-3.5-7.1-4.4 -0.3-0.1-0.6-0.3-0.8-0.6 -0.9-1-2-1.2-3.2-1.2 -1.1 0-2.2-0.1-3.4 0 -0.8 0.1-1.8 0.3-2.4 0.8 -1 0.9-2.1 1.1-3.3 1 -1.3 0-2.5 0-3.7 0.7 -0.5 0.3-1.2 0.3-1.9 0.4 -1.1 0.2-2.2 0.3-3.3 0.6 -1.7 0.4-3.3 1-5 1.2 -1.8 0.2-3.7-0.2-5.3 1 -0.4 0.3-0.9 0.3-1.4 0.3 -1.9 0-3.7 0-5.1 1.5 -0.1 0.1-0.4 0.2-0.7 0.2 -1.7 0-3.2 0.7-4.9 1 -3.4 0.8-6.6 2.1-10 2.8 -2.8 0.6-5.6 1.1-8.3 2.1 -2.4 0.9-5 1.4-7.5 2 -2.1 0.5-4.2 0.9-6.2 2 -2.5 1.4-5.5 2-8.2 3.2 -1.5 0.6-2.9 1.4-4.6 1.2 -0.4 0-0.9 0-1.1 0.3 -1.7 1.9-4.4 1.2-6.3 2.5 -2.5-0.4-4.1 1.8-6.4 2.2 -2.3 0.5-4.4 2-6.7 2.8 -3.7 1.3-7.2 3-10.8 4.6 -1.6 0.7-3.4 0.8-4.7 2.2 -0.1 0.1-0.3 0.1-0.5 0.1 -3 1.2-5.9 2.4-8.9 3.6 -0.9 0.3-1.9 0.5-2.7 1 -2.1 1.2-4.1 2.4-6.1 3.7 -1.6 1.1-3.3 2-5.3 1.9 -1.5-0.1-2.5 0.8-3.6 1.6 -0.7 0.5-1.3 1.1-2.1 1.3 -1.2 0.4-1.8 1-2.1 2.3 -0.5 2.2-1.2 4.3-1.9 6.4 -0.3 0.9-0.9 1.3-1.8 1.3 0.4 3.5 0.4 6.7 0.4 9.9 0.5 0.3 1.2 0.4 1.4 0.8 0.9 1.6 2.4 2.8 3.3 4.3 1.3 2 3.2 3.1 4.9 4.5 1.4 1.1 3.4 1.3 5.1 1.8 0.3 0.1 0.6-0.1 0.9-0.1 3.9-0.8 6.1-3.8 8.4-6.5 1.3-1.5 2.2-3.4 3.7-4.7 3.3-3 6.8-5.7 10.3-8.5 0.6-0.5 1.4-0.8 2-1.3 2.7-2.4 5.8-4.1 8.8-6 2.8-1.8 5.6-3.6 8.4-5.3 3.8-2.2 7.6-4.2 11.4-6.3 0.5-0.3 1-0.6 1.5-0.7 2.7-0.3 5.1-1.3 7.2-3.2 0.6-0.6 1.5-0.8 2.3-1.2 1.9-0.8 3.8-1.5 5.7-2.2 2-0.8 3.9-1.6 5.8-2.4 1.4-0.6 2.8-1.1 4.2-1.6 2.8-1.2 5.6-2.4 8.4-3.6 3.9-1.7 8.3-2 12-4.4 0.3-0.2 0.8-0.1 1.2-0.3 2-0.6 4-1.2 5.9-1.8 1-0.3 2.1-0.7 3.1-1 0.8-0.3 1.7-0.4 2.5-0.8 1.6-0.7 3.2-0.9 4.8-0.2 0.1 1.2-0.1 2.2-1 2.9 -1.1 0.9-2.2 1.8-3.2 2.8 -2.7 2.6-5.4 5.1-7.9 8 -2.7 3.2-5 6.8-7.8 9.9 -3.4 3.7-5.4 8.4-8.4 12.3 -1.8 2.4-2.9 5.3-4.4 8 -0.2 0.3-0.4 0.7-0.6 1 -1.7 2.9-3.6 5.8-5.1 8.8 -1.3 2.6-3.2 4.9-3.6 7.9 -0.1 0.8-0.5 1.5-0.6 2.2 -0.1 0.9-0.2 1.7-1 2.3 -0.3 0.2-0.5 0.6-0.6 1 -0.9 2.4-1.7 4.9-2.6 7.3 -0.2 0.4-0.3 0.9-0.3 1.4 -0.2 4.7-0.5 9.4-0.4 14.1 0.1 5.7 0.7 7.9 3.7 12.3 1.1 1.6 1.4 3.1 1.6 4.8 0.2 1.5 0.6 3.2 1.5 4.5 2.2 3.4 4.8 6.5 8.5 8.5 1.6 0.9 3.3 1.4 5.3 0.7 1.5-0.5 2.6-1.5 3.9-2.1 2.5-1.3 5.1-2.5 7.7-3.8 2.5-1.3 5.1-2.5 7.5-4 2.9-1.8 6.1-3.3 8.1-6.3 1.5-2.2 3.6-3.8 5.9-5.1 0.9-0.5 1.8-1 2.6-1.7 2.5-2.5 4.9-5.2 7.5-7.7 1.4-1.3 3-2.6 4.8-3.4 1.8-0.8 1.9-0.6 2.2-2.6 0.1-0.8 0.5-1.7 0.8-2.5 0.2-0.6 0.7-1.1 0.8-1.7 0.8-3.8 3.4-6.8 4.9-10.3 0.9-2.2 1.6-4.4 2.1-6.7 0.4-1.7-0.7-3-1.1-4.6 -0.5-2.3-2.1-4.3-2-6.8 0-0.3-0.4-0.7-0.7-1 -2.7-3.4-5.5-6.8-8.2-10.2 -0.7-0.9-1.4-1.6-2.7-1.7 -1.7-0.2-2.1-2-2.9-3.2 -0.7-1-0.3-1.7 0.1-2.7 0.7-1.8 1.1-3.6 1.8-5.4 0.3-0.7 0.9-1.7 1.6-1.9 1.7-0.4 2.7-1.6 4-2.6 0.7-0.6 1.3-1.1 2.1-1.6 1.4-0.8 2.3-1.9 2.3-3.6 0-0.6 0.1-1.4 0.4-1.8 1-1.2 2-2.5 3.3-3.5 1.2-1 1.8-2.2 2.3-3.5 0.4-1 1-2 1.7-2.8 0.8-0.8 1-1.5 1-2.5 0-0.9 0.2-2 0.7-2.7 0.7-1.1 0.9-2.2 1-3.4 0-1.4 0-2.9 0.1-4.3C207.6 133.4 206.4 131.6 204.3 130.2zM187.4 205.5c1.1 1.9 1.2 3.7-0.1 5.6 -0.7 1-1.3 2.2-2 3.2 -0.5 0.6-1.2 1.1-1.8 1.4 -1.7 0.9-2.9 2-3.9 3.7 -0.9 1.6-2.2 3-4 4 -2.1 1.2-4 2.8-6.1 4.2 -3.2 2.1-6.4 4.1-10 5.5 -1.8 0.7-3.6 1.6-5.3 2.4 -1.3-1.2-1.3-2-0.5-3 0.4-0.5 0.6-1.1 0.9-1.6 0.7-1.5 1-3.2 2-4.5 1.5-2.1 2.2-4.3 2.3-6.9 0-1 0.7-2 1.1-3.1 0.4-1 0.6-2 1.1-2.8 1-1.9 2.3-3.6 3.3-5.5 0.7-1.2 1.5-2.5 1.9-3.8 0.6-1.8 1.4-3.4 3-4.5 0.1 0 0.1-0.1 0.2-0.1 1.9-3.2 5-2.1 7.7-2.1 0.2 0 0.3 0 0.5 0.1C181.3 199.9 185.2 201.6 187.4 205.5z"/><path d="M234.7 36.2c-1.7 1.2-4.6 1.2-6.2 0 -0.3 0-0.6 0-1 0 -0.4 2.1-2.4 2.1-3.8 2.6 -0.9 0.3-1.9 0.6-2.9 0.9 -0.5 0.2-1.1 0.2-1.6 0.4 -0.8 0.2-1.7 0.4-2.5 0.7 -1.1 0.4-2.3 0.7-3.3 1.2 -2.1 1-4.6 1.2-6.2 3.3 -0.3 0.4-0.8 0.5-1.2 0.8 -2.5 1.3-5.7 1.3-7.6 3.9 -0.3 0.4-0.8 0.8-1.2 1.1 -0.5 0.4-1 0.7-1.5 0.9 -3.1 1.4-6.4 2.3-8.9 4.8 -0.4 0.4-1 0.9-1.6 1 -3.6 0.8-6 3.1-7.9 6 -0.2 0.3-0.4 0.8-0.7 0.9 -2.4 1-4 3.2-6.2 4.5 -1.4 0.9-2.7 2.2-4.2 2.6 -2.7 0.6-4 2.8-5.6 4.6 -0.5 0.6-1 1.2-1.6 1.6 -1.4 1-2.9 2-4.3 2.9 -2.5 1.7-3.9 4.3-6.1 6.3 -0.7 0.6-1.3 1.2-1.8 1.9 -1.3 2-2.5 4-4.3 5.6 -0.5 0.4-0.7 1-1 1.6 -0.2 0.4-0.3 1-0.6 1.2 -2.1 1.5-2.9 3.9-4.1 6 -1.8 3.1-2.9 6.7-4.1 10.1 -0.3 0.9-0.3 2.1-0.1 3.1 0.1 0.5 0.7 1.1 1.2 1.3 2 0.7 4.3-0.1 5.5-1.8 0.4-0.5 1-0.9 1.5-1.3 0.7-0.5 1.5-0.9 2.2-1.4 1.6-1.3 3.1-2.7 4.8-3.9 1.5-1 3.1-2 5-2 0.7 0 1.6-0.2 2-0.6 1.3-1.4 2.8-2.4 4.5-3.1 2-0.8 4-1.5 5.9-2.3 1.6-0.7 3.1-1.4 4.7-2.1 0.8-0.3 1.6-0.6 2.4-0.9 1.8-0.6 3.7-0.9 5.5-1.7 2.9-1.2 5.7-2.8 8.6-4.1 4.5-2 9.1-4 13.4-6.5 0.3-0.2 0.7-0.4 1.1-0.5 3-0.6 5.8-1.5 8.5-2.9 0.5-0.3 1.3-0.5 1.8-0.4 2.4 0.7 4.5-0.2 6.7-1.2 0.9-0.4 1.6-1 2.5-1.4 3.4-1.3 7.1-1.6 10.4-3.2 0.6-0.3 1.4-0.2 2.1-0.2 1.6 0 3.2 0 4.8 0 0.6 0 1.3 0 1.9-0.2 2-1 3.8-2.4 6.1-2.6 0.3 0 0.5-0.4 0.7-0.6 2.4-1.7 4.4-3.9 6.5-6 1.5-1.6 2.1-3.3 2.2-5.3 0.1-1.4-0.1-2.9 0.1-4.3 0.3-2.1-0.6-3.8-1.6-5.4 -1.8-2.7-3.6-5.6-6.1-7.8 -1.8-1.6-3.1-3.8-5.1-5.3 -0.9-0.7-2-1.4-1.8-2.9C238.6 36.2 236.6 36.2 234.7 36.2z"/><path d="M564 184.2c2.3-0.1 4.6-0.2 7 0 2.1 0.2 3.8-0.6 5.3-1.8 1.2-1 2.4-1 3.7-1.1 2.8-0.3 5.6-0.9 8.4-1.4 0.1 0 0.3-0.2 0.4-0.2 1.2-0.8 2.3-0.9 3.5 0.1 1.2 0.9 2.9 1 3.8 0.1 1.4-1.3 3.2-1.4 4.8-2 0.7-0.3 1.6-0.2 2.3 0.1 1 0.4 1.7 0.3 2.7-0.1 0.8-0.4 2-0.6 2.7-0.3 1.7 0.8 2.9 0.3 4-0.9 0.7-0.8 1.6-1.2 2.6-0.8 1.7 0.6 3.3-0.2 5-0.1s3.2 0.3 4.5-1.1c0.3-0.4 1.2-0.3 1.8-0.3 1 0 2.1 0.1 3.1 0.1 0.9-0.1 2-0.1 2.8-0.5 1.7-0.9 3.4-1.3 5.3-1.3 0.9 0 1.9 0.1 2.6-0.3 2.4-1.2 5-0.9 7.5-1 0.7 0 1.6 0 2.1-0.4 1.4-1.2 3-0.7 4.6-1s3.1-1.1 4.6-1.6c0.1 0 0.2 0 0.2 0 0.6-0.2 1.2-0.3 1.8-0.5 1.2-0.3 2.3-0.6 3.5-0.8 0.9-0.2 1.9 0.1 2.6-0.3 4-1.9 8.6-0.6 12.7-2.3 2.1 0.3 3.6-0.9 5.1-2.2 1.6-1.3 3.2-2.7 5.4-2.9 0.8-0.1 1.4-0.8 2.1-1.2 -0.6-2.7-0.6-2.7 1.4-4.2 0.4-0.3 0.7-0.7 1.1-0.9 1.3-0.7 2.6-1.7 4-1.9 2.3-0.3 3.5-1.5 4.5-3.4 0.7-1.4 1.4-2.9 2.5-4 2.1-2.1 3.2-4.5 3.1-7.4 0-1-0.1-2.1 0-3.1 0.1-0.8 0.4-1.8 0.9-2.3 1.2-1.1 1.6-2.5 2.1-4 0.3-1 0.5-2.1 1-2.9 0.7-1.2 0.7-2.4 0.3-3.7 -0.2-0.6-0.3-1.5 0-2 1.4-2.5 1.2-5.7 3.3-7.8 0.1-0.1 0.1-0.5 0.2-0.7 1.1-1.6 1.9-3.7 3.5-4.8 1.7-1.2 2.6-2.9 4-4.4C724.8 100.3 725 99.6 725 99c0-1.5-0.1-3-0.3-4.5 -0.3-1.9-2.5-4-4.1-4.3 -2.9-0.4-5.2 1.1-7.5 2.6 -0.3 0.2-0.4 0.7-0.6 1 -0.5 0.8-1 1.6-1.5 2.4 -0.6 1-1.1 2.1-1.7 3.1 -1.6 3-3.5 5.5-7.2 5.8 -1.3 0.1-2.3 0.5-3.2 1.4 -0.4 0.4-1 0.8-1.6 1 -2.1 0.6-4.3 1.1-6.5 1.6 -0.5 0.1-1.2 0.3-1.5 0.6 -1.5 1.5-3.4 1.9-5.3 2.4 -0.7 0.2-1.3 0.5-2 0.7 -1.1 0.4-2.2 1-3.3 1.2 -2 0.5-4 0.8-6 1.1 -0.3 0.1-0.6 0.2-0.9 0.4 -1.7 1.5-3.8 1.4-5.9 1.4 -0.5 0-1 0-1.4 0.2 -1.7 1.2-3.6 1.1-5.5 1.1 -1.3-0.1-2.9-0.3-4 0.3 -1.8 0.9-3.6 1.7-5.5 2.1 -2.5 0.6-4.9 1.2-7.4 1.6 -1.6 0.3-3.3 0.4-4.9 1.1 -1.1 0.4-2.3 0.4-3.5 0.6 -0.7 0.1-1.5-0.1-2.1 0.2 -2.8 1.2-5.8 1.1-8.7 1.2 -0.8 0-1.6 0.2-2.3 0.4 -1.5 0.4-3 0.8-4.6 1.2 -0.9 0.2-1.9 0.3-2.8 0.5 -1.2 0.2-2.5 0.5-3.7 0.7 -1.1 0.2-2.4 0-3.2 0.6 -1.5 1-3 1.1-4.6 1.1 -1.1 0-1.9 0.3-2.9 0.8 -1.9 1-3.6 2.4-6 2.1 -4.5-0.6-8.2 2.5-12.4 3 -1.3 1.2-2.8 1.3-4.5 1.4 -1 0.1-2.1 0.2-3.1 0.6 -2.5 0.9-5.2 0.8-7.5 2.1 -0.1 0.1-0.3 0.1-0.5 0.1 -4.6 0-8.5 2.4-12.8 3.4 -2.2 0.6-4.3 1.6-6.4 2.4 -0.4 0.2-1 0.1-1.4 0.2 -1.6 0.5-3.3 0.9-4.6 1.8 -1.1 0.8-2.2 1.2-3.4 1.4 -0.8 0.1-2 0.4-2.3 1 -1 1.9-2.6 1.6-4.2 1.5 -1.9-0.2-2.7-1.4-1.9-3.2 0.9-2.3 2.1-4.5 3.2-6.7 0.3-0.7 0.6-1.4 1-2.1 1-1.8 1.3-3.7 1.3-5.7 0-0.7 0.4-1.4 0.7-2 1.3-2.4 1.6-4.6-0.3-6.8 -0.2-0.3-0.4-0.7-0.5-1.1 -0.2-3.6-3.6-5.3-5-8.2 -0.1-0.1-0.3-0.2-0.4-0.3 -1.1-0.7-2.4-1.3-3.4-2.1 -1.1-1-2.4-1.2-3.8-1.2 -1.3 0-2.4-0.3-3.7-0.7 -2.6-0.9-5.4-0.8-6.9 1.5 -1.1 1.7-2.1 3.6-3.3 5.3 -1.3 1.9-2.5 3.9-4.1 5.5 -2 2-3.8 4.2-5.3 6.7 -0.5 0.9-1.2 1.6-1.8 2.5 -0.8 1.1-1.5 2.2-1.6 3.7 0 0.8-0.4 1.7-0.7 2.5 -0.7 2.1-1.5 4.1-2.2 6.2 -0.1 0.4-0.3 0.7-0.4 1.1 -0.8 2-1.7 3.9-2.4 5.9 -0.7 1.9-1.1 4-1.6 6 -0.1 0.4-0.4 0.7-0.6 1 -0.3 0.6-0.6 1.3-0.9 1.9 -1 1.8-1.3 3.7-3 5.3 -1.4 1.2-2.5 2.9-3.1 5 -0.6 2.3-1.2 4.6-2.5 6.6 -0.8 1.3-1.3 2.9-2.3 3.8 -2.4 2-3.4 4.6-3.4 7.6 0 5.7-0.4 11.3 0.2 17 0.1 1.2 0.3 2.4 0.7 3.4 0.5 1.2 0.6 2.1-0.3 3.1 -0.8 1-0.9 2.3-0.4 3.2 1.5 2.6 0.7 5.7 2.4 8.2 0.7 1 1.2 2.2 1.6 3.4 0.7 1.7 1.9 2.5 3.7 2.5 1.6 0 3.2 0 4.8-0.1 1.6-0.1 3.2 0.1 4.6 1.1 0.5 0.4 1.2 0.7 1.7 0.6 2.9-0.1 6 0.9 8.5-1.4 0.1-0.1 0.3-0.2 0.4-0.2 2.7-0.3 4.9-1.7 7-3.3 2.3-1.6 4.2-3.5 4.1-6.6 0-0.5 0.2-0.9 0.2-1.4 0.4-2.3 0.9-4.7 1.3-7 0.1-0.5 0.1-1 0.3-1.4 1.1-1.3 2-2.7 3.3-3.7 2.8-2.2 5.7-4.4 7.6-7.4 0.8-1.4 1.7-1.4 3-1.2 0.7 0.1 1.6 0.2 2.3-0.1 2.7-1.1 5.3-2.4 8-3.6 0.9-0.4 2.1-0.5 2.9-1 1.8-1.3 3.9-2.1 6-2.8 1.3-0.4 2.6-1 3.3-2.5 0.5-1.1 1.3-2.2 2.7-2.1 0.2 0.2 0.4 0.3 0.5 0.4 0.9 1.8 1.7 1.9 2.9 0.3 0.4-0.6 0.7-1.3 1.2-1.8s1.2-1 1.9-1.1c0.2 0 0.7 1 1 1.6C560 184.6 562 184.3 564 184.2z"/><path d="M292.5 125.2c-0.1 1.6-0.9 2.8-2.1 3.8 -2.6 2.2-4.4 4.7-5 8.1 -0.1 0.7-0.7 1.4-1.3 1.8 -1.7 1.1-2.2 2.8-2.8 4.6 -0.3 1-0.7 2.1-0.9 3.2 -0.3 1.3-0.8 2.6-0.8 3.9 0 1.7-0.4 3.2-1.9 4.1 -0.7 0.5-1 1.1-1.2 1.9 -0.5 1.4-1.1 2.8-1.9 4 -1.2 1.7-2.4 3.5-2.1 5.6 0.4 3.5-1 6.4-2.4 9.3 -1.3 2.7-3.3 5.1-2.9 8.3 0 0.4-0.3 0.7-0.4 1.1 -0.8 2.2-1.7 4.4-2.5 6.6 -0.4 1.1-0.7 2.3-0.7 3.5 0 1.8-0.4 3.3-1.6 4.6 -0.9 0.9-1.5 2-1.5 3.4 0 0.4-0.1 0.8-0.3 1.1 -1.4 2-0.2 5-2.4 6.7 -0.1 0.1 0 0.3-0.1 0.5 -0.6 1.9-1.4 3.8-2.7 5.4 -2.7 3.5-6.5 5.6-9.8 8.3 -3.4 2.8-7 5.3-10.5 7.9 -2.5 1.9-4.9 3.8-7.3 5.7 -2 1.6-4 3.1-6 4.7 -1.9 1.5-3.7 2.9-5.6 4.4 -0.7 0.5-1.5 0.9-2.2 1.4 -2.7 1.9-5.3 3.8-8 5.6 -3 2-6 4-9.1 6 -1.7 1.1-3.5 2.1-5.3 3.2 -1.8 1-3.5 2-5.3 3.1 -2 1.2-4 2.6-6.1 3.8 -0.9 0.5-2 0.5-2.9 1 -1.5 0.9-3 1.9-4.3 3 -2.6 2.2-5.6 3.6-8.5 5.1 -0.7 0.4-1.5 0.5-2.2 0.8 -2.1 0.9-4.2 1.8-6.2 2.7 -0.4 0.2-0.8 0.5-1.2 0.7 -1.8 0.7-3.6 1.9-5.5 2 -2 0.2-3.8 0.8-5.3 1.9 -1.4 1-2.7 1.3-4.2 1.2 -1.4-0.1-2.7 0.2-3.8 1.1 -1.5 1.2-3.2 2.1-5.3 1.9 -0.4 0-0.7 0.3-1.1 0.4 -1.4 0.3-2.7 0.8-4.1 0.9 -1.9 0.2-3.8 0.2-5.7 0.1 -2.1-0.1-4.1-0.3-6.1-0.6 -1.5-0.2-3-0.5-4.4-0.9 -0.5-0.1-1.1-0.2-1.5-0.5 -2.3-1.6-5-1.8-7.6-2.4 -2-0.4-3.7 0.7-5.6 1.1 -2.2 0.5-3.3 2.4-4.6 4 -0.4 0.4-0.4 1.6 0 2.1 1.9 2.6 2.5 5.8 3.8 8.7 0 0.1 0.1 0.2 0.1 0.2 0.9 1.7 2 3.3 1.8 5.3 0 0.4 0.3 0.9 0.5 1.3 0.8 1 1.6 2 2.5 2.9 2.1 2.1 4.5 3.8 7.8 3.6 2.5-0.2 5 0 7.4-0.1 1.2-0.1 2.4-0.3 3.4-0.8 1.4-0.6 2.7-0.7 4.2 0 0.5 0.2 1.2 0.5 1.8 0.3 1-0.3 2.1-0.7 2.8-1.3 1.1-1 2.4-1.1 3.7-1.3 2.9-0.4 5.8-0.9 8.7-1.4 0.2 0 0.4-0.2 0.6-0.3 2-1.2 3.9-2.4 6.4-2.4 0.4 0 0.8-0.4 1.2-0.6 0.7-0.4 1.3-0.9 2-1.3 1.8-1.2 4.1-0.9 5.8-2.6 0.8-0.8 2.1-1.1 3.1-1.6 1.9-0.9 3.7-1.7 5.5-2.7 1.6-0.9 3-2 4.6-3 2.3-1.4 5-2.4 6.9-4.2 2-1.8 4.4-2.8 6.4-4.4 2-1.5 4.7-2 6.3-4.1 3.9-1.6 6.5-5 9.9-7.4 2.5-1.8 4.8-3.9 7.3-5.8 1.1-0.8 2.2-1.6 3.4-2.3 2.3-1.4 4.8-2.5 7-4 1.8-1.2 3.6-2.5 4.8-4.3 1.2-1.8 2.8-2.8 4.3-4 0.9-0.7 1.8-1.2 2.7-1.9 2.2-1.8 4.4-3.6 6.6-5.4 1.9-1.5 3.8-2.9 5.6-4.4 3.3-2.7 6.5-5.6 9.9-8.2 0.5-0.4 1.6-0.6 2.2-0.4 0.5 0.3 0.7 1.3 0.8 2 0.4 2.8-1.4 5-2.2 7.4C248.7 250 247.6 252 246.8 254c-0.5 1.1-1.1 2.2-1.3 3.3 -0.7 3.8-2.4 7.2-3.6 10.8 -0.4 1.3-0.6 2.9-1.4 4 -1.1 1.5-1.3 3.1-1.1 4.8 0.3 2.3-0.7 4.2-1.9 6 -0.9 1.3-1.2 2.5-1.2 4 0 1.3-0.4 2.5-0.4 3.8 0 2.4-1.6 4.5-0.9 7 0.1 0.4-0.2 0.9-0.5 1.3 -1.6 2.5-2.7 5.2-2.3 8.3 0.1 0.9 0.2 1.9 0.1 2.9 -0.1 0.8-0.2 1.7-0.6 2.2 -0.9 0.9-0.8 2-0.9 3.1 -0.1 1.2-0.2 2.4-0.7 3.4 -0.6 1-0.9 2-0.8 3.2 0.1 1.8 0.1 3.5 0.4 5.3 0.2 1.8-0.1 3.5-0.8 5.1 -0.4 0.9-0.7 1.9-0.8 2.9 -0.1 4.5-0.1 9 0 13.4 0 2.3-0.1 4.6 0.9 6.8 0.4 0.8 0.3 1.9 0.4 2.8 0.1 1.5-0.1 3.1 0.1 4.6 0.1 1.4 0.5 2.8 0.9 4.1 0.6 1.9 1.3 3.7 2.2 5.4 0.8 1.6 1.3 3.8 3.8 3.8 1.5 0 2 0.7 2.3 2.2 0.3 1.9 1.1 2.4 3 2.4 1.4 0 2.5 0.4 3.5 1.3 0.7 0.7 1.6 1 2.6 0.8 1.8-0.5 3.5-1.1 4.3-3.1 0.4-0.9 1.2-1.7 1.8-2.5 0.7-1 1.7-2 2-3.2 0.4-1.8 0.9-3.5 1.9-5.1 0.6-0.9 0.6-1.8-0.1-2.6 -1-1.1-1-2.4-0.6-3.8 0.4-1.4 0.6-2.8 0.6-4.2 0-1.5-0.2-3-0.4-4.5 -0.2-1.2-0.6-2.4-0.8-3.7 -0.1-0.8-0.4-1.9-0.1-2.5 0.8-1.4 0.7-2.9 0.7-4.4 0.1-2.6 0-5.2 0.6-7.6 0.4-1.7 0.7-3.4 0.7-5.2 0-2 0-4 0-6 0-0.7 0.1-1.6 0.6-2 1.9-1.9 2.4-4.2 2.4-6.7 0-0.7 0-1.5 0.3-2.1 1-1.7 1-3.6 1.2-5.5 0.3-2.2 0.8-4.4 1.5-6.4 0.8-2.5 2-4.8 1.8-7.5 0-0.1 0-0.2 0.1-0.2 1.5-1.4 1-3.2 1-5 0-0.8 0-1.6 0.3-2.3 0.8-1.8 1.8-3.5 2.5-5.3s1.2-3.8 1.7-5.7c0.4-1.5 0.5-3 0.8-4.4 0.6-2.4 1.6-4.8 1.7-7.4 0-0.9 0-2.1 0.6-2.7 1.7-2 2.1-4.4 2.5-6.8 0.5-2.4 1.3-4.7 2-7.1 0.3-1.1 0.9-2.3 0.9-3.4 0-1.6 0.5-2.7 1.4-3.9 1-1.3 2-2.6 2.4-4.1 0.7-2.3 0.6-4.7 2-6.8 0.2-0.3 0-0.8 0.1-1.2 0.5-2.8 1-5.6 1.6-8.4 0.1-0.3 0.3-0.6 0.4-0.9 0.4-0.8 0.7-1.6 1.1-2.4 1.1-2.4 2-5 4.7-6.3 0.4-0.2 0.8-0.7 0.8-1.1 0.2-1.3 1-2.1 1.8-3 0.9-0.9 1.3-1.9 1.3-3.2 0-0.7 0.2-1.8 0.7-2.2 1.8-1.3 1.8-3.1 1.9-4.9 0.2-3.1 1.6-5.6 3.4-8 0.7-0.9 1.4-1.9 2.1-2.8 0.3-0.4 0.4-1 0.7-1.2 1.3-0.9 1.3-2.2 1.4-3.6 0.3-3.2 1.6-5.9 4.5-7.4 1.1-0.6 1.6-1.2 1.4-2.3 -0.2-1.4 0.2-2.6 0.8-3.9 1.1-2.1 2.9-3.3 4.6-4.8 0.8-0.7 1.7-1.5 2.3-2.4 0.8-1.2 1.5-2.4 2.9-3.1 0.7-0.3 1.1-1.3 1.4-2.1 0.7-1.9 1.8-3.5 3.5-4.8s2.6-3.6 4.9-4.3c0.1 0 0.1-0.1 0.2-0.2 0.8-1.3 1.9-1.8 3.3-2 1.2-0.2 2-0.9 2.4-2.3 0.8-2.5 1.6-5.2 3-7.4 1.3-2 2.6-3.8 3.3-6.1 0.7-2.1 1.5-4 0.9-6.2 -0.2-0.8-0.2-1.7-0.2-2.6 0-2.3 0-4.6 0.2-7 0.1-1.9-0.7-3.1-2.2-3.9 -1.4-0.7-2.9-1.2-4.3-1.9 -2.8-1.5-5.9-1.3-8.9-1.5 -2.5-0.2-5.1 0.2-7.6 0.3 -1.4 0-2.6 0.1-3.8 1.1 -0.5 0.4-1.5 0.6-2.2 0.5 -3.2-0.3-5 1.6-6.5 4 -0.3 0.5-1 1.1-1.6 1.3 -1.3 0.3-2 0.9-2.8 1.9 -1 1.4-2.1 3-4.3 2.9 -1.4 0-2.3 0.7-2.8 2.1 -0.3 0.9-0.9 1.7-1.7 2.3 -1.7 1.2-3.6 2.2-5.7 3.5C292.6 124.1 292.5 124.6 292.5 125.2z"/><path d="M1051.4 105.7c0.2-0.2 0.2-0.6 0.2-0.9 0.4-2.7 0.5-5.5 1.1-8.2 0.5-2.2-0.1-4.3-0.2-6.4 0-0.4-0.3-0.7-0.5-1 -0.8-1.1-1.6-2.1-2.3-3.3 -1.2-2.1-2.6-3.6-5.3-3 -0.5 0.1-1 0.1-1.4 0 -2.2-0.4-3.9 0.3-5.4 1.9 -0.7 0.8-1.5 1.2-2.5 1.1 -1.4-0.2-2.5 0.6-3.3 1.6 -0.6 0.8-1.3 1.2-2.2 1.6 -2.2 1.1-4.5 2.4-5.2 5 -0.5 1.9-1.4 3.2-3.1 4 -1.3 0.6-2.1 1.6-2.5 3 -0.3 1.1-0.5 2.2-1.1 3.1 -0.9 1.3-2.1 2.4-3.1 3.6 -2.8 3.5-5.7 6.8-8.3 10.4 -2.2 3.2-4 6.8-5.9 10.3 -0.1 0.1-0.1 0.3-0.1 0.5 -0.2 3.4-3.7 4.7-4.9 7.4 -0.1 0.1-0.3 0.2-0.4 0.2 -2.2 0.6-4.2 2-6.6 1.8 -0.5 0-1.1 0-1.7 0.2 -3.7 1.1-7.4 2.4-11.4 2.4 -0.5 0-1 0.4-1.4 0.7 -1 0.9-2.1 1.1-3.3 1.1 -1.3 0-2.6 0.1-3.8 0 -2.5-0.2-4.7 0.4-6.6 2.2 -0.9 0.9-2 0.9-3.2 0.7 -1.2-0.2-1.6-1.1-0.9-2.1 0.8-1.1 1.4-2.3 1.5-3.7 0.1-0.6 0.6-1.1 0.9-1.7 0.3-0.6 0.6-1.3 0.9-1.9 0.5-1 0.9-2 1.4-3 0.3-0.6 0.8-1.2 1.1-1.7 -0.8-1.7-1.5-3.2-2.4-4.6 -0.9-1.4-1.9-2.8-3-4 -1.9-1.9-3.2-4.4-5.7-5.7 -0.8-0.4-1.8-0.7-2.5-1.3 -1.8-1.6-4.1-2-6.3-2.3 -3.3-0.4-6.7-0.5-9.2 1.3 -0.8 1.3-1.3 2.2-1.8 3.1 -0.2 0.5-0.4 1-0.5 1.6 -0.2 0.7-0.2 1.5-0.5 2.1 -1.4 2.7-2.2 5.6-3.9 8.1 -1.9 2.8-2.6 6.3-5.5 8.5 -0.3 0.2-0.4 0.8-0.6 1.3 -1 3.6-2.1 7.1-4 10.4 -0.7 1.2-1.7 2.3-1.1 3.9 0.1 0.3-0.2 0.9-0.5 1.3 -1.5 2.5-2.6 5-2.7 8 0 0.5-0.2 1.2-0.5 1.6 -1.4 1.3-1.2 2.9-1.2 4.5 0 2.2 0 4.5 0 6.7 0 0.5 0 1.2 0.2 1.4 1.6 1.1 1.6 2.8 2.1 4.4 0.7 2.5 2.4 4.7 2 7.5 0 0.3 0.1 0.7 0.3 0.9 1 1.3 2 2.6 3.1 3.9 0.3 0.4 0.8 0.7 0.9 1.1 0.5 2.1 2 2.7 3.6 2.5 1.5 1.8 2.6 3.6 4.1 4.9 1.2 0.9 2.2 1.7 2.6 3.2 0.5 1.5 1.1 1.8 2.4 1 1-0.6 1.9-0.9 2.9-0.6 1.7 0.5 2.9-0.1 4.2-1.1 2.4-2 4.8-3.9 7.4-5.7 1-0.7 1.6-1.2 1.5-2.4 -0.1-1.5 0.5-2.4 1.9-3 2-0.9 3.1-2.7 4-4.5 0.7-1.3 1.5-2.2 2.6-3 1.3-1 2.5-2.1 3.7-3.3 1-0.9 1.7-2.1 2.7-3 1.4-1.3 2.9-2.5 4.3-3.7 1.5-1.3 3.1-2.2 5.1-2.3 1 0 1.7-0.5 2.6-1 2-1.2 4.2-2.2 6.4-3.1 0.5-0.2 1.4 0.1 2 0.4 0.3 0.2 0.3 1.2 0.1 1.5 -1.1 1.2-1 2.8-1.4 4.2 -0.4 1.8-0.9 3.6-1.6 5.2 -1.3 2.7-2.9 5.3-2.6 8.5 0 0.5-0.3 1-0.5 1.6 -0.9 2-2.6 3.6-3 5.8 -0.2 1-0.5 2.1-1.1 2.9 -1.5 2-1.9 4.3-2.3 6.6 -0.2 1.1-0.4 2.1-1.2 3 -1.1 1.2-0.9 2.2 0.2 3.5 0.4 0.5 0.8 1.2 0.9 1.8 0.2 1.7 0.2 3.4-1.2 4.7 -0.3 0.3-0.5 0.8-0.6 1.3 -0.4 2.3-0.8 4.5-1.2 6.8 -0.1 0.5-0.2 1.1-0.5 1.6 -1.2 2.1-1.1 4.5-1 6.8 0 0.6 0.4 1.4 0.9 1.9 0.9 1 1 2.2 0.4 3.1 -1.1 1.5-1.3 3-1.3 4.7 0 1.2-0.3 2.3-1.6 2.7 -1.9 0.5-2.8 1.7-2.8 3.7 0 0.5-0.3 0.9-0.3 1.4 -0.7 3.5-1.3 7 0 10.6 -1.7 0.8-1.8 2.2-1.4 3.8 0 0.2 0.1 0.3 0.1 0.5 0.2 1.5 0 1.8-1.5 2.1 -0.3 0.1-0.6 0-1 0.1 -1.6 0.3-2.2 0.9-2.3 2.5 -0.1 0.6 0 1.3 0 1.9 0.2 4.6 0.4 9.3 0.5 13.9 0 2.1 0.1 4.1 1.3 6 0.3 0.4 0.4 1 0.5 1.6 0.4 1.4 0.8 2.9 1.3 4.3 0.1 0.4 0.6 0.8 1 1 2.7 1.1 4.2 3.4 6 5.4 1.1 1.3 2.1 2.8 3.2 4.2 0.7 0.8 1.5 1.5 2.5 2.4 2.4 0.2 2.6 0 2.6-2.6 0-1.4 0.2-2.6 1.5-3.5 0.8-0.6 1.1-1.7 1.6-2.6 0.4-0.7 0.7-1.5 1.3-1.9 1.2-0.9 1.7-2.1 1.5-3.5 -0.2-1.9 0.3-3.7 1.1-5.6 0.8-1.9 1.8-3.9 1.8-5.9 -0.1-3.5 1.1-6.7 1.7-10.1 0.6-4.2 0.9-8.2-0.1-12.4 -0.1-0.6-0.1-1.7 0.2-2 1.8-1.3 1.4-3.1 1.5-4.8 0-0.8 0.1-1.6 0.3-2.3 0.4-2.1 0.9-4.2 1.3-6.3 0.5-2.5 0.8-5 1.5-7.4 0.4-1.2 0.7-2.4 0.8-3.7 0.1-0.7 0.5-1.5 0.9-2.1 1-2 2.5-3.8 1.8-6.4 -0.2-0.7 0.5-1.6 0.7-2.4 0.3-0.8 0.8-1.6 0.9-2.4 0.6-3.1 1.1-6.2 1.7-9.3 0.1-0.4 0.3-0.7 0.5-1.1 0.8-2 1.7-3.9 2.3-6 0.6-2 0.8-4 1.3-6 0.1-0.5 0.3-0.9 0.5-1.3 1.7-2.5 1.9-5.4 2.3-8.3 0.1-1.1 0.2-2.1 1.2-2.7 1.4-0.8 1.9-2.1 1.7-3.7 -0.2-1.6 0.2-3.1 1.3-4.5 0.8-1.1 1.5-2.6 1.5-3.9 0.1-2.3 0.4-4.3 1.7-6.3 0.8-1.2 1.2-2.7 1.8-4.1 0.9-1.9 1.9-3.6 2.6-5.5 1.2-3.2 2.8-6 5.1-8.4 0.3-0.3 0.6-0.7 0.8-1.1 1-2.1 2-4.2 3-6.3 0.4-0.8 0.9-1.6 1-2.4 0.1-1.1 0.7-1.8 1.5-2.3 1.1-0.7 1.6-1.7 1.5-3 -0.1-1.7 0.6-2.8 2.1-3.8 1.9-1.2 3.2-2.9 3.8-5.1 0.5-1.7 1.2-3.1 2.9-3.8 1-0.4 1-1.4 0.1-2.1 -0.5-0.3-1-0.6-1.9-1.2 1.4-0.8 2.4-1.4 3.4-2 0.5-0.3 1.3-0.6 1.3-0.9 0.2-2.1 1.6-2.3 3.2-2.4 0.9-0.1 1.2-0.7 0.9-1.6 -0.1-0.3-0.3-0.6-0.3-0.9 -0.3-1.4 0.3-2.2 1.7-2.2 0.5 0 0.9 0.1 1.5 0.2C1048.6 111.5 1049.2 108.1 1051.4 105.7z"/><path d="M978.1 197.2c-0.1 0.3-0.4 0.6-0.5 0.9 -0.2-0.2-0.5-0.4-0.5-0.7 0-0.2 0.2-0.5 0.4-0.9C977.8 196.8 978.1 197 978.1 197.2z"/><path d="M427.6 208.4c1-1.7 2.1-3.3 2.3-5.4 0.1-1.1 1-2.4 1.9-3.2 1.7-1.7 3-3.7 3.6-5.8 0.9-3.3 2.8-6.1 4.7-8.8 2-2.8 2.8-6.1 4.4-9.1 1.2-2.1 1.5-4.7 3.7-6.2 0.9-0.6 1.2-2 1.7-3.1 0.2-0.5 0.2-1.2 0.5-1.6 1.3-1.4 1.3-3 1.3-4.7 0-0.6 0.2-1.3 0.3-1.9 0.2-1.6 0.5-3.1 0.7-4.7 0.4-4.4-0.6-8.7-1.1-13.1 -0.2-2.3-3-5.2-5.3-5.6 -2.6-0.5-5.2-0.8-7.7-1.3 -2.5-0.4-5.1 0.1-7.5-1.4 -0.5-0.3-1.2-0.2-1.9-0.2 -3.8 0-7.5-0.1-11.3 0 -1.2 0-2.5 0.4-3.7 0.8 -1.3 0.5-2.6 0.9-3.7 0.1 -2-1.4-3.6-0.5-5.3 0.6 -0.4 0.2-0.8 0.5-1.1 0.7 -1.4-0.5-1.9-1.3-1.8-2.6 0.1-1 0.1-2.1 0.1-3.1s-0.4-1.7-1.1-2.5c-1.9-2.1-4.5-3-6.8-4.4 -2.3-1.4-4.9-1.3-7.4-0.4 -1.3 0.5-2.5 0.6-3.7-0.1 -0.8-0.5-1.4-0.3-2.3 0 -4.3 1.4-7.8 4.2-11.2 7 -1.2 1-2.5 1.8-3.4 3 -1.7 2.4-3.1 5-4.6 7.5 -2.1 3.5-4.2 6.9-6.2 10.4 -0.6 0.9-1.1 1.9-1.7 2.8 -1.1 1.8-2.4 3.6-3.4 5.4 -1.6 2.9-2.7 6.1-4.7 8.7 -2.3 2.9-3 6.6-5.2 9.6 -1.3 1.8-1.7 4.2-2.9 6.2 -0.8 1.4-1.1 3.1-1.7 4.6 -0.3 0.9-0.7 1.7-1 2.6 -0.2 0.6-0.6 1.2-0.7 1.8 -0.5 2.4-0.9 4.8-1.4 7.2 -0.1 0.6-0.5 1.1-0.7 1.7 -0.3 1.2-0.7 2.4-0.9 3.7 -0.1 1.1 0.5 1.6 1.6 1.6 0.9 0 1.7-0.1 2.6-0.2 0.9 1.4 0.6 2.7-0.3 3.8 -0.7 0.9-0.7 1.9-0.9 2.9 -0.5 2.6-0.9 5.4-1.9 7.8 -0.7 1.8-0.9 3.2-0.2 5 0.2 0.5 0.3 1.3 0 1.7 -1.6 2.4-1.2 4.7 0.1 6.9 0.5 0.9 0.6 1.7 0.6 2.7 0 1.3 0.2 2.7 0.5 4 0.6 2.4 2.9 4.2 2.4 7.1 0 0.1 0.1 0.3 0.2 0.4 1.1 1.9 2.2 3.9 3.5 5.6 0.9 1.2 2.3 2 3.2 3.2 1.1 1.5 2.7 1.9 4.2 2.7 1.4 0.7 2.8 1.8 4.6 0.9 0.6-0.3 1.5 0.2 2.3 0.1 1.3-0.1 2.6-0.5 4-0.6 1.8-0.2 3.6-0.4 5.5-0.6 1.1-0.1 1.8-0.7 1.9-1.8 0.1-1.6 1.1-2.1 2.6-2.2 0.5 0 0.9-0.2 1.2-0.3 0.4-0.9 0.5-2 1-2.5 1.1-0.9 1-1.9 1-3 0-2.6-0.1-5.3-0.1-7.9 0-0.9 0-1.8 0.4-2.6 0.8-1.5 0.8-3.1 0.8-4.7 0-1.2-0.3-2.7 0.3-3.5 1.3-1.8 1.3-3.9 2.1-5.8 0.8-1.9 1.1-3.9 2.1-5.8 1-1.8 1.9-3.8 1.6-6.1 -0.1-0.6 0.4-1.3 0.8-2 0.9-1.8 1.7-3.7 3.1-5.3 0.4-0.4 0.3-1.4 0.3-2 -0.1-1.2 0.1-2.1 1.3-2.9 1.2-0.8 1.7-2 1.7-3.5 0-0.7 0.4-1.5 0.9-2.1 1.8-2 3.6-4 4.9-6.4 0.2-0.4 0.6-0.8 0.9-1.1 1.7-2 4.2-3.1 5.5-5.5 0.1-0.3 0.5-0.4 0.8-0.6 0.9-0.6 1.6-1.2 2.1-2.2 0.6-1.2 1.8-1.7 3.2-1.7 0.7 0 1.7 0 2-0.4 1.1-1.3 2.6-2 3.9-2.9 1.9-1.5 4.1-2 6.3-2.4 1.9-0.4 3.5-0.9 5.1-1.9 0.6-0.4 1.3-0.7 2-1.1 0.9 1.8 1.1 2.9 0.3 4.8 -1 2.6-0.7 5.6-2.5 7.9 -0.2 0.3-0.2 0.8-0.2 1.2 0.2 2.6-1.1 4.8-1.9 7.1 -1.3 3.9-3.1 7.6-4.7 11.3 -0.7 1.7-1.3 3.5-2.2 5 -1.2 1.9-1.4 4.2-2.7 6 -0.9 1.2-1.3 2.7-1.7 4.1 -0.6 1.9-1 3.8-1.5 5.8 -0.1 0.4-0.3 0.9-0.6 1 -1.9 0.9-2.5 2.5-2.7 4.5 -0.1 0.5-0.5 1-0.9 1.4 -2.2 2.9-4.5 5.7-6.7 8.6 -0.9 1.2-2.2 2.2-2.2 3.8 0 3.5-0.1 7 0 10.6 0 0.7 0.5 1.5 1.1 2 1.5 1.5 3.6 1.2 5.5 1.2 1.1 0 1.9-0.4 2.6-1.3 0.6-0.8 1.5-1.5 2.4-1.7 1.3-0.3 2.4-0.9 3.2-1.9 1.6-1.9 3.2-3.9 4.7-6 0.5-0.7 0.8-1.6 0.9-2.4 0.2-1.3 0.9-2.2 2.1-2.7 0.6-0.3 1.4-0.5 1.6-1 0.6-1.3 1.6-2.1 2.6-3.1 1.1-1.1 2.4-2.2 3.2-3.5 1.3-2 2.8-3.7 4.9-4.7 0.7-0.3 1.4-0.9 1.8-1.5 1.4-2 3.2-3.7 4.4-5.9 1.3-2.2 3.3-4 5.1-5.9 1-1.1 2-2 2.1-3.6 0-0.5 0.3-1.1 0.6-1.5 1.6-2.8 3.8-5 6.1-7.3 1.2-1.2 2.3-2.7 3.2-4.2 0.3-0.5 0.3-1.7-0.1-2.2 -0.5-0.7-1.4-0.4-2.1 0.1 -1.9 1.3-4 2.4-5.7 3.9 -4.1 3.4-7.8 7.3-12.4 10 -0.2 0.1-0.4 0.3-0.5 0.5 -0.7 1.3-1.9 1.2-3.3 1.1C427.3 209.1 427.4 208.7 427.6 208.4z"/><path d="M424.4 212.1c-0.1 0-0.4-0.3-0.4-0.4 0-0.2 0.2-0.4 0.4-0.5 0.1 0 0.4 0.2 0.7 0.4C424.8 211.8 424.7 212 424.4 212.1z"/><path d="M827.1 199.7c1-0.6 2-1.2 2.9-2 0.8-0.7 1.9-1.7 3.2-1.1 1.1 0.5 2 1.2 3 1.8 0.5 0.3 1.1 0.5 1.7 0.6 1.6 0.2 3.5-0.2 4.7 0.6 2.8 1.9 6.4 2.8 8.4 6 0.1 0.2 0.3 0.4 0.5 0.4 2.8 0.2 4.3 3.3 7.2 3.4 2 1.7 4.4 2.8 6.4 4.4 1.9 1.6 3.8 2.4 6.2 2.4 1.7 0 3.4-0.2 5 0 2.3 0.3 4.5 0.6 6.9-0.1 1.2-0.3 2.7-0.3 3.5-1.1 1.5-1.5 3.5-1.7 5.3-2.4 1.1-0.5 2.1-1 3.1-1.7 1.7-1.2 1.9-2.3 1.1-4.3 -0.6-1.7-1.4-3.3-2.4-4.8 -1.3-2.1-2.3-4.3-3.4-6.5 -0.2-0.4-0.6-0.9-1-1 -1.4-0.5-2.1-1.6-3.1-2.5 -1.3-1.2-2.2-2.7-3.4-3.9 -3.5-3.5-7.3-6.8-11-10.1 -1.3-1.2-2.7-2.2-3.8-3.5 -1.7-2-3.3-4.1-4.9-6.1 -1.5-1.9-1.5-1.8 0.4-3.2 0.3-0.2 0.7-0.5 0.9-0.8 1.8-2.2 4.4-3.2 6.6-5 2.2-1.7 4.8-3 7.2-4.4 1.4-0.8 2.6-1.8 4.1-2.4 2.8-1.1 5.1-3 7.1-5 0.8-0.7 1.4-1.2 2.4-1.2 1.9 0 3.3-0.9 4.2-2.6 1.1-2.1 2.3-4.2 3.3-6.4 0.5-1.2 0.3-2.4-0.3-3.7 -1-2.1-1.9-4.3-2.3-6.5 -0.4-1.8-1.1-3.2-2.4-4.5 -0.7-0.7-1.1-1.5-1.6-2.3 -0.8-1.2-1.6-2.3-2.5-3.4 -1.1-1.3-2.2-2.5-3.4-3.7 -0.5-0.5-1-1-1.6-1.2 -2-0.7-4-1-6.1-0.6 -0.7 0.1-1.5 0.1-2.1 0 -1.1-0.3-1.9 0.1-2.4 1s-1.3 1.4-2.2 1.7c-1.2 0.4-2.7 0.5-3.5 1.4 -1.2 1.3-2.8 1.6-4 2.5 -2.5 1.7-5 3.4-7.3 5.3 -3 2.5-6.4 4.3-9.7 6.4 -2.3 1.5-4.6 2.9-6.8 4.4 -0.3 0.2-0.6 0.5-0.9 0.8 -1.4 1.6-2.8 3.2-4.3 4.7 -0.3 0.3-0.8 0.5-1.2 0.8 -1.8 1.3-3.6 2.6-5.3 4 -1.1 0.9-2.2 1.9-3.3 2.8 -3.2 2.6-6.4 5.1-9.6 7.7 -1.4 1.2-2.7 2.5-4.1 3.6 -0.5 0.4-1.2 0.6-1.8 0.6 -3.5 0.1-5.3 2.1-6.5 5.1 -0.2 0.6-0.7 1.2-1.3 1.6 -0.8 0.6-1.7 1.1-2.7 1.6 -1.1 0.5-1.7 1.3-2 2.5 -0.2 0.9-0.6 1.9-1.3 2.5 -2.1 2-3.8 4.2-5.4 6.6 -0.7 1-1.3 1.6-2.5 1.9 -0.8 0.2-1.7 0.9-2.2 1.6 -0.7 1.1-1.1 2.5-1.5 3.7 -0.3 1-0.8 1.6-1.8 1.7 -1.2 0.1-1.8 0.9-2.4 1.8 -1 1.4-1.9 2.9-3.2 4.1 -2.4 2.1-5 3.9-7.5 5.9 -0.4 0.3-1 0.6-1 1 0 1.7-0.4 3.8 0.3 5.1 1.3 2.3 1.7 4.6 1.8 7.1 0.1 1.7 0.8 3.4 1.2 5.1 2 0.7 2.2 2.8 3.3 4.2 0.2 0.2 0.6 0.3 0.8 0.5 1.8 1 3.9 1.4 5.3 3 0.5 0.5 1.6 0.7 2.4 0.7s1.3 0.3 1.8 0.9c1.3 1.6 2.8 1.8 4.5 0.5 0.8-0.6 1.6-0.8 2.6-0.8 1.6 0 3.3-0.3 4.8-0.7 0.9-0.3 1.9-0.8 2.2-2 0.1-0.4 0.5-0.8 0.8-1.2 1.1-1.4 2.1-2.8 3.2-4.2 1.2-1.6 2.2-3.3 3.6-4.8 2.2-2.3 4.5-4.3 6.8-6.5 1.3-1.3 2.8-2.3 4.4-3.1 1.3-0.7 2.4-1.4 3.8-1.1C824.7 201.7 825.8 200.5 827.1 199.7z"/><path d="M1127.7 175.5c2-1.4 3.7-3.1 5.9-4.3 2.9-1.6 5.9-2.8 8.8-4.1 1.4-0.6 2.8-1.3 4.2-1.7 2.3-0.7 4.9-0.7 6.6-2.8 0.1-0.1 0.3-0.2 0.4-0.2 3.2-0.2 5.3-2.4 7.6-4.2 1.6-1.2 3.5-2.6 4.1-4.8 0.4-1.4 0.4-2.8 0.8-4.2 0.6-2.3 0.4-4.4-0.4-6.6 -0.5-1.3-1-2.5-2.6-2.9 -0.6-0.1-1-0.7-1.5-1.1 -1.4-1-2.7-2.4-4.3-3 -1.8-0.6-3.3-1.5-4.7-2.6 -1-0.8-2-1.2-3.3-0.6 -1.3 0.6-2.3 0.2-3.5-0.7 -1.3-0.9-2.9-1.5-4.5-1.8 -1.3-0.2-2.4-0.5-3.5-1.3 -2.2-1.6-4.9-1.4-7.1 0.2 -0.7 0.5-1.7 0.7-2.6 1 -1.5 0.5-3.2 0.7-4.4 1.5 -2 1.4-3.6 3.3-5.5 4.9 -0.9 0.8-1.9 1.5-2.8 2.2 -0.9 0.7-2.3 1.3-2.7 2.2 -1 2-2.5 3.3-4.1 4.6 -1.8 1.5-3.6 2.9-5.8 3.9 -1.2 0.5-2.2 1.5-3.3 2.4 -1.1 1-2.1 2.2-3.2 3.1 -1.6 1.4-3.8 2-4.6 4.3 -0.1 0.3-0.5 0.4-0.7 0.6 -0.7 0.6-1.4 1.2-2.1 1.8 -1.5 1.1-2.6 2.8-4.1 3.9 -2.1 1.6-3.6 3.8-5.4 5.6 -1.4 1.4-2.7 3-4.3 4.1 -2.3 1.7-4.9 3-6.2 5.7 -0.1 0.3-0.5 0.4-0.7 0.7 -0.6 0.7-1.3 1.4-1.9 2.1 -0.5 0.5-0.9 1.1-1.5 1.4 -1.4 0.9-2.9 1.6-4.4 2.4 -0.9 0.5-1.3 1.3-1.1 2.4 0.5 2.2-0.1 3.2-2.1 4 -0.8 0.3-1.1 0.7-1.3 1.5 -1.4 4.5 0.4 8.5 1.9 12.5 0.7 1.7 1.4 3.3 1.3 5.2 -0.1 1.3 0.2 2.4 1.3 3.2 1 0.8 1.3 1.9 1.4 3.2 0.3 2.6 2.8 4.2 5.3 3.6 1.3-0.3 2.7-0.5 4-0.6 1.5-0.1 2.8-0.4 4-1.4 0.4-0.3 0.9-0.6 1.5-0.9 0.5 0.6 0.9 1 1.3 1.5 0.8 0.8 2.5 1.2 3.3 0.5 1.3-1.1 2.7-2.3 3.7-3.7 1-1.4 1.9-2.6 3.3-3.6 1.1-0.8 1.9-1.1 2.9 0 0.2 0.2 0.5 0.3 1.1 0.6 0.8-1.2 1.7-2.3 2.4-3.5 0.9-1.5 2.1-2 3.2-0.7 1 1.2 2.1 1.3 3.4 1.1 2.4-0.5 4.2 1.6 6.6 1.5 0.1 0 0.3 0.2 0.3 0.3 0.9 1.6 2.6 1.6 4 1.4 1.8-0.1 3.4 0.6 4.8 1.3 2.8 1.4 5.4 2.9 8.7 2.6 0.5 0 1 0.1 1.4 0.2 3.1 0.8 6.3 1.7 9.4 2.5 0.7 0.2 1.6 0 2.3-0.2 0.6-0.1 1.2-0.6 1.8-0.7 2.3-0.6 3.9-1.9 5.2-3.9 0.3-0.5 0.7-1.1 1.2-1.5 2.1-1.5 3.3-3.8 4.9-5.7 0.3-0.4 0.7-0.9 0.7-1.5 0.5-3-0.3-5.7-1.8-8.2s-3.2-4.7-4.8-7.1c-1.5-2.2-2.8-4.6-5.6-5.6 -0.4-0.1-0.7-0.7-0.8-1.1 -0.5-2-2-2.8-3.7-3.4 -1.7-0.6-2.9-2.4-4.9-2.4 -0.1 0-0.2 0-0.2 0 -2.1 0.2-3.5-0.8-4.7-2.9C1126.6 177.1 1127 176.1 1127.7 175.5z"/><path d="M539.1 276.7c0.5 2.1 0.7 4.4 1.8 6.1 1.3 2.1 3.7 3.1 6.2 3.5 1.2 0.2 2.4 0.4 3.6 0.4 1.4 0 2.9 0 4.3-0.2 2.3-0.4 4.5-1.1 6.7-1.4 2.4-0.3 4.8-0.1 6.9-1.6 0.2-0.2 0.6-0.1 0.9-0.2 2.1-0.6 4.4-0.9 6.4-1.8 3.4-1.4 6.8-2.8 10-4.8 2.6-1.6 5.2-3.3 7.7-5 2.5-1.6 4.8-3.4 7.1-5.2 1.6-1.3 3.3-2.5 4.8-3.9 1.6-1.5 3.1-3.2 4.7-4.7 0.9-0.8 1.8-0.5 1.9 0.6 0.1 2.8 0.7 5.6-1.3 8.1 -0.5 0.7-0.5 1.4 0.2 1.9 1 0.7 1.2 1.6 1.2 2.7 -0.1 4.7-0.1 9.4 0.9 14 0.1 0.4 0 0.8-0.1 1.2 -0.8 2.6 0.5 4.5 2 6.3 0.9 1.1 2.2 1.5 3.7 1.1 3.8-1 6.8-4.7 7.2-8.6 0.3-3.4 0-6.8 1.7-10 0.2-0.4 0.1-0.9 0.1-1.4 0-1.4 0-2.9 0-4.3 0-0.8 0-1.8 0.4-2.3 2-2.3 2.5-5 3-7.8 0.6-2.7 0.3-5.8 2.4-8.1 0.2-0.3 0-0.8 0.2-1.2 0.8-2 1.1-4.2 2.6-6.1 2.6-3.4 4.9-7 5.4-11.5 0.2-1.4 0.7-2.5 1.9-3.4 1.2-0.9 2.2-2.1 2.9-3.5 1.5-3 1.8-6.2 1.9-9.5 0-1-0.6-2.1-0.5-3.1 0.4-3.1-2.4-3.6-3.8-5.3 -2.3-0.1-4.5-1.2-6.9-0.6 -0.8 0.2-1.7 0.5-2.6 0.4 -2.2-0.1-3.3 1.4-3.7 3.1 -0.6 2.5-2.1 4.5-3.4 6.5 -1.3 2.1-2.2 4.1-2.7 6.5 -0.1 0.6-0.5 1.1-0.8 1.7 -1.2 2.2-2.6 4.4-3.7 6.7 -0.7 1.6-0.7 3.5-1.6 4.9 -1.5 2.3-2.5 4.9-4.3 7 -1.1 1.4-2.7 2.5-4.1 3.6 -2.1 1.7-4.3 3.3-6.4 5.1 -2.5 2.2-5.3 3.9-8.2 5.5 -1 0.6-2 1.3-3.1 1.7 -2.8 1.2-5.2 3-8.2 3.7 -1.8 0.4-3.7 1-4.6 3.1 -0.2 0.4-0.8 0.9-1.3 0.9 -3.1 0.5-6 1.3-8.9 2.6 -0.6 0.2-1.2 0.2-1.9 0.3 -0.7 0.1-1.5 0.1-2.1 0.3 -2 0.9-4 0.8-6.1 0.9 -1.4 0-2.9-0.2-4.2 0.7 -0.3 0.2-1 0.2-1.3 0 -1.2-0.9-2.6-0.8-3.9-0.7 -2.4 0.1-4.1-0.7-5.1-3 -0.7-1.6-1.8-1.9-3.6-1.4 -1.9 0.5-2.4 1.1-2.5 3 -0.1 1.1 0 2.2 0 3.4C539 274.7 538.9 275.7 539.1 276.7z"/><path d="M497.9 272.4c-0.5-3.8-0.9-7.6-3.5-10.6 -0.9-1.1-1.6-2.4-2.6-3.4 -1.2-1.1-2.6-2-4.3-3.3 0.8-0.9 1.3-1.5 1.8-2.2 0.5-0.8 1.2-1.6 1.3-2.5 0.2-2.1 0.1-4.2 0.1-6.2 0-0.6-0.4-1.2-0.8-1.7 -1.3-1.9-2.8-3.5-5-4.6 -1.9-1-3.3-1-5.1-0.2 -2.4 1.2-3.5 3.6-4.6 5.6 -1.6 2.8-3.7 5.2-5.6 7.6 -3 3.7-6.3 7.1-9.5 10.7 -1.2 1.3-2.5 2.5-3.5 4 -2.1 2.9-4.1 5.8-5.9 8.9 -1.8 3.1-2.7 6.4-1.9 10 0.2 1 0 1.7-1.1 2 -1.2 0.4-1.8 1.2-2 2.4 -0.1 0.6-0.5 1.2-0.7 1.7 -0.2 0.4-0.6 1-0.4 1.3 0.9 1.6 0 3.2-0.1 4.8 -0.1 1.3-0.3 2.9 0.2 4 1.4 3.3 1.2 6.7 1.1 10.1 0 2.6 0.2 5.1 2.8 6.6 0.5 0.3 0.8 0.8 1.2 1.1 0.7 0.4 1.4 0.8 2.1 0.9 2.5 0.1 5 0.1 7.4-0.1 1.5-0.1 2.9-0.6 4.3-1.2 2-0.7 4-1.3 6.2-1.4 0.4 0 0.8-0.4 1.2-0.7 1.6-1 3.1-2.3 4.7-3.2 2.4-1.4 4.3-3.3 6.4-5 0.7-0.6 1.5-1.2 2.4-1.4 1.7-0.4 2.5-1.4 3.1-2.9 0.9-2.2 1.8-4.5 3.3-6.3 1.6-1.9 2.5-4 3.5-6.1 0.7-1.4 1.2-3 0.8-4.6 -0.1-0.6 0-1.4 0.3-1.8 1.1-1.2 1-2.6 1-4 0-2.1-0.1-4.1 1-6C497.9 274.1 498 273.1 497.9 272.4zM483.6 285.8c-1 1.7-2.1 3.5-4 4.6 -1.3 0.8-2.2 2.2-3.2 3.4 -0.3 0.4-0.5 0.9-0.9 1.1 -2.4 1.8-4.9 3.6-7.4 5.3 -1.5 1-2.1 0.6-2.4-1.1 -0.4-2.7-0.1-5.4 1.2-7.9 0.2-0.5 0.6-1.1 0.6-1.5 -0.3-2.4 1-4.5 1.4-6.8 0.1-0.3 0.2-0.6 0.3-0.9 1.7-3 3.7-5.9 5.2-9.1 0.8-1.6 1.9-2.9 2.8-4.4 1.2-1.9 3.6-1.9 4.9-0.1 2.2 3.1 3.4 6.4 3.2 10.6C485.8 281.3 484.7 283.7 483.6 285.8z"/><path d="M556.5 254.3c0 0.2 0.2 0.4 0.3 0.6 0.5 0.9 1 1.8 1.4 2.7 1 2.3 3 3.6 5 3.2 3-0.5 5.9-0.9 8.4-3 1.4-1.2 3-2 4.3-3.2 1.3-1.3 3-2.8 3.4-4.5 0.6-2.3 2.1-3.4 3.5-4.8 3.1-3.3 5.6-6.9 5.5-11.7 0-1.1 0-2.2 0-3.4 0-1.2 0.3-2.6-0.2-3.5 -0.8-1.6 0.3-2.8 0.2-4.1 -0.1-1.4-1.9-2.2-1.6-3.9 0.1-0.8-0.2-1.6-0.3-2.4 -0.3-1.7-1.2-2.9-3-3.2 -1.1-0.2-2.2-0.5-3.1-1.1 -2.7-1.7-6.3-1.7-8.5 0.4 -0.5 0.5-0.7 1.4-1.2 2 -0.8 1.3-1.8 2.4-2.6 3.7 -0.9 1.5-1.8 3-2.7 4.5 -1.2 2-2.4 3.9-3.5 5.9 -1.5 3-2.8 6.2-4.4 9.2 -1.5 2.6-2.5 5.3-2.5 8.4C555.5 248.9 556 251.6 556.5 254.3z"/><path d="M580.2 233.1c0 1.8-0.4 3.4-1.5 5.1 -2.3 3.5-5.3 6-8.6 8.4 -0.4 0.3-0.9 0.6-1.5 0.8 -1.5 0.4-2.5-0.4-2.2-1.8 0.3-1.3 1-2.6 1.7-3.9 0.6-1.1 1.6-2 2.3-3 0.8-1.1 1.6-2.4 2.5-3.5 1.4-1.8 3-3.5 4.6-5.4C579.3 230.3 580.2 231.4 580.2 233.1z"/></g></svg>