<svg xmlns="http://www.w3.org/2000/svg" width="260" height="106" viewBox="0 0 260 106"><path d="M80.5 52c-8.5-5.8-19.4-3.4-25.1 5.3 -4.8 7.3-12 8.2-14.8 8.2 -9.1 0-15.3-6.4-17.2-13h0c0-0.1 0-0.1 0-0.2 0-0.1 0-0.1-0.1-0.2 -0.7-2.8-0.9-4.1-0.9-7 0-15.9 16.3-33.5 39.7-33.5 24 0 37.7 18.3 41.2 28.4 -0.1-0.2-0.1-0.4-0.2-0.5C96.3 19.4 77.5 5.2 55.4 5.2c-27.9 0-50.5 22.6-50.5 50.5 0 24.9 18 46.3 42.9 46.3 19.9 0 33.3-11.2 39.4-26.5C90.5 67 88.2 57.1 80.5 52z" fill="#003863"/><path d="M103.6 40.8c-2.9-9.9-16.8-29.4-41.6-29.4 -23.4 0-39.7 17.6-39.7 33.5 0 2.9 0.2 4.3 0.9 7 -0.3-1.2-0.5-2.4-0.5-3.6 0-16.5 16.5-27.9 33.5-27.9 23 0 41.6 18.6 41.6 41.6 0 18-10.4 33.6-25.5 41.1l0 0c19.4-7 33.3-25.6 33.3-47.5C105.9 50.5 105.2 46 103.6 40.8z" fill="#E4032E"/><path d="M147.6 70.7h-5V42.6h-15.5v-4.5h20.5v32.6H147.6zM156.4 35.6h5v40.4h-5V35.6zM192 55.6l-8.4-12.3L175.2 55.9l-4-2.7 12.4-18.1 12.4 17.7L192 55.6zM203.2 67.4c0 1.4-0.3 2.6-0.8 3.8 -0.6 1.2-1.3 2.2-2.2 3.1 -1 0.9-2.1 1.6-3.4 2.1 -1.3 0.5-2.6 0.8-4.1 0.8s-2.8-0.3-4.1-0.8c-1.3-0.5-2.4-1.2-3.4-2.1 -0.9-0.9-1.7-2-2.2-3.1 -0.6-1.2-0.8-2.5-0.8-3.8 0-1.4 0.3-2.6 0.8-3.8 0.6-1.2 1.3-2.2 2.2-3.1 1-0.9 2.1-1.6 3.4-2.1 1.3-0.5 2.7-0.8 4.1-0.8s2.8 0.3 4.1 0.8c1.3 0.5 2.4 1.2 3.4 2.1 0.9 0.9 1.6 2 2.2 3.1C202.9 64.8 203.2 66 203.2 67.4zM198.3 67.4c0-1.5-0.6-2.8-1.7-3.9 -1.1-1.1-2.4-1.6-3.9-1.6 -1.5 0-2.8 0.5-3.9 1.6 -1.1 1.1-1.7 2.4-1.7 3.9 0 1.5 0.5 2.8 1.7 3.9 1.1 1.1 2.4 1.6 3.9 1.6 1.5 0 2.8-0.5 3.9-1.6C197.7 70.2 198.3 68.9 198.3 67.4zM205.2 42.8h5.8v4.9h-5.8v8.6h-5V35.6h5V42.8zM218.3 43.2V39h9.5v-3.8h5.3v3.8h9v4.2h-9.8L242.5 53.5l-3.3 3.1 -8.8-9.1 -8.7 9.9 -3.4-3.1 10.2-11L218.3 43.2 218.3 43.2zM250.6 67.4c0 1.4-0.3 2.6-0.8 3.8 -0.6 1.2-1.3 2.2-2.2 3.1 -0.9 0.9-2 1.6-3.3 2.1 -1.3 0.5-2.6 0.8-4.1 0.8 -1.4 0-2.8-0.3-4.1-0.8 -1.3-0.5-2.4-1.2-3.4-2.1 -0.9-0.9-1.7-2-2.2-3.1 -0.6-1.2-0.8-2.5-0.8-3.8 0-1.4 0.3-2.6 0.8-3.8 0.6-1.2 1.3-2.2 2.2-3.1 0.9-0.9 2.1-1.6 3.4-2.1 1.3-0.5 2.7-0.8 4.1-0.8 1.4 0 2.8 0.3 4.1 0.8 1.3 0.5 2.4 1.2 3.3 2.1 0.9 0.9 1.7 2 2.2 3.1C250.3 64.8 250.6 66 250.6 67.4zM245.6 67.4c0-1.5-0.5-2.8-1.6-3.9 -1.1-1.1-2.4-1.6-4-1.6 -1.5 0-2.8 0.5-3.9 1.6 -1.1 1.1-1.6 2.4-1.6 3.9 0 1.5 0.5 2.8 1.6 3.9 1.1 1.1 2.4 1.6 3.9 1.6 1.5 0 2.9-0.5 4-1.6C245.1 70.2 245.6 68.9 245.6 67.4zM249 57.1V49.4h-7.1v-4.3h7.1v-9.5H254v21.5H249z" fill="#575756"/></svg>